SplineFontDB: 3.0
FontName: Pacifico
FullName: Pacifico
FamilyName: Pacifico
Weight: Regular
Copyright: Copyright (c) 2011-14 by vernon adams. All rights reserved.
Version: 2.0
ItalicAngle: 0
UnderlinePosition: 0
UnderlineWidth: 0
Ascent: 800
Descent: 200
UFOAscent: 970
UFODescent: -459
LayerCount: 2
Layer: 0 0 "Back"  1
Layer: 1 0 "Fore"  0
FSType: 0
OS2Version: 0
OS2_WeightWidthSlopeOnly: 0
OS2_UseTypoMetrics: 1
CreationTime: 1398193046
ModificationTime: 1398193326
PfmFamily: 17
TTFWeight: 400
TTFWidth: 5
LineGap: 0
VLineGap: 0
OS2TypoAscent: 0
OS2TypoAOffset: 1
OS2TypoDescent: 0
OS2TypoDOffset: 1
OS2TypoLinegap: 0
OS2WinAscent: 0
OS2WinAOffset: 1
OS2WinDescent: 0
OS2WinDOffset: 1
HheadAscent: 0
HheadAOffset: 1
HheadDescent: 0
HheadDOffset: 1
OS2Vendor: 'NeWT'
Lookup: 1 0 0 "'locl' Localized Forms in Latin lookup 0"  {"'locl' Localized Forms in Latin lookup 0 subtable"  } ['locl' ('latn' <'ROM ' 'dflt' > ) ]
Lookup: 1 0 0 "'locl' Localized Forms in Latin lookup 1"  {"'locl' Localized Forms in Latin lookup 1 subtable"  } ['locl' ('latn' <'MOL ' 'dflt' > ) ]
Lookup: 6 0 0 "'locl' Localized Forms in Latin lookup 2"  {"'locl' Localized Forms in Latin lookup 2 contextual 0"  "'locl' Localized Forms in Latin lookup 2 contextual 1"  } ['locl' ('latn' <'CAT ' 'dflt' > ) ]
Lookup: 4 0 0 "Ligature Substitution lookup 3"  {"Ligature Substitution lookup 3 subtable"  } []
Lookup: 4 0 0 "Ligature Substitution lookup 4"  {"Ligature Substitution lookup 4 subtable"  } []
Lookup: 1 0 0 "'sups' Superscript lookup 5"  {"'sups' Superscript lookup 5 subtable" ("superior" ) } ['sups' ('latn' <'dflt' 'ROM ' 'MOL ' 'CAT ' > 'grek' <'dflt' > 'DFLT' <'dflt' > ) ]
Lookup: 4 0 0 "'frac' Diagonal Fractions lookup 6"  {"'frac' Diagonal Fractions lookup 6 subtable"  } ['frac' ('latn' <'dflt' 'ROM ' 'MOL ' 'CAT ' > 'grek' <'dflt' > 'DFLT' <'dflt' > ) ]

StartChar: A
Encoding: 65 65 0
Width: 684
VWidth: 0
Flags: HW
PickledData: "(dp1
S'com.typemytype.robofont.layerData'
p2
(dp3
s."
AnchorPoint: "top" 532 671 basechar 0
AnchorPoint: "ogonek" 541 -46 basechar 0
LayerCount: 2
Fore
SplineSet
583 14 m 0
 564 14 557 23 557 52 c 0
 557 75 562 110 572 161 c 2
 642 478 l 2
 643 480 643 483 643 485 c 0
 643 507 618 522 595 522 c 0
 578 522 566 515 563 499 c 2
 499 217 l 2
 475 111 403 17 300 17 c 0
 208 17 156 76 156 183 c 0
 156 188 156 193 156 198 c 0
 166 454 337 616 521 616 c 0
 588 616 654 595 716 550 c 0
 724 543 733 541 740 541 c 0
 758 541 772 556 772 575 c 0
 772 583 770 595 759 604 c 0
 692 668 608 697 520 697 c 0
 295 697 59 501 59 194 c 0
 59 29 139 -60 288 -60 c 0
 376 -60 459 18 485 86 c 1
 485 86 482 65 482 43 c 0
 482 -15 506 -57 565 -57 c 0
 612 -57 666 -30 692 1 c 0
 697 7 699 14 699 20 c 0
 699 39 682 55 667 55 c 0
 664 55 660 55 656 51 c 0
 638 35 606 14 583 14 c 0
EndSplineSet
Position2: "'cpsp' Capital Spacing lookup 0 subtable" dx=5 dy=0 dh=10 dv=0
Substitution2: "Single Substitution lookup 8 subtable" ordfeminine
EndChar

StartChar: AE
Encoding: 175 198 1
Width: 1237
VWidth: 0
Flags: HW
PickledData: "(dp1
S'com.typemytype.robofont.layerData'
p2
(dp3
s."
AnchorPoint: "top" 785 671 basechar 0
AnchorPoint: "bot" 950 -87 basechar 0
AnchorPoint: "ogonek" 541 -46 basechar 0
LayerCount: 2
Fore
SplineSet
675 662 m 1
 626 686 575 697 520 697 c 0
 295 697 59 501 59 194 c 0
 59 29 139 -60 288 -60 c 0
 375 -60 504 -13 550 99 c 1
 563 -21 671 -77 788 -77 c 0
 789 -77 790 -77 791 -77 c 0
 909 -77 1036 -22 1082 79 c 0
 1089 87 1092 96 1092 105 c 0
 1092 126 1078 147 1059 147 c 0
 1050 147 1031 146 1024 134 c 0
 975 50 885 8 803 8 c 0
 704 8 616 66 616 183 c 0
 616 208 620 235 629 265 c 0
 631 265 722 265 724 265 c 0
 750 267 760 289 760 312 c 0
 760 331 752 348 740 349 c 0
 739 349 647 351 645 351 c 1
 653 384 667 430 685 512 c 0
 705 603 753 639 846 639 c 0
 895 639 951 625 983 596 c 1
 949 582 936 558 936 534 c 0
 936 525 938 516 941 507 c 0
 949 489 972 478 989 478 c 0
 990 478 991 478 993 478 c 0
 1016 478 1061 487 1061 560 c 0
 1061 655 956 704 850 704 c 0
 790 704 727 690 675 662 c 1
156 198 m 0
 167 485 355 619 513 619 c 0
 550 619 586 612 617 597 c 1
 573 489 543 205 476 109 c 0
 435 50 370 17 300 17 c 0
 208 17 156 76 156 183 c 0
 156 188 156 193 156 198 c 0
EndSplineSet
Position2: "'cpsp' Capital Spacing lookup 0 subtable" dx=5 dy=0 dh=10 dv=0
EndChar

StartChar: B
Encoding: 66 66 13
Width: 616
VWidth: 0
Flags: HW
PickledData: "(dp1
S'com.typemytype.robofont.layerData'
p2
(dp3
s."
AnchorPoint: "top" 392 671 basechar 0
LayerCount: 2
Fore
SplineSet
362 609 m 0
 458 609 537 568 537 477 c 0
 537 425 498 338 350 338 c 0
 348 338 347 338 345 338 c 2
 313 339 l 2
 289 339 270 333 270 313 c 0
 270 260 476 302 476 170 c 0
 476 83 349 -10 199 -10 c 0
 163 -10 164 0 164 22 c 0
 164 166 195 403 260 489 c 1
 249 506 237 514 219 514 c 0
 125 514 70 264 70 -19 c 0
 70 -56 123 -79 206 -79 c 0
 386 -79 581 45 581 175 c 0
 581 247 509 296 437 308 c 1
 575 320 632 404 640 468 c 0
 642 479 642 489 642 499 c 0
 642 626 519 691 372 691 c 0
 253 691 120 649 28 565 c 0
 21 559 18 551 18 543 c 0
 18 523 36 501 60 501 c 0
 71 501 83 505 96 516 c 0
 164 574 271 609 362 609 c 0
EndSplineSet
Position2: "'cpsp' Capital Spacing lookup 0 subtable" dx=5 dy=0 dh=10 dv=0
EndChar

StartChar: C
Encoding: 67 67 15
Width: 593
VWidth: 0
Flags: HW
PickledData: "(dp1
S'com.typemytype.robofont.layerData'
p2
(dp3
s."
AnchorPoint: "top" 462 671 basechar 0
AnchorPoint: "bot" 295 -70 basechar 0
LayerCount: 2
Fore
SplineSet
58 206 m 0
 58 -5 179 -95 314 -95 c 0
 455 -95 596 -14 655 115 c 0
 656 117 657 120 657 122 c 0
 657 137 637 151 621 151 c 0
 615 151 609 149 606 144 c 0
 549 56 454 -19 334 -19 c 0
 213 -19 153 69 153 218 c 0
 153 425 300 595 441 595 c 0
 500 595 537 568 537 518 c 0
 537 446 483 402 411 382 c 0
 376 372 353 366 353 343 c 0
 353 324 365 314 390 314 c 0
 396 314 403 315 411 316 c 0
 527 338 613 417 613 524 c 0
 613 615 548 671 449 671 c 0
 252 671 58 480 58 206 c 0
EndSplineSet
Position2: "'cpsp' Capital Spacing lookup 0 subtable" dx=5 dy=0 dh=10 dv=0
EndChar

StartChar: D
Encoding: 68 68 21
Width: 607
VWidth: 0
Flags: HW
PickledData: "(dp1
S'com.typemytype.robofont.layerData'
p2
(dp3
s."
AnchorPoint: "top" 342 671 basechar 0
AnchorPoint: "bot" 208 -36 basechar 0
LayerCount: 2
Fore
SplineSet
159 51 m 0
 159 180 217 436 278 515 c 1
 267 533 253 543 236 543 c 0
 223 543 208 537 192 526 c 1
 121 424 72 175 69 5 c 0
 68 -9 71 -14 82 -19 c 0
 113 -33 154 -47 200 -47 c 0
 399 -47 604 107 604 378 c 0
 604 556 486 675 266 675 c 0
 167 675 100 646 47 584 c 0
 41 577 15 532 15 499 c 0
 15 485 22 466 40 466 c 0
 62 466 88 518 106 537 c 0
 155 587 214 597 267 597 c 0
 437 597 520 490 520 368 c 0
 520 189 375 17 190 17 c 0
 163 17 159 28 159 51 c 0
EndSplineSet
Position2: "'cpsp' Capital Spacing lookup 0 subtable" dx=5 dy=0 dh=10 dv=0
EndChar

StartChar: Delta
Encoding: 270 8710 25
Width: 708
VWidth: 0
Flags: HW
LayerCount: 2
Fore
SplineSet
147 0 m 2
 621 0 l 2
 654 0 667 19 667 49 c 1
 479 496 l 2
 470 515 453 529 435 529 c 0
 421 529 407 521 396 503 c 0
 325 387 254 270 198 180 c 0
 153 108 119 58 112 41 c 1
 111 18 124 0 147 0 c 2
215 79 m 1
 254 139 361 318 423 422 c 1
 567 79 l 1
 215 79 l 1
EndSplineSet
Position2: "'cpsp' Capital Spacing lookup 0 subtable" dx=5 dy=0 dh=10 dv=0
EndChar

StartChar: E
Encoding: 69 69 26
Width: 553
VWidth: 0
Flags: HW
PickledData: "(dp1
S'com.typemytype.robofont.layerData'
p2
(dp3
s."
AnchorPoint: "top" 457 706 basechar 0
AnchorPoint: "bot" 266 -87 basechar 0
AnchorPoint: "ogonek" 324 -87 basechar 0
LayerCount: 2
Fore
SplineSet
253 -104 m 0
 386 -104 576 -20 649 72 c 0
 656 80 659 89 659 98 c 0
 659 119 645 140 626 140 c 0
 617 140 607 135 598 124 c 0
 535 48 371 -21 256 -21 c 0
 159 -21 143 43 143 91 c 0
 143 183 245 265 361 265 c 0
 398 265 417 289 417 312 c 0
 417 329 406 346 385 351 c 0
 271 376 223 413 223 496 c 0
 223 587 320 639 413 639 c 0
 462 639 518 625 550 596 c 1
 516 582 503 558 503 534 c 0
 503 525 505 516 508 507 c 0
 516 489 539 478 556 478 c 0
 557 478 558 478 560 478 c 0
 583 478 628 487 628 560 c 0
 628 655 523 704 417 704 c 0
 280 704 125 630 125 488 c 0
 125 385 172 337 302 319 c 1
 166 316 41 201 41 80 c 0
 41 -45 109 -104 253 -104 c 0
EndSplineSet
Position2: "'cpsp' Capital Spacing lookup 0 subtable" dx=5 dy=0 dh=10 dv=0
EndChar

StartChar: Eng
Encoding: 276 330 35
Width: 538
VWidth: 0
Flags: HW
LayerCount: 2
Fore
SplineSet
53 -264 m 0
 53 -296 76 -316 121 -316 c 0
 204 -316 308 -224 385 -25 c 1
 453 15 501 26 552 52 c 0
 575 64 585 79 585 90 c 0
 585 100 577 107 565 107 c 0
 562 107 560 107 557 106 c 0
 526 99 454 66 398 34 c 1
 482 274 553 440 553 542 c 0
 553 604 512 643 439 643 c 0
 283 643 204 474 151 332 c 1
 171 416 189 502 189 549 c 0
 189 604 150 638 103 638 c 0
 100 638 98 638 95 638 c 0
 16 631 -42 571 -72 505 c 0
 -75 498 -76 492 -76 486 c 0
 -76 455 -37 436 -23 436 c 0
 -20 436 -18 436 -18 438 c 0
 -1 484 52 571 87 571 c 2
 88 571 l 2
 113 571 112 521 112 510 c 0
 112 390 13 122 -42 -17 c 1
 -42 -17 -19 -42 13 -42 c 0
 53 -42 59 -9 72 22 c 0
 179 287 290 555 424 555 c 0
 451 555 463 534 463 510 c 0
 463 438 405 276 306 -2 c 1
 154 -81 60 -190 53 -257 c 0
 53 -259 53 -262 53 -264 c 0
123 -263 m 0
 113 -263 107 -257 107 -247 c 0
 107 -208 173 -120 290 -58 c 1
 262 -131 194 -263 123 -263 c 0
EndSplineSet
Position2: "'cpsp' Capital Spacing lookup 0 subtable" dx=5 dy=0 dh=10 dv=0
EndChar

StartChar: Euro
Encoding: 278 8364 38
Width: 634
VWidth: 0
Flags: HW
LayerCount: 2
Fore
SplineSet
91 165 m 2
 91 20 173 -66 317 -66 c 0
 418 -66 498 -5 556 45 c 0
 564 52 572 62 572 76 c 0
 572 94 556 111 539 111 c 0
 533 111 527 109 521 104 c 0
 472 64 401 21 315 21 c 0
 229 21 189 74 189 161 c 2
 189 175 l 1
 321 175 l 2
 349 175 364 188 364 215 c 0
 364 233 350 241 332 241 c 2
 199 241 l 1
 203 256 207 270 211 284 c 1
 343 284 l 2
 371 284 387 297 387 324 c 0
 387 343 372 350 354 350 c 2
 236 350 l 1
 271 429 320 536 430 536 c 0
 479 536 514 522 514 475 c 0
 514 438 492 410 492 379 c 0
 492 360 511 348 530 348 c 0
 541 348 552 352 558 362 c 0
 576 390 595 434 595 480 c 0
 595 571 536 612 442 612 c 0
 293 612 191 479 134 350 c 1
 91 350 l 2
 70 350 58 342 58 322 c 0
 58 299 68 284 91 284 c 2
 110 284 l 1
 106 270 103 256 100 241 c 1
 69 241 l 2
 48 241 36 232 36 212 c 0
 36 190 45 175 69 175 c 2
 91 175 l 1
 91 165 l 2
EndSplineSet
EndChar

StartChar: F
Encoding: 70 70 39
Width: 518
VWidth: 0
Flags: HW
PickledData: "(dp1
S'com.typemytype.robofont.layerData'
p2
(dp3
s."
AnchorPoint: "top" 462 671 basechar 0
LayerCount: 2
Fore
SplineSet
6 -9 m 0
 25 -44 88 -68 138 -68 c 0
 294 -68 330 69 384 256 c 1
 424 256 469 263 508 263 c 0
 522 263 529 279 529 295 c 0
 529 314 527 328 508 328 c 2
 398 328 l 1
 432 458 446 544 458 613 c 1
 484 616 508 617 532 617 c 0
 598 617 662 608 742 601 c 0
 743 601 744 601 745 601 c 0
 765 601 774 622 774 642 c 0
 774 685 650 691 562 691 c 0
 532 691 505 690 490 690 c 0
 175 690 30 535 30 394 c 0
 30 353 42 313 66 279 c 0
 77 263 106 255 129 255 c 0
 148 255 162 260 162 269 c 0
 162 271 161 274 159 277 c 0
 132 313 119 352 119 390 c 0
 119 491 211 586 385 606 c 1
 373 562 334 407 312 322 c 1
 288 319 238 314 238 284 c 0
 238 263 260 256 281 256 c 2
 296 256 l 1
 254 78 211 33 152 25 c 0
 147 24 141 24 136 24 c 0
 102 24 78 40 54 52 c 0
 52 53 49 54 46 54 c 0
 26 54 4 24 4 2 c 0
 4 -2 4 -6 6 -9 c 0
EndSplineSet
Position2: "'cpsp' Capital Spacing lookup 0 subtable" dx=5 dy=0 dh=10 dv=0
EndChar

StartChar: G
Encoding: 71 71 41
Width: 712
VWidth: 0
Flags: HW
PickledData: "(dp1
S'com.typemytype.robofont.layerData'
p2
(dp3
s."
AnchorPoint: "top" 532 671 basechar 0
AnchorPoint: "bot" 317 -321 basechar 0
LayerCount: 2
Fore
SplineSet
59 200 m 0
 59 4 190 -57 327 -57 c 0
 445 -57 564 -11 592 27 c 1
 536 -176 480 -238 402 -238 c 0
 375 -238 345 -231 312 -219 c 0
 308 -218 305 -217 301 -217 c 0
 277 -217 254 -242 254 -267 c 0
 254 -284 264 -301 291 -311 c 0
 329 -325 365 -332 397 -332 c 0
 544 -332 634 -185 690 119 c 0
 693 134 695 147 695 158 c 0
 695 207 662 219 563 219 c 0
 532 219 502 208 502 178 c 0
 502 149 523 142 560 142 c 0
 598 142 610 140 610 126 c 0
 610 123 610 120 609 116 c 2
 603 87 l 1
 518 45 425 17 347 17 c 0
 239 17 158 69 158 202 c 0
 158 464 369 594 499 594 c 0
 557 594 599 568 599 517 c 0
 599 468 622 462 646 462 c 0
 673 462 695 473 695 513 c 0
 695 623 613 676 509 676 c 0
 321 676 59 506 59 200 c 0
EndSplineSet
Position2: "'cpsp' Capital Spacing lookup 0 subtable" dx=5 dy=0 dh=10 dv=0
EndChar

StartChar: H
Encoding: 72 72 48
Width: 767
VWidth: 0
Flags: HW
PickledData: "(dp1
S'com.typemytype.robofont.layerData'
p2
(dp3
s."
AnchorPoint: "top" 522 671 basechar 0
LayerCount: 2
Fore
SplineSet
575 301 m 1
 597 390 l 2
 626 513 697 566 746 566 c 0
 776 566 798 546 798 511 c 0
 798 507 798 503 797 498 c 0
 788 429 726 345 575 301 c 1
74 -64 m 0
 74 -99 98 -105 122 -105 c 0
 154 -105 164 -79 176 -42 c 2
 255 204 l 1
 277 203 299 203 320 203 c 0
 376 203 427 207 473 213 c 1
 448 118 l 2
 437 77 433 42 433 12 c 0
 433 -95 492 -139 570 -139 c 0
 629 -139 698 -114 760 -71 c 0
 768 -66 771 -58 771 -49 c 0
 771 -30 756 -9 740 -9 c 0
 738 -9 735 -9 733 -10 c 0
 690 -27 629 -59 583 -59 c 0
 546 -59 519 -39 519 26 c 0
 519 53 524 87 534 130 c 2
 558 228 l 1
 782 281 871 408 878 506 c 0
 878 509 878 512 878 515 c 0
 878 587 819 637 747 637 c 0
 666 637 568 573 523 402 c 2
 491 282 l 1
 443 274 389 270 327 270 c 0
 311 270 294 270 277 271 c 1
 308 368 l 2
 324 418 332 462 332 499 c 0
 332 570 302 618 233 646 c 0
 205 658 174 664 143 664 c 0
 33 664 -80 590 -103 438 c 0
 -103 435 -104 432 -104 430 c 0
 -104 406 -87 392 -70 392 c 0
 -53 392 -36 405 -30 437 c 0
 -9 549 71 597 142 597 c 0
 166 597 189 591 208 581 c 0
 233 567 251 545 251 499 c 0
 251 464 240 416 215 347 c 2
 189 276 l 1
 168 278 148 280 126 283 c 0
 125 283 123 283 122 283 c 0
 100 283 83 262 83 243 c 0
 83 230 90 219 110 217 c 0
 129 215 148 213 166 211 c 1
 84 -16 l 2
 77 -36 74 -52 74 -64 c 0
EndSplineSet
Position2: "'cpsp' Capital Spacing lookup 0 subtable" dx=5 dy=0 dh=10 dv=0
EndChar

StartChar: Hbar
Encoding: 285 294 49
Width: 734
VWidth: 0
Flags: HW
LayerCount: 2
Fore
SplineSet
111 388 m 2
 631 398 l 2
 650 399 659 414 659 429 c 0
 659 442 651 455 637 455 c 2
 636 455 l 1
 117 434 l 2
 97 433 88 421 88 409 c 0
 88 398 96 388 111 388 c 2
EndSplineSet
Refer: 48 72 N 1 0 0 1 0 0 2
Position2: "'cpsp' Capital Spacing lookup 0 subtable" dx=5 dy=0 dh=10 dv=0
EndChar

StartChar: I
Encoding: 73 73 51
Width: 342
VWidth: 0
Flags: HW
PickledData: "(dp1
S'com.typemytype.robofont.layerData'
p2
(dp3
s."
AnchorPoint: "top" 342 671 basechar 0
AnchorPoint: "ogonek" 171 0 basechar 0
LayerCount: 2
Fore
SplineSet
-0 4 m 0
 -0 -15 10 -30 29 -30 c 0
 66 -30 204 -11 296 -7 c 0
 325 -6 337 14 337 31 c 0
 337 41 333 50 325 53 c 0
 312 58 277 59 249 59 c 0
 231 59 216 59 211 58 c 1
 222 176 339 577 354 579 c 0
 392 583 480 582 488 603 c 0
 492 614 495 626 495 636 c 0
 495 651 489 664 473 664 c 0
 446 663 195 657 169 655 c 0
 152 653 144 628 144 608 c 0
 144 575 163 575 202 575 c 2
 204 575 l 2
 231 575 261 577 278 577 c 1
 219 445 159 227 134 55 c 1
 103 54 9 45 2 19 c 0
 0 14 -0 9 -0 4 c 0
EndSplineSet
Position2: "'cpsp' Capital Spacing lookup 0 subtable" dx=5 dy=0 dh=10 dv=0
EndChar

StartChar: IJ
Encoding: 287 306 52
Width: 842
VWidth: 0
Flags: HW
AnchorPoint: "ogonek" 171 0 basechar 0
LayerCount: 2
Fore
SplineSet
337 34 m 0
 337 59 318 61 292 61 c 0
 287 61 282 61 276 61 c 0
 248 61 218 59 211 58 c 1
 222 176 339 553 352 578 c 1
 428 587 636 590 680 590 c 2
 823 586 l 1
 776 390 634 -88 527 -88 c 0
 473 -88 463 -5 457 86 c 0
 456 109 440 122 425 122 c 0
 410 122 396 109 396 81 c 0
 396 -62 437 -174 540 -174 c 0
 690 -174 817 267 898 585 c 1
 910 585 919 584 928 584 c 0
 973 584 985 589 1021 598 c 0
 1026 599 1037 620 1037 637 c 0
 1037 650 1031 661 1009 661 c 0
 983 661 951 661 915 662 c 1
 911 671 900 679 880 679 c 0
 863 679 852 676 845 663 c 1
 758 664 661 664 575 664 c 0
 540 664 506 664 476 664 c 0
 446 663 195 657 169 655 c 0
 151 653 141 626 141 605 c 0
 141 575 162 574 198 574 c 0
 200 574 202 574 204 574 c 0
 230 574 259 576 275 576 c 1
 216 445 159 227 134 55 c 1
 103 54 9 45 2 19 c 0
 0 14 0 9 -0 4 c 0
 0 -14 10 -30 28 -30 c 0
 63 -30 203 -8 296 -4 c 0
 325 -3 337 17 337 34 c 0
EndSplineSet
Position2: "'cpsp' Capital Spacing lookup 0 subtable" dx=5 dy=0 dh=10 dv=0
EndChar

StartChar: J
Encoding: 74 74 62
Width: 507
VWidth: 0
Flags: HW
PickledData: "(dp1
S'com.typemytype.robofont.layerData'
p2
(dp3
s."
AnchorPoint: "top" 532 671 basechar 0
LayerCount: 2
Fore
SplineSet
208 -194 m 0
 359 -195 483 257 565 578 c 1
 615 578 657 581 685 586 c 0
 713 591 726 603 726 624 c 0
 726 645 717 661 684 661 c 0
 648 661 612 662 578 664 c 1
 573 673 562 679 544 679 c 0
 530 679 519 676 512 667 c 1
 433 672 358 679 282 679 c 0
 121 679 -2 641 -40 478 c 0
 -41 474 -41 470 -41 467 c 0
 -41 448 -28 440 -14 440 c 0
 -3 440 9 446 14 457 c 0
 51 545 91 586 271 586 c 0
 338 586 418 581 489 579 c 1
 444 383 303 -109 195 -109 c 0
 141 -109 131 -61 125 21 c 0
 123 44 108 57 93 57 c 0
 78 57 63 43 63 13 c 0
 63 -118 106 -194 206 -194 c 0
 207 -194 207 -194 208 -194 c 0
EndSplineSet
Position2: "'cpsp' Capital Spacing lookup 0 subtable" dx=5 dy=0 dh=10 dv=0
EndChar

StartChar: K
Encoding: 75 75 64
Width: 646
VWidth: 0
Flags: HW
PickledData: "(dp1
S'com.typemytype.robofont.layerData'
p2
(dp3
s."
AnchorPoint: "top" 512 671 basechar 0
AnchorPoint: "bot" 300 -138 basechar 0
LayerCount: 2
Fore
SplineSet
733 -102 m 0
 733 -73 726 -64 707 -64 c 0
 687 -64 660 -75 628 -75 c 0
 517 -75 461 36 387 294 c 1
 569 385 714 545 742 605 c 0
 748 619 752 633 752 645 c 0
 752 660 745 672 724 672 c 0
 698 672 683 644 658 610 c 0
 604 537 478 417 320 332 c 1
 326 395 342 573 342 649 c 0
 342 671 327 682 306 682 c 0
 304 682 301 682 299 682 c 0
 47 648 -40 522 -40 392 c 0
 -40 377 -39 363 -37 348 c 0
 -33 323 -16 304 3 304 c 0
 5 304 7 305 9 305 c 0
 37 311 48 320 48 336 c 0
 48 355 44 374 44 393 c 0
 44 486 84 577 255 612 c 1
 255 177 174 -48 23 -48 c 0
 4 -48 -11 -39 -27 -39 c 0
 -48 -39 -70 -72 -70 -93 c 0
 -70 -123 4 -127 36 -127 c 0
 187 -127 265 18 314 294 c 1
 374 6 458 -146 610 -146 c 0
 625 -146 733 -138 733 -102 c 0
EndSplineSet
Position2: "'cpsp' Capital Spacing lookup 0 subtable" dx=5 dy=0 dh=10 dv=0
EndChar

StartChar: L
Encoding: 76 76 66
Width: 622
VWidth: 0
Flags: HW
PickledData: "(dp1
S'com.typemytype.robofont.layerData'
p2
(dp3
s."
AnchorPoint: "caron.alt" 929 452 basechar 0
AnchorPoint: "top" 582 671 basechar 0
AnchorPoint: "bot" 409 -154 basechar 0
LayerCount: 2
Fore
SplineSet
483 414 m 1
 490 549 523 603 597 625 c 0
 617 631 635 634 652 634 c 0
 716 634 755 594 755 549 c 0
 755 487 683 414 504 414 c 0
 497 414 490 414 483 414 c 1
353 53 m 1
 287 90 222 118 165 118 c 0
 92 118 54 66 54 13 c 0
 54 -44 98 -104 189 -104 c 0
 267 -104 327 -80 371 -39 c 1
 492 -112 629 -205 740 -205 c 0
 798 -205 850 -180 888 -112 c 0
 892 -105 894 -99 894 -93 c 0
 894 -79 884 -70 871 -70 c 0
 862 -70 853 -74 844 -84 c 0
 814 -120 778 -135 738 -135 c 0
 645 -135 530 -55 416 15 c 1
 465 92 483 199 483 306 c 0
 483 320 483 335 482 349 c 1
 491 349 501 349 510 349 c 0
 741 349 837 452 837 548 c 0
 837 631 765 708 648 708 c 0
 635 708 622 707 608 705 c 0
 501 689 398 617 396 421 c 1
 362 426 325 433 285 442 c 0
 282 443 280 443 277 443 c 0
 257 443 244 423 244 405 c 0
 244 393 249 383 262 380 c 0
 310 369 355 361 396 356 c 1
 396 244 393 130 353 53 c 1
309 -3 m 1
 280 -27 241 -41 189 -41 c 0
 149 -41 130 -15 130 9 c 0
 130 28 143 46 167 46 c 2
 168 46 l 2
 207 46 256 26 309 -3 c 1
EndSplineSet
Position2: "'cpsp' Capital Spacing lookup 0 subtable" dx=5 dy=0 dh=10 dv=0
EndChar

StartChar: Lslash
Encoding: 217 321 71
Width: 622
VWidth: 0
Flags: HW
LayerCount: 2
Fore
SplineSet
558 230 m 2
 568 235 574 244 574 252 c 0
 574 265 562 278 547 278 c 0
 544 278 541 277 537 275 c 2
 327 178 l 2
 313 171 306 161 306 151 c 0
 306 139 316 128 330 128 c 0
 333 128 338 128 342 130 c 2
 558 230 l 2
EndSplineSet
Refer: 66 76 N 1 0 0 1 0 0 2
Position2: "'cpsp' Capital Spacing lookup 0 subtable" dx=5 dy=0 dh=10 dv=0
EndChar

StartChar: M
Encoding: 77 77 72
Width: 863
VWidth: 0
Flags: HW
PickledData: "(dp1
S'com.typemytype.robofont.layerData'
p2
(dp3
s."
AnchorPoint: "top" 602 671 basechar 0
LayerCount: 2
Fore
SplineSet
157 572 m 0
 181 572 190 550 190 510 c 0
 190 462 175 389 147 298 c 2
 46 -27 l 1
 46 -27 74 -52 105 -52 c 0
 145 -52 149 -9 155 12 c 0
 266 375 346 552 443 552 c 0
 479 552 492 520 492 476 c 0
 492 437 482 388 469 344 c 2
 361 -17 l 1
 361 -17 386 -42 414 -42 c 0
 449 -42 456 1 462 22 c 0
 540 291 631 556 728 556 c 0
 757 556 775 536 775 515 c 0
 775 380 674 198 665 47 c 0
 665 44 665 41 665 38 c 0
 665 -24 705 -69 792 -69 c 0
 845 -69 893 -39 923 -4 c 0
 937 11 942 25 942 36 c 0
 942 52 931 61 917 61 c 0
 907 61 896 56 887 45 c 0
 863 16 826 0 795 -0 c 0
 765 0 743 18 743 51 c 0
 743 55 743 60 744 64 c 0
 764 208 849 370 859 519 c 0
 859 523 860 528 860 533 c 0
 860 580 841 641 761 641 c 0
 757 641 752 640 747 640 c 0
 680 635 591 552 543 401 c 1
 554 446 560 486 560 519 c 0
 560 598 529 642 470 642 c 0
 371 642 312 579 232 380 c 1
 250 443 263 498 263 542 c 0
 263 602 236 644 164 644 c 0
 96 644 -3 577 -3 485 c 0
 -3 456 34 435 50 435 c 0
 54 435 56 436 57 438 c 0
 74 504 113 572 157 572 c 0
EndSplineSet
Position2: "'cpsp' Capital Spacing lookup 0 subtable" dx=5 dy=0 dh=10 dv=0
EndChar

StartChar: N
Encoding: 78 78 74
Width: 606
VWidth: 0
Flags: HW
PickledData: "(dp1
S'com.typemytype.robofont.layerData'
p2
(dp3
s."
AnchorPoint: "top" 462 671 basechar 0
LayerCount: 2
Fore
SplineSet
621 543 m 0
 621 604 579 643 507 643 c 0
 351 643 272 474 219 332 c 1
 241 418 258 507 258 553 c 0
 257 609 218 642 170 642 c 0
 101 642 33 588 -4 505 c 0
 -7 498 -8 492 -8 486 c 0
 -8 455 31 436 46 436 c 0
 49 436 50 437 51 438 c 0
 84 527 120 571 155 571 c 2
 156 571 l 2
 180 571 181 521 181 510 c 0
 181 390 81 122 25 -17 c 1
 25 -17 49 -42 81 -42 c 0
 121 -42 127 -9 140 22 c 0
 247 287 357 555 492 555 c 0
 520 555 531 535 531 511 c 0
 531 439 439 257 411 85 c 0
 410 79 410 72 410 66 c 0
 410 9 452 -31 535 -31 c 0
 577 -31 634 -4 668 29 c 0
 684 45 690 59 690 71 c 0
 690 87 678 98 663 98 c 0
 653 98 643 94 633 83 c 0
 607 54 570 38 540 38 c 0
 511 38 489 53 489 84 c 0
 489 90 489 95 491 102 c 0
 529 268 621 441 621 543 c 0
EndSplineSet
Position2: "'cpsp' Capital Spacing lookup 0 subtable" dx=5 dy=0 dh=10 dv=0
EndChar

StartChar: O
Encoding: 79 79 79
Width: 661
VWidth: 0
Flags: HW
PickledData: "(dp1
S'com.typemytype.robofont.layerData'
p2
(dp3
s."
AnchorPoint: "top" 452 671 basechar 0
AnchorPoint: "ogonek" 344 -91 basechar 0
LayerCount: 2
Fore
SplineSet
334 -24 m 0
 214 -24 160 90 160 217 c 0
 160 381 256 591 428 591 c 0
 535 591 587 489 587 350 c 0
 587 178 501 -24 334 -24 c 0
70 206 m 0
 70 44 154 -104 327 -104 c 0
 556 -104 677 128 677 339 c 0
 677 523 596 669 423 669 c 0
 195 669 70 437 70 206 c 0
EndSplineSet
Position2: "'cpsp' Capital Spacing lookup 0 subtable" dx=5 dy=0 dh=10 dv=0
Substitution2: "Single Substitution lookup 9 subtable" ordmasculine
EndChar

StartChar: OE
Encoding: 302 338 80
Width: 1048
VWidth: 0
Flags: HW
LayerCount: 2
Fore
SplineSet
70 206 m 0
 70 45 155 -104 326 -104 c 0
 440 -104 528 -43 564 17 c 1
 578 -55 643 -104 748 -104 c 0
 881 -104 1071 -20 1145 72 c 0
 1151 80 1154 89 1154 98 c 0
 1154 119 1140 140 1121 140 c 0
 1112 140 1103 135 1093 124 c 0
 1031 48 867 -21 751 -21 c 0
 655 -21 620 43 620 91 c 1
 646 135 671 236 673 270 c 1
 702 268 764 265 805 265 c 0
 842 265 861 289 861 312 c 0
 861 329 850 351 822 351 c 2
 676 351 l 1
 676 376 669 440 664 463 c 1
 664 554 777 636 906 636 c 0
 956 636 1004 622 1036 592 c 1
 1009 528 l 2
 1004 517 1002 508 1002 501 c 0
 1002 488 1010 481 1030 481 c 0
 1052 481 1115 485 1115 563 c 0
 1115 658 1019 704 912 704 c 0
 796 704 653 650 617 547 c 1
 600 612 535 669 423 669 c 0
 195 669 70 437 70 206 c 0
337 -24 m 0
 215 -24 160 88 160 217 c 0
 160 381 256 591 428 591 c 0
 536 591 587 487 587 346 c 0
 587 130 501 -24 337 -24 c 0
EndSplineSet
Position2: "'cpsp' Capital Spacing lookup 0 subtable" dx=5 dy=0 dh=10 dv=0
EndChar

StartChar: Omega
Encoding: 307 8486 88
Width: 879
VWidth: 0
Flags: HW
LayerCount: 2
Fore
SplineSet
672 43 m 1
 785 113 843 242 843 367 c 0
 843 534 739 693 522 693 c 0
 279 693 147 492 147 305 c 0
 147 207 183 112 259 53 c 1
 229 54 206 54 186 54 c 0
 178 54 170 54 163 54 c 0
 147 54 140 40 140 27 c 0
 140 11 157 -12 180 -13 c 0
 192 -13 204 -14 216 -14 c 0
 267 -14 324 -11 440 -9 c 1
 437 46 l 1
 288 60 221 172 221 293 c 0
 221 449 332 621 520 621 c 0
 685 621 768 488 768 350 c 0
 768 209 682 63 507 46 c 1
 498 -8 l 1
 574 -18 640 -24 694 -24 c 0
 719 -24 742 -23 763 -20 c 0
 787 -16 806 3 806 24 c 0
 806 36 801 47 786 47 c 0
 785 47 784 47 783 47 c 0
 759 45 731 43 696 43 c 0
 688 43 680 43 672 43 c 1
EndSplineSet
Position2: "'cpsp' Capital Spacing lookup 0 subtable" dx=5 dy=0 dh=10 dv=0
EndChar

StartChar: Oslash
Encoding: 168 216 89
Width: 661
VWidth: 0
Flags: HW
PickledData: "(dp1
S'com.typemytype.robofont.layerData'
p2
(dp3
s."
LayerCount: 2
Fore
SplineSet
113 -187 m 2
 698 708 l 2
 702 714 704 719 704 724 c 0
 704 736 693 743 682 743 c 0
 674 743 666 740 662 731 c 2
 63 -152 l 2
 58 -161 55 -170 55 -177 c 0
 55 -194 68 -204 83 -204 c 0
 94 -204 105 -199 113 -187 c 2
EndSplineSet
Refer: 79 79 N 1 0 0 1 0 0 2
Position2: "'cpsp' Capital Spacing lookup 0 subtable" dx=5 dy=0 dh=10 dv=0
EndChar

StartChar: P
Encoding: 80 80 92
Width: 583
VWidth: 0
Flags: HW
PickledData: "(dp1
S'com.typemytype.robofont.layerData'
p2
(dp3
s."
AnchorPoint: "top" 442 671 basechar 0
LayerCount: 2
Fore
SplineSet
239 -53 m 0
 171 -53 160 102 160 211 c 0
 160 387 222 622 400 632 c 0
 409 633 417 633 426 633 c 0
 547 633 617 581 617 491 c 0
 617 400 533 333 403 320 c 1
 402 371 447 440 460 490 c 1
 459 504 440 511 421 511 c 0
 355 511 353 418 326 323 c 1
 306 324 264 354 241 354 c 0
 232 354 232 343 232 327 c 0
 232 281 276 273 317 256 c 1
 295 87 303 -53 239 -53 c 0
227 -125 m 0
 332 -125 363 -28 377 98 c 0
 388 188 392 259 401 261 c 0
 589 282 703 374 703 499 c 0
 703 620 598 713 422 713 c 0
 416 713 409 713 403 713 c 0
 188 705 77 476 77 211 c 0
 77 31 118 -125 227 -125 c 0
EndSplineSet
Position2: "'cpsp' Capital Spacing lookup 0 subtable" dx=5 dy=0 dh=10 dv=0
EndChar

StartChar: Q
Encoding: 81 81 94
Width: 701
VWidth: 0
Flags: HW
LayerCount: 2
Fore
SplineSet
1042 -208 m 0
 1042 -189 1023 -179 1007 -179 c 0
 997 -179 987 -185 985 -193 c 0
 961 -221 940 -251 891 -251 c 0
 814 -251 679 -181 438 4 c 0
 436 5 434 6 432 6 c 0
 416 6 389 -21 389 -36 c 0
 389 -39 390 -42 393 -44 c 0
 619 -212 766 -337 880 -337 c 0
 911 -337 939 -328 966 -308 c 0
 1025 -263 1031 -230 1041 -214 c 0
 1042 -212 1042 -210 1042 -208 c 0
EndSplineSet
Refer: 79 79 N 1 0 0 1 0 0 2
Position2: "'cpsp' Capital Spacing lookup 0 subtable" dx=5 dy=0 dh=10 dv=0
EndChar

StartChar: R
Encoding: 82 82 95
Width: 730
VWidth: 0
Flags: HW
PickledData: "(dp1
S'com.typemytype.robofont.layerData'
p2
(dp3
s."
AnchorPoint: "top" 472 671 basechar 0
LayerCount: 2
Fore
SplineSet
335 373 m 1
 316 376 298 378 291 378 c 0
 275 378 271 361 271 349 c 0
 271 326 293 314 325 308 c 1
 307 171 287 -55 239 -55 c 2
 238 -55 l 2
 189 -55 163 49 162 205 c 0
 162 443 263 620 442 620 c 0
 573 620 618 562 618 495 c 0
 618 487 617 478 616 469 c 0
 604 391 545 370 412 368 c 1
 412 370 413 371 413 373 c 0
 420 418 461 449 463 478 c 0
 463 498 448 507 426 507 c 0
 378 507 349 431 337 383 c 0
 336 380 336 377 335 373 c 1
924 -96 m 0
 924 -80 906 -63 890 -63 c 0
 885 -63 881 -65 877 -69 c 0
 844 -104 817 -113 793 -113 c 0
 788 -113 782 -113 777 -112 c 0
 700 -102 583 69 523 313 c 1
 619 329 701 363 716 474 c 0
 717 481 717 489 717 496 c 0
 717 601 616 705 438 705 c 0
 235 705 83 522 75 198 c 0
 75 185 74 173 74 161 c 0
 74 -29 133 -135 223 -135 c 0
 369 -135 373 73 403 303 c 1
 419 303 436 304 452 305 c 1
 482 86 625 -199 770 -199 c 0
 846 -199 900 -140 921 -106 c 0
 923 -103 924 -100 924 -96 c 0
EndSplineSet
Position2: "'cpsp' Capital Spacing lookup 0 subtable" dx=5 dy=0 dh=10 dv=0
EndChar

StartChar: S
Encoding: 83 83 99
Width: 636
VWidth: 0
Flags: HW
PickledData: "(dp1
S'com.typemytype.robofont.layerData'
p2
(dp3
s."
AnchorPoint: "top" 432 671 basechar 0
AnchorPoint: "bot" 316 -89 basechar 0
LayerCount: 2
Fore
SplineSet
403 632 m 0
 267 632 128 568 128 451 c 0
 128 346 209 308 303 252 c 0
 396 197 501 168 501 80 c 0
 501 11 447 -41 317 -41 c 0
 206 -41 137 2 137 83 c 0
 137 110 151 128 151 151 c 0
 151 168 139 178 122 178 c 0
 72 178 41 131 41 83 c 0
 41 -51 174 -114 312 -114 c 0
 479 -114 602 -39 602 87 c 0
 602 202 522 236 405 302 c 0
 264 380 229 391 229 459 c 0
 229 518 320 563 399 563 c 0
 473 563 538 532 538 479 c 0
 538 446 524 423 506 404 c 0
 499 396 496 387 496 379 c 0
 496 361 512 345 534 345 c 0
 549 345 566 352 583 370 c 0
 605 394 625 432 625 479 c 0
 623 578 528 632 403 632 c 0
EndSplineSet
Position2: "'cpsp' Capital Spacing lookup 0 subtable" dx=5 dy=0 dh=10 dv=0
EndChar

StartChar: T
Encoding: 84 84 107
Width: 484
VWidth: 0
Flags: HW
PickledData: "(dp1
S'com.typemytype.robofont.layerData'
p2
(dp3
s."
AnchorPoint: "mid" 341 292 basechar 0
AnchorPoint: "top" 482 671 basechar 0
AnchorPoint: "bot" 300 -104 basechar 0
LayerCount: 2
Fore
SplineSet
304 -87 m 0
 345 -87 360 -58 360 -10 c 0
 360 -4 360 4 360 12 c 0
 360 89 365 251 470 546 c 1
 520 543 579 541 632 541 c 0
 689 541 740 543 768 551 c 0
 798 559 808 577 808 601 c 0
 807 617 791 627 769 627 c 0
 614 627 465 645 338 645 c 0
 161 645 37 608 -3 447 c 0
 -4 444 -4 442 -4 439 c 0
 -4 423 10 416 24 416 c 0
 37 416 50 421 54 430 c 0
 80 490 129 553 328 553 c 0
 350 553 375 552 401 550 c 1
 272 280 250 91 250 6 c 0
 250 -18 251 -34 253 -41 c 0
 260 -67 273 -87 304 -87 c 0
EndSplineSet
Position2: "'cpsp' Capital Spacing lookup 0 subtable" dx=5 dy=0 dh=10 dv=0
EndChar

StartChar: Thorn
Encoding: 322 222 113
Width: 416
VWidth: 0
Flags: HW
LayerCount: 2
Fore
SplineSet
174 -123 m 0
 278 -123 308 -28 322 98 c 0
 333 188 336 259 345 261 c 0
 533 282 649 374 649 499 c 0
 649 608 562 696 415 711 c 1
 424 775 431 824 431 831 c 0
 432 845 427 850 413 850 c 0
 374 850 354 804 335 712 c 1
 130 694 25 470 25 211 c 0
 25 31 65 -123 174 -123 c 0
186 -54 m 0
 118 -54 105 102 105 211 c 0
 105 378 162 599 321 629 c 1
 308 549 294 448 273 323 c 1
 253 324 210 354 188 354 c 0
 178 354 178 343 178 327 c 0
 178 281 223 273 264 256 c 1
 242 87 250 -54 186 -54 c 0
349 321 m 1
 362 379 385 515 403 632 c 1
 506 624 563 573 563 491 c 0
 563 400 479 334 349 321 c 1
EndSplineSet
Position2: "'cpsp' Capital Spacing lookup 0 subtable" dx=5 dy=0 dh=10 dv=0
EndChar

StartChar: U
Encoding: 85 85 114
Width: 632
VWidth: 0
Flags: HW
PickledData: "(dp1
S'com.typemytype.robofont.layerData'
p2
(dp3
s."
AnchorPoint: "top" 452 671 basechar 0
AnchorPoint: "ogonek" 292 -53 basechar 0
LayerCount: 2
Fore
SplineSet
672 411 m 1
 709 425 749 447 792 482 c 0
 800 488 803 496 803 504 c 0
 803 518 792 530 779 530 c 0
 774 530 769 528 763 524 c 0
 732 501 703 485 677 474 c 1
 677 478 677 483 677 487 c 0
 677 604 637 692 549 692 c 0
 459 692 417 632 417 567 c 0
 417 486 481 395 589 395 c 1
 556 222 448 15 287 15 c 0
 202 15 169 86 169 181 c 0
 169 297 218 450 281 553 c 0
 285 560 287 566 287 572 c 0
 287 587 273 595 256 595 c 0
 250 595 243 594 237 592 c 0
 234 592 230 590 226 588 c 2
 58 480 l 2
 47 473 43 462 43 451 c 0
 43 437 51 425 64 425 c 0
 69 425 74 427 80 431 c 2
 159 483 l 1
 114 386 83 272 83 174 c 0
 83 41 138 -63 285 -63 c 0
 502 -63 644 196 672 411 c 1
482 566 m 0
 482 598 498 624 533 624 c 0
 578 624 599 570 599 495 c 0
 599 483 598 470 597 456 c 1
 520 457 482 518 482 566 c 0
EndSplineSet
Position2: "'cpsp' Capital Spacing lookup 0 subtable" dx=5 dy=0 dh=10 dv=0
EndChar

StartChar: V
Encoding: 86 86 125
Width: 569
VWidth: 0
Flags: HW
LayerCount: 2
Fore
SplineSet
550 462 m 1
 500 477 475 523 475 562 c 0
 475 595 493 624 528 624 c 0
 542 624 561 601 561 546 c 0
 561 524 558 495 550 462 c 1
637 554 m 0
 637 641 599 692 543 692 c 0
 452 692 411 630 411 563 c 0
 411 495 453 421 531 401 c 1
 519 368 504 331 483 289 c 0
 433 192 335 42 260 30 c 0
 257 29 254 29 251 29 c 0
 219 29 196 64 196 151 c 0
 196 347 298 512 307 522 c 0
 308 523 308 525 308 527 c 0
 308 538 293 555 273 555 c 0
 264 555 254 551 244 543 c 0
 243 543 243 542 242 542 c 2
 15 404 l 2
 4 397 -1 386 -1 375 c 0
 -1 361 7 349 21 349 c 0
 26 349 31 350 37 354 c 2
 184 446 l 1
 153 378 118 274 118 159 c 0
 118 31 158 -37 246 -37 c 0
 247 -37 247 -37 248 -37 c 0
 365 -31 460 108 545 259 c 0
 572 309 592 356 607 398 c 1
 657 405 715 431 781 482 c 0
 789 489 793 497 793 505 c 0
 793 518 784 530 771 530 c 0
 766 530 760 528 754 524 c 0
 704 488 661 469 625 461 c 1
 633 495 637 527 637 554 c 0
EndSplineSet
Position2: "'cpsp' Capital Spacing lookup 0 subtable" dx=5 dy=0 dh=10 dv=0
EndChar

StartChar: W
Encoding: 87 87 126
Width: 965
VWidth: 0
Flags: HW
PickledData: "(dp1
S'com.typemytype.robofont.layerData'
p2
(dp3
s."
AnchorPoint: "top" 642 671 basechar 0
LayerCount: 2
Fore
SplineSet
918 466 m 1
 871 481 849 526 849 565 c 0
 849 602 868 634 901 634 c 0
 918 634 934 613 934 566 c 0
 934 540 930 507 918 466 c 1
163 428 m 1
 134 360 105 264 105 159 c 0
 105 29 148 -44 239 -44 c 0
 240 -44 240 -44 241 -44 c 0
 335 -40 422 54 493 177 c 1
 495 61 528 -44 613 -44 c 2
 614 -44 l 1
 734 -39 832 104 917 256 c 0
 946 309 967 358 982 403 c 1
 1031 410 1087 433 1151 477 c 0
 1161 485 1166 494 1166 504 c 0
 1166 519 1154 534 1138 534 c 0
 1131 534 1124 532 1116 526 c 0
 1071 495 1033 476 1000 467 c 1
 1007 500 1011 530 1011 556 c 0
 1011 647 971 699 911 700 c 0
 815 700 770 637 770 569 c 0
 770 500 815 427 898 406 c 1
 885 372 869 334 848 292 c 0
 798 197 705 48 626 37 c 0
 624 37 622 37 621 37 c 0
 573 37 568 143 568 189 c 0
 568 212 569 232 571 250 c 0
 583 343 622 386 633 442 c 0
 635 449 635 456 635 462 c 0
 635 489 620 504 601 504 c 0
 600 504 600 504 599 504 c 0
 583 504 565 494 553 472 c 0
 538 446 524 410 514 368 c 1
 504 344 494 321 483 299 c 0
 413 150 321 45 253 37 c 0
 251 37 249 37 247 37 c 0
 216 37 193 67 193 152 c 0
 193 345 296 507 305 518 c 0
 307 521 308 524 308 527 c 0
 308 542 290 561 267 561 c 0
 257 561 246 558 234 548 c 0
 233 548 233 547 232 547 c 2
 5 410 l 2
 -8 403 -14 389 -14 376 c 0
 -14 358 -3 341 14 341 c 0
 20 341 27 343 34 348 c 2
 163 428 l 1
EndSplineSet
Position2: "'cpsp' Capital Spacing lookup 0 subtable" dx=5 dy=0 dh=10 dv=0
EndChar

StartChar: X
Encoding: 88 88 131
Width: 597
VWidth: 0
Flags: HW
LayerCount: 2
Fore
SplineSet
4 427 m 0
 67 485 102 507 125 507 c 0
 148 507 159 485 173 452 c 2
 271 217 l 1
 242 181 213 147 188 116 c 0
 108 21 53 -7 -29 -7 c 0
 -49 -7 -61 -28 -61 -50 c 0
 -61 -73 -48 -96 -21 -96 c 0
 51 -96 104 -82 218 59 c 0
 243 90 269 123 296 156 c 1
 358 6 l 2
 386 -61 418 -91 456 -91 c 0
 489 -91 526 -68 566 -28 c 2
 676 79 l 2
 679 82 681 86 681 90 c 0
 681 105 661 121 650 121 c 0
 648 121 646 120 645 119 c 2
 535 16 l 2
 519 1 506 -6 494 -6 c 0
 469 -6 453 24 438 62 c 2
 368 246 l 1
 449 347 531 445 601 516 c 0
 624 539 633 560 633 575 c 0
 633 595 617 607 598 607 c 0
 584 607 568 600 556 585 c 0
 493 497 418 399 345 308 c 1
 276 489 l 2
 255 545 215 579 161 579 c 0
 109 579 45 547 -29 471 c 0
 -35 465 -38 458 -38 452 c 0
 -38 436 -23 422 -9 422 c 0
 -4 422 0 424 4 427 c 0
EndSplineSet
Position2: "'cpsp' Capital Spacing lookup 0 subtable" dx=5 dy=0 dh=10 dv=0
EndChar

StartChar: Y
Encoding: 89 89 132
Width: 564
VWidth: 0
Flags: HW
PickledData: "(dp1
S'com.typemytype.robofont.layerData'
p2
(dp3
s."
AnchorPoint: "top" 452 671 basechar 0
LayerCount: 2
Fore
SplineSet
369 -41 m 1
 319 -188 268 -269 248 -269 c 0
 237 -269 229 -262 229 -241 c 0
 229 -203 287 -126 369 -41 c 1
499 151 m 1
 593 528 l 2
 596 541 598 553 598 562 c 0
 598 583 588 595 556 595 c 0
 538 595 523 580 516 549 c 2
 433 209 l 1
 376 136 301 87 243 87 c 0
 192 87 154 125 154 218 c 0
 154 296 181 414 248 580 c 0
 249 583 250 586 250 589 c 0
 250 603 232 606 218 606 c 0
 191 606 181 589 173 576 c 0
 101 444 70 326 70 233 c 0
 70 102 130 21 220 21 c 0
 276 21 345 52 417 124 c 1
 412 104 407 85 402 67 c 1
 277 -49 160 -184 160 -274 c 0
 160 -310 183 -340 225 -340 c 0
 347 -340 404 -207 476 61 c 1
 541 120 611 176 675 221 c 0
 680 225 682 230 682 237 c 0
 682 252 672 269 659 269 c 0
 656 269 652 268 649 266 c 0
 612 241 558 200 499 151 c 1
EndSplineSet
Position2: "'cpsp' Capital Spacing lookup 0 subtable" dx=5 dy=0 dh=10 dv=0
EndChar

StartChar: Z
Encoding: 90 90 137
Width: 585
VWidth: 0
Flags: HW
PickledData: "(dp1
S'com.typemytype.robofont.layerData'
p2
(dp3
s."
AnchorPoint: "top" 522 671 basechar 0
LayerCount: 2
Fore
SplineSet
715 33 m 0
 715 54 701 67 687 67 c 0
 679 67 671 64 664 60 c 0
 604 19 557 2 510 2 c 0
 438 2 366 43 253 101 c 1
 249 109 l 1
 327 191 530 416 684 544 c 1
 735 545 783 551 783 590 c 0
 783 619 754 626 729 627 c 0
 603 629 470 645 350 645 c 0
 187 645 68 611 29 447 c 0
 28 444 28 441 28 439 c 0
 28 423 41 416 55 416 c 0
 67 416 80 421 84 430 c 0
 110 493 160 551 380 551 c 0
 445 551 522 548 585 546 c 1
 584 545 582 544 581 543 c 0
 389 407 195 186 139 129 c 0
 104 94 59 45 59 23 c 0
 59 20 59 18 61 16 c 0
 71 4 82 -1 96 -1 c 0
 99 -1 103 -1 107 0 c 2
 193 51 l 1
 290 1 388 -65 503 -65 c 0
 561 -65 623 -48 692 -5 c 0
 697 -2 715 13 715 33 c 0
EndSplineSet
Position2: "'cpsp' Capital Spacing lookup 0 subtable" dx=5 dy=0 dh=10 dv=0
EndChar

StartChar: a
Encoding: 97 97 141
Width: 350
VWidth: 0
Flags: HW
PickledData: "(dp1
S'com.typemytype.robofont.layerData'
p2
(dp3
s."
AnchorPoint: "top" 236 339 basechar 0
AnchorPoint: "ogonek" 294 0 basechar 0
LayerCount: 2
Fore
SplineSet
21 104 m 0
 21 43 53 -5 116 -5 c 0
 161 -5 203 21 223 62 c 0
 223 63 224 64 224 65 c 1
 229 25 256 0 294 0 c 0
 350 0 404 51 429 85 c 0
 430 88 431 93 431 98 c 0
 431 117 422 145 407 145 c 0
 403 145 398 142 393 136 c 0
 376 114 336 69 303 69 c 0
 291 69 286 80 286 93 c 0
 286 97 286 100 287 104 c 2
 315 276 l 2
 315 278 315 280 315 282 c 0
 315 298 305 308 287 308 c 2
 264 308 l 1
 264 317 266 335 223 335 c 0
 129 335 21 227 21 104 c 0
134 65 m 0
 103 65 96 88 96 111 c 0
 96 174 164 273 246 273 c 1
 219 161 l 2
 208 117 173 65 134 65 c 0
EndSplineSet
Substitution2: "Single Substitution lookup 8 subtable" ordfeminine
EndChar

StartChar: acute
Encoding: 341 180 145
Width: 208
VWidth: 0
Flags: HW
PickledData: "(dp1
S'com.typemytype.robofont.layerData'
p2
(dp3
s."
AnchorPoint: "top" 89 339 mark 0
LayerCount: 2
Fore
SplineSet
126 426 m 2
 246 540 l 2
 256 549 260 560 260 569 c 0
 260 591 237 610 215 610 c 0
 203 610 192 605 184 591 c 2
 97 451 l 2
 93 444 91 438 91 433 c 0
 91 423 97 417 106 417 c 0
 112 417 119 420 126 426 c 2
EndSplineSet
EndChar

StartChar: ae
Encoding: 191 230 147
Width: 487
VWidth: 0
Flags: HW
AnchorPoint: "top" 355 339 basechar 0
AnchorPoint: "ogonek" 383 0 basechar 0
LayerCount: 2
Fore
SplineSet
236 63 m 1
 259 16 310 -6 362 -6 c 0
 445 -6 523 46 554 88 c 0
 559 95 561 101 561 107 c 0
 561 122 548 132 536 132 c 0
 532 132 527 131 524 128 c 0
 479 84 420 60 374 60 c 0
 373 60 372 60 371 60 c 0
 337 60 311 74 301 103 c 1
 419 128 482 169 482 245 c 0
 482 298 440 330 388 330 c 0
 360 330 335 321 313 307 c 1
 313 308 313 335 271 335 c 0
 111 335 23 242 17 106 c 0
 17 104 17 101 17 99 c 0
 17 40 54 -6 120 -6 c 0
 167 -6 212 18 236 63 c 1
140 65 m 0
 108 65 100 87 100 111 c 0
 100 173 171 266 271 266 c 1
 244 242 220 180 220 118 c 1
 207 100 177 65 140 65 c 0
296 147 m 1
 296 206 345 265 392 265 c 0
 408 265 421 258 421 237 c 0
 421 195 338 161 296 147 c 1
EndSplineSet
EndChar

StartChar: ampersand
Encoding: 38 38 152
Width: 521
VWidth: 0
Flags: HW
LayerCount: 2
Fore
SplineSet
468 -82 m 0
 516 -82 547 -58 547 -45 c 0
 547 -24 490 -10 466 8 c 0
 452 20 432 38 401 67 c 1
 458 98 506 136 506 192 c 0
 506 214 473 228 452 228 c 0
 442 228 434 225 434 217 c 0
 434 169 409 146 362 125 c 1
 331 169 287 239 259 295 c 1
 315 329 381 380 381 463 c 0
 381 526 332 564 267 564 c 0
 188 564 121 503 121 424 c 0
 121 374 143 327 161 293 c 1
 101 261 22 206 22 118 c 0
 22 33 103 0 191 0 c 0
 250 0 295 12 328 27 c 1
 328 23 351 -8 403 -61 c 0
 421 -79 447 -82 468 -82 c 0
193 69 m 0
 148 69 110 86 110 130 c 0
 110 186 150 226 183 251 c 1
 215 187 245 138 287 86 c 1
 262 77 230 69 193 69 c 0
243 339 m 1
 226 369 215 402 215 429 c 0
 215 465 232 492 271 492 c 0
 300 492 317 483 317 455 c 0
 317 400 274 367 243 339 c 1
EndSplineSet
EndChar

StartChar: asciicircum
Encoding: 94 94 157
Width: 372
VWidth: 0
Flags: HW
LayerCount: 2
Fore
SplineSet
67 172 m 0
 72 172 98 187 109 206 c 2
 198 384 l 1
 268 219 l 2
 276 201 293 174 319 174 c 0
 337 174 350 191 350 212 c 0
 350 218 349 225 346 232 c 0
 323 293 296 352 269 406 c 0
 254 435 235 459 194 459 c 0
 153 459 135 419 118 387 c 0
 100 354 81 318 63 284 c 0
 52 262 32 240 32 212 c 0
 32 195 63 172 67 172 c 0
EndSplineSet
EndChar

StartChar: asciitilde
Encoding: 126 126 158
Width: 295
VWidth: 0
Flags: HW
LayerCount: 2
Fore
SplineSet
249 442 m 0
 290 442 333 493 333 532 c 0
 333 548 320 557 305 557 c 0
 271 557 259 520 243 501 c 1
 208 536 l 2
 188 556 170 585 134 585 c 0
 93 585 50 535 50 496 c 0
 50 480 63 471 78 471 c 0
 110 471 125 508 140 527 c 1
 175 492 l 2
 195 472 212 442 249 442 c 0
EndSplineSet
EndChar

StartChar: asterisk
Encoding: 42 42 159
Width: 350
VWidth: 0
Flags: HW
LayerCount: 2
Fore
SplineSet
145 295 m 0
 166 295 188 307 188 327 c 0
 188 359 188 395 189 427 c 1
 211 403 238 380 262 357 c 0
 266 353 272 351 277 351 c 0
 296 351 318 376 318 395 c 0
 318 402 315 409 307 413 c 0
 279 427 248 440 219 453 c 1
 252 458 339 461 339 496 c 0
 339 518 314 537 295 537 c 0
 291 537 288 537 285 535 c 0
 258 520 228 503 200 488 c 1
 212 518 225 553 235 584 c 0
 236 587 237 591 237 594 c 0
 237 610 223 624 206 624 c 0
 185 624 164 613 164 592 c 0
 164 559 162 523 162 491 c 1
 138 514 112 538 89 561 c 0
 84 565 78 567 72 567 c 0
 51 567 26 547 26 528 c 0
 26 519 31 511 44 505 c 0
 71 491 102 478 130 465 c 1
 98 459 11 458 11 422 c 0
 11 401 34 380 53 380 c 0
 57 380 61 381 65 383 c 0
 93 397 123 413 150 429 c 1
 138 399 113 359 113 322 c 0
 113 304 127 295 145 295 c 0
EndSplineSet
EndChar

StartChar: at
Encoding: 64 64 160
Width: 766
VWidth: 0
Flags: HW
LayerCount: 2
Fore
SplineSet
470 96 m 0
 470 46 499 26 544 26 c 0
 638 26 727 140 727 294 c 0
 727 454 629 543 462 543 c 0
 250 543 37 360 37 123 c 0
 37 -15 119 -141 333 -141 c 0
 432 -141 539 -115 615 -71 c 0
 628 -64 633 -52 633 -41 c 0
 633 -25 622 -10 605 -10 c 0
 600 -10 593 -11 587 -15 c 0
 510 -60 424 -77 343 -77 c 0
 166 -77 109 17 109 121 c 0
 109 304 256 482 462 482 c 0
 596 482 665 415 665 287 c 0
 665 216 616 81 545 81 c 0
 529 81 520 86 520 106 c 0
 520 112 521 119 523 128 c 2
 579 349 l 2
 581 358 583 367 583 374 c 0
 583 396 571 405 548 405 c 0
 547 405 546 405 545 405 c 2
 525 405 l 1
 524 416 518 422 509 422 c 0
 371 422 206 297 206 126 c 0
 206 53 256 9 328 9 c 0
 391 9 436 43 470 102 c 1
 470 100 470 98 470 96 c 0
464 195 m 2
 449 144 406 68 331 68 c 0
 284 68 273 100 273 129 c 0
 273 259 377 357 488 357 c 0
 496 357 503 357 511 356 c 1
 464 195 l 2
EndSplineSet
EndChar

StartChar: b
Encoding: 98 98 162
Width: 383
VWidth: 0
Flags: HW
PickledData: "(dp1
S'com.typemytype.robofont.layerData'
p2
(dp3
s."
LayerCount: 2
Fore
SplineSet
263 132 m 1
 249 92 223 60 187 60 c 0
 141 60 127 100 127 141 c 0
 127 201 171 265 229 265 c 0
 268 265 274 248 274 224 c 0
 274 223 274 222 274 221 c 0
 253 216 235 195 235 177 c 0
 235 153 245 140 263 132 c 1
351 230 m 0
 351 286 318 323 280 323 c 0
 240 323 203 296 203 296 c 1
 269 348 349 486 356 567 c 0
 356 572 357 576 357 581 c 0
 357 620 340 656 293 656 c 0
 148 656 45 358 38 140 c 0
 38 138 38 135 38 133 c 0
 38 51 92 -5 184 -5 c 0
 261 -5 313 46 337 125 c 1
 383 130 431 149 456 173 c 0
 466 182 468 188 468 200 c 0
 468 215 460 226 446 226 c 0
 434 226 396 185 348 179 c 1
 350 195 351 212 351 230 c 0
124 264 m 1
 135 348 202 574 266 574 c 0
 276 574 282 567 282 551 c 0
 282 549 282 546 282 543 c 0
 274 454 183 342 124 264 c 1
EndSplineSet
EndChar

StartChar: backslash
Encoding: 92 92 163
Width: 426
VWidth: 0
Flags: HW
LayerCount: 2
Fore
SplineSet
360 -13 m 0
 381 -13 396 -3 396 19 c 0
 396 37 390 51 383 67 c 0
 312 224 238 389 167 546 c 0
 150 584 140 637 91 637 c 0
 67 637 53 620 53 596 c 0
 53 580 58 567 63 554 c 0
 142 379 209 195 296 22 c 0
 306 2 330 -13 360 -13 c 0
EndSplineSet
EndChar

StartChar: bar
Encoding: 124 124 164
Width: 426
VWidth: 0
Flags: HW
LayerCount: 2
Fore
SplineSet
176 -28 m 2
 175 -32 175 -36 175 -39 c 0
 175 -59 189 -73 205 -73 c 0
 221 -73 239 -59 247 -24 c 2
 404 645 l 2
 405 650 406 655 406 659 c 0
 406 682 391 694 375 694 c 0
 359 694 342 682 335 655 c 2
 176 -28 l 2
EndSplineSet
EndChar

StartChar: braceleft
Encoding: 123 123 165
Width: 394
VWidth: 0
Flags: HW
LayerCount: 2
Fore
SplineSet
100 323 m 0
 80 323 66 311 66 286 c 0
 66 267 75 253 91 251 c 0
 162 245 170 229 170 192 c 0
 170 135 155 84 155 34 c 0
 155 -48 190 -93 290 -93 c 0
 305 -93 321 -92 338 -90 c 0
 349 -89 355 -76 355 -64 c 0
 355 -50 348 -35 332 -35 c 0
 321 -35 310 -36 301 -36 c 0
 229 -36 229 -13 229 41 c 0
 229 91 244 147 244 200 c 0
 244 240 220 266 188 281 c 1
 229 292 260 320 263 372 c 0
 272 541 281 584 329 591 c 0
 334 592 339 592 343 592 c 0
 371 592 398 582 414 576 c 0
 417 575 420 574 423 574 c 0
 438 574 446 589 446 602 c 0
 446 611 443 619 436 623 c 0
 413 636 374 650 333 650 c 0
 224 650 201 571 191 393 c 0
 188 346 174 322 122 322 c 0
 115 322 107 323 100 323 c 0
EndSplineSet
EndChar

StartChar: braceright
Encoding: 125 125 166
Width: 426
VWidth: 0
Flags: HW
LayerCount: 2
Fore
SplineSet
162 574 m 0
 170 574 179 575 186 575 c 0
 252 575 261 552 261 497 c 0
 261 447 246 392 246 338 c 0
 246 298 271 272 305 257 c 1
 263 246 230 218 227 167 c 0
 218 -2 209 -46 165 -53 c 0
 161 -53 158 -53 154 -53 c 0
 125 -53 98 -43 80 -38 c 0
 77 -37 74 -36 71 -36 c 0
 56 -36 48 -51 48 -64 c 0
 48 -72 51 -80 58 -84 c 0
 81 -98 120 -111 160 -111 c 0
 271 -111 293 -34 303 146 c 0
 306 193 320 217 373 217 c 0
 380 217 388 216 395 216 c 0
 416 216 427 227 427 253 c 0
 427 271 418 286 403 288 c 0
 333 294 324 310 324 347 c 0
 324 404 338 455 338 504 c 0
 338 586 304 631 206 631 c 0
 191 631 174 630 156 628 c 0
 144 627 138 615 138 603 c 0
 138 589 146 574 162 574 c 0
EndSplineSet
EndChar

StartChar: bracketleft
Encoding: 91 91 167
Width: 316
VWidth: 0
Flags: HW
LayerCount: 2
Fore
SplineSet
183 2 m 1
 207 158 232 349 256 502 c 1
 357 502 l 2
 377 502 395 517 395 537 c 0
 395 557 382 570 361 570 c 2
 242 570 l 2
 206 570 189 562 181 511 c 0
 159 377 138 218 120 88 c 2
 105 -18 l 2
 104 -23 104 -27 104 -31 c 0
 104 -57 118 -65 153 -65 c 2
 265 -65 l 2
 287 -65 308 -49 308 -27 c 0
 308 -9 290 2 271 2 c 2
 183 2 l 1
EndSplineSet
EndChar

StartChar: bracketright
Encoding: 93 93 168
Width: 316
VWidth: 0
Flags: HW
LayerCount: 2
Fore
SplineSet
42 -65 m 2
 161 -65 l 2
 197 -65 214 -58 223 -7 c 0
 244 126 265 287 283 417 c 2
 298 522 l 2
 299 527 299 532 299 536 c 0
 299 562 285 570 250 570 c 2
 138 570 l 2
 116 570 95 553 95 531 c 0
 95 513 113 502 131 502 c 2
 220 502 l 1
 208 425 195 335 184 255 c 0
 172 177 158 66 147 2 c 1
 46 2 l 2
 26 2 9 -12 9 -32 c 0
 9 -52 21 -65 42 -65 c 2
EndSplineSet
EndChar

StartChar: breve
Encoding: 348 728 169
Width: 205
VWidth: 0
Flags: HW
AnchorPoint: "top" 87 339 mark 0
LayerCount: 2
Fore
SplineSet
18 530 m 0
 18 481 50 444 119 444 c 0
 172 444 222 478 222 541 c 0
 222 550 211 554 200 554 c 0
 188 554 176 549 175 542 c 0
 173 507 145 490 117 490 c 0
 92 490 68 505 68 533 c 0
 68 549 58 556 44 556 c 0
 29 556 18 547 18 530 c 0
EndSplineSet
EndChar

StartChar: brokenbar
Encoding: 166 166 170
Width: 350
VWidth: 0
Flags: HW
LayerCount: 2
Fore
SplineSet
142 -55 m 0
 168 -55 189 -48 193 -22 c 0
 210 81 224 157 224 200 c 0
 224 229 210 256 182 256 c 0
 154 256 140 233 137 208 c 0
 126 136 105 75 105 0 c 0
 105 -26 116 -55 142 -55 c 0
210 322 m 0
 237 322 248 347 251 372 c 0
 258 433 276 503 276 570 c 0
 276 601 266 634 236 634 c 0
 214 634 201 612 196 591 c 0
 179 515 165 389 165 379 c 0
 165 347 183 322 210 322 c 0
EndSplineSet
EndChar

StartChar: bullet
Encoding: 349 8226 171
Width: 383
VWidth: 0
Flags: HW
LayerCount: 2
Fore
SplineSet
175 86 m 0
 250 86 295 152 295 229 c 0
 295 281 269 306 219 306 c 0
 147 306 87 258 87 186 c 0
 87 126 117 86 175 86 c 0
EndSplineSet
EndChar

StartChar: c
Encoding: 99 99 172
Width: 274
VWidth: 0
Flags: HW
PickledData: "(dp1
S'com.typemytype.robofont.layerData'
p2
(dp3
s."
AnchorPoint: "top" 212 339 basechar 0
AnchorPoint: "bot" 136 0 basechar 0
LayerCount: 2
Fore
SplineSet
22 132 m 0
 22 25 108 -6 162 -6 c 0
 253 -6 321 55 354 105 c 0
 357 110 358 115 358 120 c 0
 358 134 348 148 337 148 c 0
 333 148 329 146 325 142 c 0
 284 97 232 52 172 52 c 0
 127 52 96 81 96 131 c 0
 96 227 152 266 187 266 c 0
 203 266 217 256 217 243 c 0
 217 214 204 211 204 197 c 0
 204 183 214 169 229 169 c 0
 250 169 284 209 284 251 c 0
 284 292 249 330 191 330 c 0
 87 330 22 221 22 132 c 0
EndSplineSet
EndChar

StartChar: caron
Encoding: 350 711 174
Width: 295
VWidth: 0
Flags: HW
AnchorPoint: "top" 127 339 mark 0
LayerCount: 2
Fore
SplineSet
66 637 m 0
 42 637 27 627 27 609 c 0
 27 604 28 598 30 592 c 2
 70 474 l 2
 88 421 96 410 135 410 c 0
 167 410 173 430 202 484 c 2
 259 590 l 2
 263 597 265 604 265 610 c 0
 265 623 249 636 227 636 c 0
 203 636 198 614 188 590 c 2
 132 467 l 1
 95 606 l 2
 89 627 81 637 66 637 c 0
EndSplineSet
EndChar

StartChar: caron.alt
Encoding: 351 -1 175
Width: 600
VWidth: 0
Flags: HW
AnchorPoint: "caron.alt" 89 339 mark 0
LayerCount: 2
Fore
SplineSet
92 438 m 0
 90 435 89 433 89 430 c 0
 89 422 96 417 103 417 c 0
 104 417 105 417 106 417 c 0
 175 437 256 540 260 569 c 0
 260 571 260 573 260 575 c 0
 260 599 239 610 219 610 c 0
 206 610 191 606 184 591 c 0
 145 498 94 442 92 438 c 0
EndSplineSet
EndChar

StartChar: cedilla
Encoding: 355 184 180
Width: 404
VWidth: 0
Flags: HW
AnchorPoint: "bot" 231 77 mark 0
LayerCount: 2
Fore
SplineSet
183 -124 m 2
 228 6 l 2
 229 8 229 9 229 11 c 0
 229 18 225 23 219 23 c 0
 215 23 211 20 206 14 c 2
 120 -104 l 2
 114 -112 112 -119 112 -126 c 0
 112 -143 128 -155 145 -155 c 0
 160 -155 175 -146 183 -124 c 2
EndSplineSet
EndChar

StartChar: cent
Encoding: 162 162 181
Width: 306
VWidth: 0
Flags: HW
LayerCount: 2
Fore
SplineSet
160 -68 m 0
 175 -68 185 -60 188 -44 c 2
 194 2 l 1
 233 11 266 34 292 55 c 0
 298 60 302 65 302 75 c 0
 302 89 292 109 279 109 c 0
 276 109 272 108 269 105 c 0
 251 93 224 76 200 69 c 1
 206 134 209 200 213 262 c 1
 252 253 221 186 264 186 c 0
 292 186 303 221 303 249 c 0
 303 296 261 320 218 326 c 1
 219 335 221 351 221 361 c 0
 221 371 216 388 207 388 c 0
 187 388 177 368 176 350 c 2
 174 327 l 1
 87 317 22 238 22 141 c 0
 22 61 67 1 146 0 c 1
 146 -15 144 -32 144 -45 c 0
 145 -58 148 -68 160 -68 c 0
152 66 m 1
 121 73 109 104 109 142 c 0
 109 195 128 240 168 256 c 1
 163 194 157 128 152 66 c 1
EndSplineSet
EndChar

StartChar: circumflex
Encoding: 356 710 182
Width: 295
VWidth: 0
Flags: HW
AnchorPoint: "top" 147 339 mark 0
LayerCount: 2
Fore
SplineSet
228 443 m 2
 232 428 249 419 265 419 c 0
 281 419 296 428 296 449 c 0
 296 454 295 460 293 467 c 2
 271 545 l 2
 253 603 249 641 202 641 c 0
 143 641 131 609 95 557 c 2
 47 486 l 2
 41 477 40 470 40 462 c 0
 41 446 55 438 71 438 c 0
 84 438 99 444 107 456 c 2
 190 579 l 1
 228 443 l 2
EndSplineSet
EndChar

StartChar: colon
Encoding: 58 58 183
Width: 240
VWidth: 0
Flags: HW
LayerCount: 2
Fore
SplineSet
166 0 m 0
 206 0 229 26 229 65 c 0
 229 102 209 121 172 121 c 0
 132 121 109 94 109 55 c 0
 109 19 129 0 166 0 c 0
186 229 m 0
 227 229 250 256 250 295 c 0
 250 331 229 351 192 351 c 0
 152 351 130 324 130 285 c 0
 130 249 150 229 186 229 c 0
EndSplineSet
EndChar

StartChar: comma
Encoding: 44 44 184
Width: 290
VWidth: 0
Flags: HW
LayerCount: 2
Fore
SplineSet
87 -76 m 0
 135 -63 206 -10 206 63 c 0
 206 87 196 110 169 110 c 0
 139 110 125 93 123 75 c 0
 116 18 94 -7 66 -54 c 0
 64 -57 63 -61 63 -64 c 0
 63 -72 70 -77 79 -77 c 0
 81 -77 84 -77 87 -76 c 0
EndSplineSet
EndChar

StartChar: copyright
Encoding: 169 169 185
Width: 612
VWidth: 0
Flags: HW
LayerCount: 2
Fore
SplineSet
284 110 m 0
 329 110 365 131 392 150 c 0
 397 154 400 160 400 169 c 0
 400 183 392 200 380 200 c 0
 378 200 376 200 374 199 c 0
 355 187 328 169 299 169 c 0
 265 169 252 198 252 231 c 0
 252 278 267 337 313 337 c 0
 320 337 321 331 321 323 c 0
 321 314 319 302 319 293 c 0
 319 277 324 268 341 268 c 0
 370 268 385 298 385 328 c 0
 385 371 351 396 307 396 c 0
 215 396 177 308 177 226 c 0
 177 165 207 110 284 110 c 0
287 65 m 0
 180 65 100 117 100 221 c 0
 100 349 195 437 326 437 c 0
 428 437 493 385 493 285 c 0
 493 161 412 65 287 65 c 0
285 11 m 0
 438 11 556 117 556 287 c 0
 556 418 471 492 338 492 c 0
 170 492 37 392 37 225 c 0
 37 86 143 11 285 11 c 0
EndSplineSet
EndChar

StartChar: currency
Encoding: 164 164 186
Width: 503
VWidth: 0
Flags: HW
LayerCount: 2
Fore
SplineSet
382 119 m 0
 398 119 416 138 416 154 c 0
 416 163 409 173 396 185 c 2
 362 215 l 1
 397 254 424 312 424 384 c 0
 424 408 420 430 412 449 c 1
 451 477 l 2
 464 485 478 494 478 511 c 0
 478 526 465 543 449 543 c 0
 421 543 392 513 372 500 c 1
 350 516 321 526 284 526 c 0
 246 526 214 518 189 503 c 1
 148 540 l 2
 137 549 126 555 118 555 c 0
 101 555 83 537 83 520 c 0
 83 506 93 497 103 488 c 2
 136 459 l 1
 106 423 85 372 85 312 c 0
 85 282 89 256 101 233 c 1
 48 197 l 2
 35 188 22 179 22 162 c 0
 22 146 34 130 50 130 c 0
 54 130 60 132 67 135 c 0
 92 146 118 166 140 183 c 1
 162 166 190 154 228 154 c 0
 259 154 285 162 307 173 c 1
 324 157 353 119 382 119 c 0
238 221 m 0
 187 221 161 256 161 308 c 0
 161 392 199 461 282 461 c 0
 325 461 347 428 347 385 c 0
 347 308 314 221 238 221 c 0
EndSplineSet
EndChar

StartChar: d
Encoding: 100 100 187
Width: 385
VWidth: 0
Flags: HW
PickledData: "(dp1
S'com.typemytype.robofont.layerData'
p2
(dp3
s."
AnchorPoint: "top" 134 339 basechar 0
AnchorPoint: "caron.alt" 521 555 basechar 0
AnchorPoint: "mid" 237 441 basechar 0
LayerCount: 2
Fore
SplineSet
22 114 m 0
 22 42 66 -5 123 -5 c 0
 174 -5 209 20 228 66 c 1
 248 21 285 -3 326 -3 c 0
 400 -3 449 44 481 85 c 0
 484 89 489 98 489 107 c 0
 489 126 472 138 458 138 c 0
 451 138 446 137 442 133 c 0
 425 111 379 60 334 60 c 0
 307 60 288 86 288 146 c 0
 288 149 288 152 288 155 c 0
 362 265 488 420 488 569 c 0
 488 576 488 583 487 590 c 0
 484 625 455 657 414 657 c 0
 313 657 255 520 228 325 c 1
 216 329 204 331 193 331 c 0
 102 331 22 221 22 114 c 0
139 65 m 0
 125 65 104 71 101 111 c 0
 101 115 101 118 101 122 c 0
 101 189 150 264 224 264 c 1
 212 188 l 2
 198 89 173 65 139 65 c 0
399 574 m 0
 413 574 418 559 418 538 c 0
 418 448 351 349 290 252 c 1
 308 390 334 574 399 574 c 0
EndSplineSet
EndChar

StartChar: dagger
Encoding: 357 8224 188
Width: 394
VWidth: 0
Flags: HW
LayerCount: 2
Fore
SplineSet
177 -92 m 0
 225 -92 227 -55 272 125 c 1
 306 277 l 1
 395 277 l 2
 417 277 430 283 430 306 c 0
 430 323 418 333 401 333 c 2
 317 333 l 1
 338 420 349 452 349 489 c 0
 349 505 344 517 328 517 c 0
 277 517 280 481 241 333 c 1
 160 333 l 2
 140 333 124 323 124 303 c 0
 124 283 136 277 157 277 c 2
 228 277 l 1
 162 0 153 -24 153 -53 c 0
 153 -72 158 -92 177 -92 c 0
EndSplineSet
EndChar

StartChar: daggerdbl
Encoding: 358 8225 189
Width: 394
VWidth: 0
Flags: HW
LayerCount: 2
Fore
SplineSet
177 -92 m 0
 225 -92 227 -55 272 125 c 1
 362 125 l 2
 384 125 397 130 397 153 c 0
 397 170 386 180 368 180 c 2
 284 180 l 1
 306 277 l 1
 395 277 l 2
 417 277 430 283 430 306 c 0
 430 323 418 333 401 333 c 2
 317 333 l 1
 338 420 349 452 349 489 c 0
 349 505 344 517 328 517 c 0
 277 517 280 481 241 333 c 1
 160 333 l 2
 140 333 124 323 124 303 c 0
 124 283 136 277 157 277 c 2
 228 277 l 1
 205 180 l 1
 127 180 l 2
 107 180 91 170 91 150 c 0
 91 130 103 125 124 125 c 2
 191 125 l 1
 162 0 153 -24 153 -53 c 0
 153 -72 158 -92 177 -92 c 0
EndSplineSet
EndChar

StartChar: degree
Encoding: 176 176 193
Width: 251
VWidth: 0
Flags: HW
LayerCount: 2
Fore
SplineSet
111 411 m 0
 87 411 73 427 73 450 c 0
 73 486 104 509 141 509 c 0
 162 509 174 495 174 475 c 0
 174 439 147 411 111 411 c 0
111 360 m 0
 180 360 229 409 229 479 c 0
 229 527 197 558 150 558 c 0
 85 558 22 517 22 450 c 0
 22 395 58 360 111 360 c 0
EndSplineSet
EndChar

StartChar: dieresis
Encoding: 362 168 194
Width: 350
VWidth: 0
Flags: HW
AnchorPoint: "top" 126 339 mark 0
LayerCount: 2
Fore
SplineSet
45 428 m 0
 67 428 97 443 97 479 c 0
 97 505 86 523 48 523 c 0
 27 523 -2 508 -2 472 c 0
 -2 445 9 428 45 428 c 0
241 428 m 0
 264 428 292 442 292 475 c 0
 292 505 279 523 242 523 c 0
 220 523 193 508 193 476 c 0
 193 446 205 428 241 428 c 0
EndSplineSet
EndChar

StartChar: divide
Encoding: 247 247 195
Width: 439
VWidth: 0
Flags: HW
LayerCount: 2
Fore
SplineSet
164 187 m 2
 369 187 l 2
 394 187 406 201 406 226 c 0
 406 243 392 252 373 252 c 2
 169 252 l 2
 145 252 121 240 121 217 c 0
 121 196 141 187 164 187 c 2
241 26 m 0
 276 26 296 48 296 82 c 0
 296 113 278 129 247 129 c 0
 213 129 193 107 193 73 c 0
 193 42 210 26 241 26 c 0
285 311 m 0
 320 311 340 333 340 367 c 0
 340 397 322 414 291 414 c 0
 257 414 237 392 237 358 c 0
 237 327 254 311 285 311 c 0
EndSplineSet
EndChar

StartChar: dollar
Encoding: 36 36 196
Width: 593
VWidth: 0
Flags: HW
LayerCount: 2
Fore
SplineSet
283 -77 m 0
 306 -77 323 -73 329 -54 c 2
 339 1 l 1
 441 11 525 62 525 173 c 0
 525 258 453 298 397 330 c 1
 430 521 l 1
 461 515 494 500 498 470 c 0
 502 441 524 426 545 426 c 0
 564 426 580 438 580 463 c 0
 580 465 580 468 580 470 c 0
 571 543 505 578 442 591 c 1
 447 622 l 2
 448 629 449 636 449 644 c 0
 449 661 444 678 427 678 c 0
 400 678 381 662 378 640 c 2
 371 596 l 1
 271 592 169 542 169 442 c 0
 169 358 258 322 315 292 c 1
 276 72 l 1
 223 76 169 92 169 144 c 0
 169 181 186 205 221 205 c 0
 239 205 250 216 250 232 c 0
 250 254 233 266 211 266 c 0
 135 266 88 217 88 143 c 0
 88 45 172 9 263 1 c 1
 261 -11 258 -26 258 -39 c 0
 258 -59 264 -77 283 -77 c 0
330 370 m 1
 302 387 262 410 262 453 c 0
 262 500 312 519 357 523 c 1
 349 474 339 421 330 370 c 1
353 77 m 1
 384 253 l 1
 410 236 443 214 443 173 c 0
 443 117 399 88 353 77 c 1
EndSplineSet
EndChar

StartChar: dotaccent
Encoding: 363 729 197
Width: 240
VWidth: 0
Flags: HW
AnchorPoint: "top" 76 339 mark 0
LayerCount: 2
Fore
SplineSet
116 446 m 0
 143 446 166 469 166 497 c 0
 166 520 146 539 121 539 c 0
 95 539 72 516 72 489 c 0
 72 465 93 446 116 446 c 0
EndSplineSet
EndChar

StartChar: dotlessi
Encoding: 364 305 198
Width: 205
VWidth: 0
Flags: HW
PickledData: "(dp1
S'com.typemytype.robofont.layerData'
p2
(dp3
s."
AnchorPoint: "top" 173 339 basechar 0
AnchorPoint: "ogonek" 130 0 basechar 0
LayerCount: 2
Fore
SplineSet
39 96 m 0
 39 38 78 -3 138 -3 c 0
 187 -3 243 26 292 84 c 0
 300 94 303 98 303 107 c 0
 303 127 287 138 271 138 c 0
 264 138 258 134 253 128 c 0
 212 81 177 60 152 60 c 0
 130 60 117 77 117 107 c 0
 117 156 152 258 177 305 c 0
 179 308 179 311 179 314 c 0
 179 331 158 339 140 339 c 0
 122 339 109 332 97 309 c 0
 69 257 39 156 39 96 c 0
EndSplineSet
EndChar

StartChar: uni0237
Encoding: 365 567 199
Width: 221
VWidth: 0
Flags: HW
AnchorPoint: "top" 158 339 basechar 0
LayerCount: 2
Fore
SplineSet
80 -208 m 0
 172 -208 208 -80 208 16 c 0
 208 59 199 98 189 131 c 1
 250 132 332 146 332 211 c 0
 332 223 328 231 320 231 c 0
 318 231 315 231 312 229 c 0
 250 203 211 198 135 186 c 1
 159 241 l 2
 167 258 181 285 181 308 c 0
 181 319 174 328 161 328 c 0
 115 328 102 315 87 280 c 0
 44 178 7 58 7 -78 c 0
 7 -146 20 -208 80 -208 c 0
143 12 m 0
 143 -43 131 -131 98 -131 c 0
 84 -131 81 -107 81 -85 c 0
 81 -78 82 -71 82 -65 c 0
 89 14 105 84 123 153 c 1
 132 108 143 63 143 12 c 0
EndSplineSet
EndChar

StartChar: e
Encoding: 101 101 200
Width: 288
VWidth: 0
Flags: HW
PickledData: "(dp1
S'com.typemytype.robofont.layerData'
p2
(dp3
s."
AnchorPoint: "top" 216 339 basechar 0
AnchorPoint: "ogonek" 184 0 basechar 0
LayerCount: 2
Fore
SplineSet
22 129 m 0
 22 35 91 -6 163 -6 c 0
 246 -6 324 46 354 88 c 0
 359 95 361 101 361 107 c 0
 361 122 348 132 336 132 c 0
 332 132 328 131 325 128 c 0
 279 84 220 60 174 60 c 0
 139 60 112 73 102 103 c 1
 220 128 283 169 283 245 c 0
 283 298 241 330 188 330 c 0
 92 330 22 222 22 129 c 0
97 147 m 1
 97 204 144 265 193 265 c 0
 208 265 222 258 222 237 c 0
 222 195 138 161 97 147 c 1
EndSplineSet
EndChar

StartChar: eight
Encoding: 56 56 208
Width: 417
VWidth: 0
Flags: HW
LayerCount: 2
Fore
SplineSet
395 407 m 0
 395 476 327 504 260 504 c 0
 177 504 113 451 113 370 c 0
 113 322 152 287 185 265 c 1
 129 231 77 188 77 101 c 0
 77 22 134 -13 219 -13 c 0
 303 -13 368 33 368 110 c 0
 368 179 321 220 280 251 c 1
 342 280 395 319 395 407 c 0
214 54 m 0
 173 54 151 80 151 109 c 0
 151 163 196 200 229 217 c 1
 245 199 284 157 284 123 c 0
 284 87 259 54 214 54 c 0
241 298 m 1
 224 314 189 347 189 376 c 0
 189 417 218 438 263 438 c 0
 287 438 314 421 314 388 c 0
 314 352 269 313 241 298 c 1
EndSplineSet
EndChar

StartChar: ellipsis
Encoding: 371 8230 209
Width: 535
VWidth: 0
Flags: HW
LayerCount: 2
Fore
SplineSet
166 0 m 0
 206 0 229 26 229 65 c 0
 229 102 209 121 172 121 c 0
 132 121 109 94 109 55 c 0
 109 19 129 0 166 0 c 0
308 0 m 0
 348 0 372 26 372 65 c 0
 372 102 351 121 314 121 c 0
 274 121 251 94 251 55 c 0
 251 19 271 0 308 0 c 0
450 0 m 0
 490 0 514 26 514 65 c 0
 514 102 493 121 456 121 c 0
 416 121 394 94 394 55 c 0
 394 19 414 0 450 0 c 0
EndSplineSet
EndChar

StartChar: emdash
Encoding: 372 8212 211
Width: 383
VWidth: 0
Flags: HW
LayerCount: 2
Fore
SplineSet
54 131 m 2
 318 131 l 2
 348 131 361 148 361 177 c 0
 361 201 344 208 319 208 c 2
 63 208 l 2
 35 208 21 197 21 168 c 0
 21 147 33 131 54 131 c 2
EndSplineSet
EndChar

StartChar: emptyset
Encoding: 373 8709 212
Width: 419
VWidth: 0
Flags: HW
LayerCount: 2
Fore
SplineSet
189 -102 m 2
 242 51 l 1
 359 51 427 186 427 296 c 0
 427 356 407 409 363 427 c 1
 417 592 l 2
 419 596 419 600 419 604 c 0
 419 616 411 624 402 624 c 0
 393 624 383 617 378 601 c 2
 322 433 l 1
 220 428 132 301 132 184 c 0
 132 125 155 78 199 60 c 1
 150 -91 l 2
 149 -93 149 -95 149 -97 c 0
 149 -109 159 -116 170 -116 c 0
 178 -116 186 -112 189 -102 c 2
223 130 m 1
 206 145 200 170 200 196 c 0
 200 269 245 346 299 362 c 1
 223 130 l 1
263 120 m 1
 340 357 l 1
 355 345 361 320 361 290 c 0
 361 219 323 124 263 120 c 1
EndSplineSet
EndChar

StartChar: endash
Encoding: 374 8211 213
Width: 338
VWidth: 0
Flags: HW
LayerCount: 2
Fore
SplineSet
54 131 m 2
 274 131 l 2
 304 131 317 148 317 177 c 0
 317 201 300 208 276 208 c 2
 64 208 l 2
 35 208 22 197 22 168 c 0
 22 147 34 131 54 131 c 2
EndSplineSet
EndChar

StartChar: eng
Encoding: 375 331 214
Width: 337
VWidth: 0
Flags: HW
LayerCount: 2
Fore
SplineSet
-18 -193 m 0
 -18 -219 1 -237 38 -237 c 0
 72 -237 109 -220 147 -182 c 0
 188 -142 227 -80 260 6 c 1
 316 41 357 50 400 72 c 0
 419 82 427 94 427 104 c 0
 427 112 420 118 410 118 c 0
 408 118 406 118 403 117 c 0
 378 110 317 83 271 56 c 1
 293 118 l 2
 303 148 333 249 333 299 c 0
 333 313 321 328 295 328 c 0
 252 328 191 263 111 136 c 1
 121 179 141 260 152 294 c 0
 153 297 154 300 154 303 c 0
 154 317 142 330 125 330 c 0
 101 330 88 314 81 294 c 0
 58 230 40 143 40 74 c 0
 40 67 40 60 40 53 c 0
 40 24 44 0 71 0 c 0
 93 0 102 17 121 50 c 0
 173 140 217 201 260 229 c 1
 250 193 235 142 227 118 c 2
 194 26 l 1
 146 1 105 -27 73 -56 c 0
 40 -84 15 -113 0 -140 c 0
 -12 -160 -18 -178 -18 -193 c 0
182 -34 m 1
 159 -82 101 -176 56 -176 c 0
 54 -176 53 -176 51 -176 c 0
 46 -176 43 -171 43 -167 c 0
 43 -144 92 -83 182 -34 c 1
EndSplineSet
EndChar

StartChar: equal
Encoding: 61 61 216
Width: 583
VWidth: 0
Flags: HW
LayerCount: 2
Fore
SplineSet
289 173 m 0
 258 173 222 175 188 175 c 0
 154 175 119 168 119 142 c 0
 119 109 140 98 177 98 c 2
 448 98 l 2
 516 98 554 109 554 154 c 0
 554 170 542 175 526 175 c 2
 413 175 l 2
 387 175 343 173 289 173 c 0
177 235 m 2
 482 240 l 2
 528 240 566 251 566 285 c 0
 566 312 556 318 544 321 c 0
 530 324 515 325 500 325 c 0
 456 325 404 316 327 316 c 0
 319 316 311 316 303 316 c 2
 214 318 l 2
 211 318 209 318 206 318 c 0
 170 318 131 311 131 276 c 0
 131 252 151 235 175 235 c 0
 176 235 176 235 177 235 c 2
EndSplineSet
EndChar

StartChar: estimated
Encoding: 376 8494 217
Width: 392
VWidth: 0
Flags: HW
LayerCount: 2
Fore
SplineSet
220 110 m 0
 305 110 359 155 388 193 c 0
 391 198 392 201 392 206 c 0
 392 216 383 225 376 225 c 0
 375 225 374 225 373 224 c 0
 321 161 266 133 220 133 c 0
 165 133 128 166 128 233 c 1
 269 233 332 280 332 348 c 0
 332 392 296 436 215 436 c 0
 143 436 63 389 63 258 c 0
 63 255 63 251 63 248 c 0
 66 140 168 110 220 110 c 0
128 248 m 1
 128 370 169 424 217 424 c 0
 255 424 279 393 279 357 c 0
 279 309 236 251 128 248 c 1
EndSplineSet
EndChar

StartChar: eth
Encoding: 377 240 218
Width: 372
VWidth: 0
Flags: HW
LayerCount: 2
Fore
SplineSet
174 0 m 0
 310 0 385 156 385 328 c 0
 385 374 376 415 363 449 c 1
 404 467 l 2
 420 474 433 483 433 501 c 0
 433 520 423 536 406 536 c 0
 399 536 393 533 388 531 c 2
 332 507 l 1
 298 553 247 591 168 591 c 0
 140 591 118 580 118 553 c 0
 118 536 128 515 146 515 c 0
 194 515 229 500 254 473 c 1
 197 449 l 2
 185 443 175 437 175 422 c 0
 175 404 189 385 208 385 c 0
 213 385 218 386 223 388 c 0
 244 397 265 407 286 416 c 1
 294 391 298 363 298 329 c 1
 275 335 251 339 221 339 c 0
 134 339 22 258 22 142 c 0
 22 52 86 0 174 0 c 0
185 65 m 0
 132 65 99 91 99 142 c 0
 99 208 161 262 226 262 c 0
 253 262 272 257 290 249 c 1
 279 191 250 65 185 65 c 0
EndSplineSet
EndChar

StartChar: exclam
Encoding: 33 33 219
Width: 319
VWidth: 0
Flags: HW
LayerCount: 2
Fore
SplineSet
389 610 m 0
 389 631 375 648 342 648 c 0
 314 648 296 628 289 601 c 2
 194 188 l 2
 194 187 193 185 193 184 c 0
 193 176 201 168 210 168 c 0
 218 168 228 174 234 192 c 2
 364 526 l 2
 376 557 389 587 389 610 c 0
181 -0 m 0
 220 -0 242 28 242 65 c 0
 242 101 223 121 187 121 c 0
 147 121 125 94 125 55 c 0
 125 19 145 -0 181 -0 c 0
EndSplineSet
EndChar

StartChar: f
Encoding: 102 102 221
Width: 253
VWidth: 0
Flags: HW
PickledData: "(dp1
S'com.typemytype.robofont.layerData'
p2
(dp3
s."
LayerCount: 2
Fore
SplineSet
99 -241 m 0
 223 -233 223 -125 223 -44 c 0
 223 19 201 104 182 146 c 1
 251 148 345 155 345 223 c 0
 345 236 340 247 333 247 c 0
 331 247 329 246 326 244 c 0
 279 218 255 201 198 201 c 0
 185 201 168 203 159 206 c 1
 226 285 342 425 342 555 c 0
 342 603 317 634 274 634 c 0
 84 634 18 130 18 -61 c 0
 18 -141 26 -241 94 -241 c 0
 96 -241 97 -241 99 -241 c 0
110 -177 m 0
 93 -177 92 -109 92 -59 c 0
 92 9 100 110 103 179 c 1
 133 130 160 24 160 -63 c 0
 160 -104 159 -177 110 -177 c 0
119 234 m 1
 128 265 183 558 261 558 c 0
 275 558 278 541 278 522 c 0
 278 425 144 263 119 234 c 1
EndSplineSet
EndChar

StartChar: five
Encoding: 53 53 222
Width: 417
VWidth: 0
Flags: HW
LayerCount: 2
Fore
SplineSet
56 105 m 0
 56 32 120 -9 215 -9 c 0
 299 -9 384 38 384 149 c 0
 384 255 310 297 225 297 c 0
 210 297 194 296 178 293 c 1
 210 392 l 2
 212 392 215 392 217 392 c 0
 272 392 320 381 355 381 c 0
 392 381 413 396 413 443 c 0
 413 474 402 483 394 483 c 0
 391 483 388 482 386 480 c 0
 369 460 353 454 335 454 c 0
 302 454 262 476 198 476 c 0
 111 476 168 428 110 294 c 0
 105 283 103 273 103 265 c 0
 103 247 113 235 130 235 c 0
 147 235 165 239 181 239 c 0
 252 239 302 211 302 148 c 0
 302 85 256 56 209 56 c 0
 156 56 130 77 123 105 c 0
 122 109 122 112 122 115 c 0
 122 125 125 133 125 142 c 0
 125 158 114 164 104 165 c 0
 80 165 56 148 56 105 c 0
EndSplineSet
EndChar

StartChar: florin
Encoding: 379 402 223
Width: 449
VWidth: 0
Flags: HW
LayerCount: 2
Fore
SplineSet
179 -44 m 0
 333 -44 342 166 370 295 c 1
 471 295 l 2
 490 295 504 308 504 328 c 0
 504 349 492 361 471 361 c 2
 380 361 l 1
 392 429 406 551 478 551 c 0
 503 551 516 527 539 527 c 0
 562 527 577 554 577 576 c 0
 577 613 527 628 490 628 c 0
 347 628 317 487 299 361 c 1
 281 361 263 363 246 363 c 0
 218 363 198 357 198 328 c 0
 198 306 208 295 230 295 c 2
 289 295 l 1
 285 260 280 229 275 202 c 0
 265 141 252 33 184 33 c 0
 167 33 162 57 147 57 c 0
 125 57 109 30 109 8 c 0
 109 -27 146 -44 179 -44 c 0
EndSplineSet
EndChar

StartChar: four
Encoding: 52 52 225
Width: 417
VWidth: 0
Flags: HW
LayerCount: 2
Fore
SplineSet
244 -20 m 0
 263 -20 276 -16 285 21 c 2
 296 69 l 1
 359 70 l 2
 380 71 391 92 391 110 c 0
 391 123 385 135 373 135 c 2
 372 135 l 1
 311 135 l 1
 318 167 343 268 350 297 c 0
 350 299 351 300 351 302 c 0
 351 316 335 321 320 321 c 0
 295 321 283 309 277 288 c 0
 270 263 242 157 237 136 c 1
 147 136 l 1
 180 239 222 368 246 449 c 0
 247 451 247 454 247 456 c 0
 247 472 229 482 211 482 c 0
 196 482 181 475 176 459 c 0
 149 382 90 207 67 130 c 0
 63 116 60 104 60 95 c 0
 60 74 72 68 92 68 c 2
 222 68 l 1
 212 22 l 2
 211 16 210 12 210 7 c 0
 210 -10 219 -20 244 -20 c 0
EndSplineSet
Substitution2: "'sups' Superscript lookup 5 subtable" uni2074
EndChar

StartChar: fraction
Encoding: 382 8260 227
Width: 247
VWidth: 0
Flags: HW
LayerCount: 2
Fore
SplineSet
69 -16 m 2
 323 571 l 2
 325 576 326 581 326 586 c 0
 326 605 311 621 293 621 c 0
 281 621 267 613 258 593 c 2
 4 20 l 2
 1 13 0 7 -0 1 c 0
 0 -22 20 -36 39 -36 c 0
 51 -36 63 -30 69 -16 c 2
EndSplineSet
EndChar

StartChar: g
Encoding: 103 103 228
Width: 344
VWidth: 0
Flags: HW
PickledData: "(dp1
S'com.typemytype.robofont.layerData'
p2
(dp3
s."
AnchorPoint: "top" 236 339 basechar 0
LayerCount: 2
Fore
SplineSet
63 -317 m 0
 112 -317 150 -295 187 -252 c 0
 224 -208 248 -123 267 -37 c 1
 337 10 380 30 428 56 c 0
 444 64 450 76 450 86 c 0
 450 103 433 118 416 118 c 0
 414 118 411 118 409 117 c 0
 379 109 324 73 276 34 c 1
 332 271 l 2
 332 273 333 275 333 277 c 0
 333 294 317 307 296 307 c 0
 289 307 282 306 275 303 c 1
 275 303 278 326 240 327 c 0
 239 327 237 327 236 327 c 0
 129 327 27 220 27 96 c 0
 27 42 63 0 120 0 c 0
 153 0 194 20 212 46 c 1
 202 -2 l 1
 150 -42 89 -81 47 -129 c 0
 20 -160 -20 -201 -20 -249 c 0
 -20 -297 13 -317 63 -317 c 0
142 65 m 0
 113 65 107 89 107 111 c 0
 107 174 171 264 256 264 c 1
 229 162 l 2
 220 130 200 65 142 65 c 0
58 -263 m 0
 47 -263 42 -251 42 -242 c 0
 42 -187 123 -128 198 -64 c 1
 186 -124 136 -263 58 -263 c 0
EndSplineSet
EndChar

StartChar: germandbls
Encoding: 223 223 235
Width: 438
VWidth: 0
Flags: HW
LayerCount: 2
Fore
SplineSet
241 68 m 0
 222 68 191 75 178 75 c 0
 163 75 158 70 157 60 c 0
 156 53 154 46 154 39 c 0
 154 21 166 6 234 1 c 0
 240 1 246 0 252 0 c 0
 348 0 431 61 431 155 c 0
 431 240 369 289 282 289 c 1
 371 291 442 335 442 424 c 0
 442 503 368 546 285 546 c 0
 257 546 231 542 209 533 c 0
 42 465 22 208 22 -23 c 0
 22 -44 43 -54 65 -54 c 0
 92 -54 113 -40 113 -13 c 0
 113 9 113 30 113 54 c 0
 113 222 115 480 286 480 c 0
 328 480 365 463 365 421 c 0
 365 356 306 329 240 329 c 0
 210 329 205 318 205 289 c 0
 205 270 215 261 229 255 c 0
 284 230 354 247 354 167 c 0
 354 104 302 68 241 68 c 0
EndSplineSet
EndChar

StartChar: grave
Encoding: 96 96 236
Width: 208
VWidth: 0
Flags: HW
PickledData: "(dp1
S'com.typemytype.robofont.layerData'
p2
(dp3
s."
AnchorPoint: "top" 156 339 mark 0
LayerCount: 2
Fore
SplineSet
124 407 m 0
 133 407 140 413 140 422 c 0
 140 427 138 433 133 440 c 2
 47 581 l 2
 39 594 28 600 16 600 c 0
 -6 600 -29 580 -29 558 c 0
 -29 549 -25 538 -15 529 c 2
 104 416 l 2
 111 409 118 407 124 407 c 0
EndSplineSet
EndChar

StartChar: greater
Encoding: 62 62 237
Width: 404
VWidth: 0
Flags: HW
LayerCount: 2
Fore
SplineSet
91 36 m 0
 132 36 169 58 202 72 c 0
 274 102 388 116 388 214 c 0
 388 271 325 276 286 295 c 0
 232 320 158 371 85 371 c 0
 58 371 47 342 47 315 c 0
 47 296 59 289 74 284 c 2
 321 209 l 1
 86 121 l 2
 69 114 56 89 56 63 c 0
 56 45 72 36 91 36 c 0
EndSplineSet
EndChar

StartChar: greaterequal
Encoding: 388 8805 238
Width: 566
VWidth: 0
Flags: HW
LayerCount: 2
Fore
SplineSet
202 -11 m 2
 406 -11 l 2
 443 -11 481 0 481 44 c 0
 481 61 470 65 453 65 c 2
 371 65 l 2
 345 65 309 65 275 65 c 0
 258 65 242 65 227 65 c 0
 188 65 144 63 144 32 c 0
 144 0 165 -11 202 -11 c 2
EndSplineSet
Refer: 237 62 N 1 0 0 1 103 58 2
EndChar

StartChar: guillemotleft
Encoding: 171 171 239
Width: 492
VWidth: 0
Flags: HW
LayerCount: 2
Fore
SplineSet
218 30 m 0
 225 26 233 24 241 24 c 0
 261 24 278 37 278 54 c 0
 278 82 250 94 235 107 c 2
 144 186 l 1
 255 264 l 2
 270 275 289 286 289 306 c 0
 289 327 271 341 250 341 c 0
 221 341 202 317 182 302 c 0
 146 277 65 243 65 182 c 0
 65 160 78 145 92 132 c 0
 132 93 166 59 218 30 c 0
415 30 m 0
 422 26 430 24 438 24 c 0
 458 24 475 37 475 54 c 0
 475 82 447 94 433 107 c 2
 340 186 l 1
 452 264 l 2
 467 275 486 286 486 306 c 0
 486 327 468 341 447 341 c 0
 418 341 399 317 379 302 c 0
 343 277 263 243 263 182 c 0
 263 160 274 145 289 132 c 0
 329 93 363 59 415 30 c 0
EndSplineSet
EndChar

StartChar: guillemotright
Encoding: 187 187 240
Width: 492
VWidth: 0
Flags: HW
LayerCount: 2
Fore
SplineSet
114 25 m 0
 121 25 129 26 136 30 c 0
 177 53 209 79 239 109 c 0
 258 128 289 147 289 182 c 0
 289 224 251 250 224 266 c 0
 207 276 189 291 173 302 c 0
 154 316 132 341 104 341 c 0
 83 341 65 327 65 306 c 0
 65 286 84 275 100 264 c 2
 211 186 l 1
 119 107 l 2
 104 94 76 83 76 54 c 0
 76 37 96 25 114 25 c 0
312 25 m 0
 318 25 326 26 333 30 c 0
 374 53 406 79 436 109 c 0
 455 128 486 147 486 182 c 0
 486 224 448 250 421 266 c 0
 404 276 386 291 370 302 c 0
 351 316 329 341 301 341 c 0
 280 341 263 327 263 306 c 0
 263 286 281 275 296 264 c 2
 408 186 l 1
 316 107 l 2
 300 94 273 83 273 54 c 0
 273 37 293 25 312 25 c 0
EndSplineSet
EndChar

StartChar: guilsinglleft
Encoding: 389 8249 241
Width: 372
VWidth: 0
Flags: HW
LayerCount: 2
Fore
SplineSet
274 25 m 0
 292 25 313 37 313 54 c 0
 313 81 289 100 270 107 c 2
 109 186 l 1
 289 264 l 2
 307 272 323 285 323 306 c 0
 323 327 306 341 285 341 c 0
 278 341 272 340 267 338 c 2
 96 266 l 2
 64 253 28 228 28 185 c 0
 28 160 42 142 58 132 c 0
 119 92 177 58 252 30 c 0
 260 27 267 25 274 25 c 0
EndSplineSet
EndChar

StartChar: guilsinglright
Encoding: 390 8250 242
Width: 372
VWidth: 0
Flags: HW
LayerCount: 2
Fore
SplineSet
109 25 m 0
 116 25 123 27 130 30 c 0
 192 57 252 89 306 120 c 0
 333 136 355 154 355 195 c 0
 355 232 320 253 287 266 c 2
 116 338 l 2
 111 340 105 341 98 341 c 0
 77 341 60 327 60 306 c 0
 60 285 76 272 94 264 c 2
 273 186 l 1
 113 107 l 2
 95 98 70 81 70 54 c 0
 70 37 90 25 109 25 c 0
EndSplineSet
EndChar

StartChar: h
Encoding: 104 104 243
Width: 379
VWidth: 0
Flags: HW
AnchorPoint: "mid" 131 494 basechar 0
AnchorPoint: "top" 303 660 basechar 0
LayerCount: 2
Fore
SplineSet
31 71 m 0
 31 32 36 -1 71 -1 c 0
 95 -1 102 16 110 39 c 0
 134 107 202 186 246 219 c 0
 254 225 259 227 262 227 c 0
 264 227 265 226 265 223 c 0
 265 204 217 123 217 59 c 0
 217 18 241 -1 273 -1 c 0
 278 -1 284 -1 289 0 c 0
 353 11 407 42 444 67 c 0
 458 77 464 91 464 103 c 0
 464 123 453 142 438 142 c 0
 435 142 432 141 429 139 c 0
 419 131 334 66 305 66 c 0
 297 66 295 69 295 76 c 0
 295 123 342 208 365 276 c 0
 367 281 367 285 367 289 c 0
 367 313 345 330 314 330 c 0
 284 330 182 276 109 147 c 1
 127 247 l 1
 311 412 361 511 370 590 c 0
 370 592 370 595 370 597 c 0
 370 644 341 677 292 677 c 0
 119 677 42 308 33 114 c 0
 32 103 31 87 31 71 c 0
269 596 m 0
 283 596 290 590 290 575 c 0
 290 512 206 397 136 323 c 1
 150 399 204 596 269 596 c 0
EndSplineSet
EndChar

StartChar: hungarumlaut
Encoding: 393 733 246
Width: 350
VWidth: 0
Flags: HW
AnchorPoint: "top" 116 339 mark 0
LayerCount: 2
Fore
SplineSet
86 417 m 2
 199 571 l 2
 207 582 211 593 211 603 c 0
 211 627 191 644 170 644 c 0
 156 644 141 636 131 616 c 2
 48 441 l 2
 46 437 45 434 45 430 c 0
 45 417 56 408 68 408 c 0
 74 408 81 410 86 417 c 2
237 407 m 2
 384 571 l 2
 394 582 398 594 398 604 c 0
 398 626 380 642 358 642 c 0
 344 642 328 634 316 616 c 2
 199 431 l 2
 196 427 195 422 195 418 c 0
 195 406 206 399 218 399 c 0
 225 399 231 401 237 407 c 2
EndSplineSet
EndChar

StartChar: hyphen
Encoding: 45 45 247
Width: 367
VWidth: 0
Flags: HW
LayerCount: 2
Fore
SplineSet
57 289 m 0
 57 271 69 255 85 255 c 0
 88 255 92 255 96 257 c 0
 137 277 167 295 296 313 c 0
 318 316 325 324 325 339 c 0
 325 360 309 365 293 365 c 0
 178 358 118 343 87 327 c 0
 64 314 57 301 57 289 c 0
EndSplineSet
EndChar

StartChar: i
Encoding: 105 105 248
Width: 205
VWidth: 0
Flags: HW
PickledData: "(dp1
S'com.typemytype.robofont.layerData'
p2
(dp3
s."
AnchorPoint: "ogonek" 0 0 basechar 0
LayerCount: 2
Fore
SplineSet
39 96 m 0
 39 38 78 -3 138 -3 c 0
 187 -3 243 26 292 84 c 0
 300 94 303 98 303 107 c 0
 303 127 287 138 271 138 c 0
 264 138 258 134 253 128 c 0
 212 81 177 60 152 60 c 0
 130 60 117 77 117 107 c 0
 117 156 148 248 174 295 c 0
 176 298 176 301 176 304 c 0
 176 318 158 328 144 328 c 0
 123 328 107 325 93 298 c 0
 65 247 39 156 39 96 c 0
186 394 m 0
 221 394 244 415 244 450 c 0
 244 481 223 495 194 495 c 0
 159 495 132 475 132 441 c 0
 132 410 152 394 186 394 c 0
EndSplineSet
EndChar

StartChar: infinity
Encoding: 400 8734 256
Width: 678
VWidth: 0
Flags: HW
LayerCount: 2
Fore
SplineSet
258 383 m 0
 167 383 129 314 129 226 c 0
 129 149 175 108 244 108 c 0
 317 108 359 155 391 203 c 1
 427 155 460 108 527 108 c 0
 617 108 651 179 651 256 c 0
 651 329 608 384 542 384 c 0
 467 384 420 326 395 286 c 1
 363 334 328 383 258 383 c 0
197 237 m 0
 197 281 223 310 257 310 c 0
 301 310 336 272 352 243 c 1
 335 223 303 178 258 178 c 0
 222 178 197 195 197 237 c 0
585 245 m 0
 585 219 566 188 527 188 c 0
 492 188 448 219 434 242 c 1
 452 264 495 311 532 311 c 0
 567 311 585 286 585 245 c 0
EndSplineSet
EndChar

StartChar: integral
Encoding: 401 8747 257
Width: 470
VWidth: 0
Flags: HW
LayerCount: 2
Fore
SplineSet
176 -44 m 0
 330 -44 341 139 366 295 c 0
 388 433 399 551 475 551 c 0
 500 551 512 527 536 527 c 0
 558 527 573 554 573 576 c 0
 573 613 523 628 486 628 c 0
 339 628 315 490 286 295 c 0
 258 115 266 33 181 33 c 0
 164 33 158 57 144 57 c 0
 121 57 106 30 106 8 c 0
 106 -27 142 -44 176 -44 c 0
EndSplineSet
EndChar

StartChar: j
Encoding: 106 106 260
Width: 221
VWidth: 0
Flags: HW
LayerCount: 2
Fore
SplineSet
80 -208 m 0
 172 -208 208 -80 208 16 c 0
 208 59 199 98 189 131 c 1
 250 132 332 146 332 211 c 0
 332 223 328 231 320 231 c 0
 318 231 315 231 312 229 c 0
 250 203 211 198 135 186 c 1
 159 241 l 2
 167 258 181 285 181 308 c 0
 181 319 174 328 161 328 c 0
 115 328 102 315 87 280 c 0
 44 178 7 58 7 -78 c 0
 7 -146 20 -208 80 -208 c 0
143 12 m 0
 143 -43 131 -131 98 -131 c 0
 84 -131 81 -107 81 -85 c 0
 81 -78 82 -71 82 -65 c 0
 89 14 105 84 123 153 c 1
 132 108 143 63 143 12 c 0
186 394 m 0
 221 394 244 415 244 450 c 0
 244 481 223 495 194 495 c 0
 159 495 132 475 132 441 c 0
 132 410 152 394 186 394 c 0
EndSplineSet
EndChar

StartChar: k
Encoding: 107 107 262
Width: 432
VWidth: 0
Flags: HW
AnchorPoint: "bot" 181 0 basechar 0
LayerCount: 2
Fore
SplineSet
240 72 m 0
 240 11 294 -7 324 -7 c 0
 390 -7 467 53 497 100 c 0
 500 105 502 110 502 116 c 0
 502 133 489 151 476 151 c 0
 471 151 466 149 462 143 c 0
 429 97 380 59 347 54 c 0
 341 53 336 53 332 53 c 0
 314 53 306 59 306 72 c 0
 306 74 306 75 306 77 c 0
 317 144 437 158 437 256 c 0
 437 296 413 322 370 322 c 0
 287 322 206 241 114 77 c 1
 114 94 124 178 129 207 c 1
 171 243 372 449 372 580 c 0
 372 623 348 656 302 656 c 0
 102 656 46 229 46 79 c 0
 46 46 53 -4 83 -4 c 0
 170 -4 243 236 342 236 c 0
 354 236 354 226 354 220 c 0
 350 183 240 148 240 72 c 0
142 296 m 1
 158 398 219 574 278 574 c 0
 291 574 296 568 296 554 c 0
 296 473 211 376 142 296 c 1
EndSplineSet
EndChar

StartChar: kgreenlandic
Encoding: 404 312 264
Width: 432
VWidth: 0
Flags: HW
LayerCount: 2
Fore
SplineSet
240 72 m 0
 240 11 294 -7 324 -7 c 0
 390 -7 467 53 497 100 c 0
 500 105 502 110 502 116 c 0
 502 133 489 151 476 151 c 0
 471 151 466 149 462 143 c 0
 429 97 380 59 347 54 c 0
 341 53 336 53 332 53 c 0
 314 53 306 59 306 72 c 0
 306 74 306 75 306 77 c 0
 317 144 437 158 437 256 c 0
 437 296 413 322 370 322 c 0
 287 322 206 241 114 77 c 1
 114 94 124 178 129 207 c 1
 228 277 271 345 271 391 c 0
 271 426 245 450 202 450 c 0
 90 450 46 224 46 79 c 0
 46 46 53 -4 83 -4 c 0
 170 -4 243 236 342 236 c 0
 354 236 354 226 354 220 c 0
 350 183 240 148 240 72 c 0
136 274 m 1
 148 338 171 388 199 388 c 0
 208 388 211 384 211 377 c 0
 211 355 172 304 136 274 c 1
EndSplineSet
EndChar

StartChar: l
Encoding: 108 108 265
Width: 249
VWidth: 0
Flags: HW
AnchorPoint: "caron.alt" 426 455 basechar 0
LayerCount: 2
Fore
SplineSet
155 -3 m 0
 211 -3 262 21 317 83 c 0
 325 92 329 101 329 109 c 0
 329 126 313 138 299 138 c 0
 293 138 287 136 282 131 c 0
 248 92 208 61 171 61 c 0
 134 61 123 99 123 142 c 0
 123 158 125 175 127 191 c 1
 233 274 354 436 368 580 c 0
 368 583 368 585 368 588 c 0
 368 625 343 656 302 656 c 0
 158 656 68 353 52 180 c 0
 51 169 51 158 51 148 c 0
 51 56 87 -3 155 -3 c 0
135 264 m 1
 151 365 214 574 277 574 c 0
 290 574 294 568 294 554 c 0
 292 473 203 340 135 264 c 1
EndSplineSet
EndChar

StartChar: less
Encoding: 60 60 270
Width: 404
VWidth: 0
Flags: HW
LayerCount: 2
Fore
SplineSet
320 43 m 0
 339 43 355 53 355 70 c 0
 355 98 331 120 311 127 c 2
 87 209 l 1
 361 298 l 2
 376 302 388 310 388 329 c 0
 388 356 373 384 348 384 c 0
 344 384 339 383 335 382 c 0
 269 361 197 328 135 301 c 0
 94 283 20 272 20 214 c 0
 20 132 103 116 168 94 c 0
 215 78 263 43 320 43 c 0
EndSplineSet
EndChar

StartChar: lessequal
Encoding: 408 8804 271
Width: 568
VWidth: 0
Flags: HW
LayerCount: 2
Fore
SplineSet
187 -11 m 2
 379 -11 l 2
 430 -11 468 0 468 44 c 0
 468 61 457 65 440 65 c 0
 358 65 276 65 194 65 c 0
 189 65 184 65 179 65 c 0
 149 65 129 59 129 32 c 0
 129 0 149 -11 187 -11 c 2
EndSplineSet
Refer: 270 60 N 1 0 0 1 116 44 2
EndChar

StartChar: logicalnot
Encoding: 172 172 272
Width: 416
VWidth: 0
Flags: HW
LayerCount: 2
Fore
SplineSet
312 75 m 0
 335 75 345 98 347 121 c 2
 354 236 l 2
 354 253 340 263 321 263 c 2
 105 263 l 2
 81 263 58 251 58 228 c 0
 58 207 78 197 100 197 c 2
 286 197 l 1
 281 118 281 117 281 115 c 0
 281 93 291 75 312 75 c 0
EndSplineSet
EndChar

StartChar: lozenge
Encoding: 409 9674 273
Width: 489
VWidth: 0
Flags: HW
LayerCount: 2
Fore
SplineSet
377 475 m 2
 370 494 352 508 334 508 c 0
 320 508 306 500 294 482 c 0
 237 396 190 329 140 253 c 1
 229 29 l 2
 237 10 254 -4 272 -4 c 0
 286 -4 300 4 312 22 c 0
 369 109 414 172 464 248 c 1
 377 475 l 2
212 253 m 1
 251 313 292 375 323 422 c 1
 387 248 l 1
 347 188 314 125 284 78 c 1
 212 253 l 1
EndSplineSet
EndChar

StartChar: lslash
Encoding: 249 322 274
Width: 249
VWidth: 0
Flags: HW
LayerCount: 2
Fore
SplineSet
188 126 m 2
 200 131 205 140 205 147 c 0
 205 161 192 173 178 173 c 0
 175 173 171 173 167 171 c 2
 26 108 l 2
 11 102 5 91 5 81 c 0
 5 69 15 58 28 58 c 0
 31 58 37 58 41 60 c 2
 188 126 l 2
EndSplineSet
Refer: 265 108 N 1 0 0 1 0 0 2
EndChar

StartChar: m
Encoding: 109 109 275
Width: 527
VWidth: 0
Flags: HW
PickledData: "(dp1
S'com.typemytype.robofont.layerData'
p2
(dp3
s."
AnchorPoint: "top" 324 339 basechar 0
LayerCount: 2
Fore
SplineSet
209 52 m 0
 209 24 215 0 248 -0 c 0
 261 0 273 8 285 33 c 0
 321 113 375 220 410 249 c 1
 391 189 369 114 365 76 c 0
 365 73 365 70 365 67 c 0
 365 29 388 -2 433 -2 c 0
 434 -2 434 -2 435 -2 c 0
 477 -2 549 35 594 96 c 0
 595 98 596 99 596 101 c 0
 596 112 579 128 565 128 c 0
 561 128 558 127 555 124 c 0
 520 90 488 60 463 54 c 0
 460 53 456 53 453 53 c 0
 437 53 429 63 429 79 c 0
 429 151 478 223 478 284 c 0
 478 312 465 329 433 329 c 0
 391 329 333 287 272 126 c 1
 291 201 304 270 304 298 c 0
 304 318 284 328 268 328 c 0
 232 328 168 274 104 114 c 1
 113 191 133 273 141 299 c 0
 142 302 142 305 142 307 c 0
 142 322 129 330 116 330 c 0
 97 330 84 315 78 296 c 0
 57 233 39 143 39 63 c 0
 39 28 48 0 78 0 c 0
 94 0 109 0 137 58 c 0
 169 123 202 181 246 244 c 1
 228 175 209 91 209 52 c 0
EndSplineSet
EndChar

StartChar: macron
Encoding: 410 175 276
Width: 205
VWidth: 0
Flags: HW
AnchorPoint: "top" 76 339 mark 0
AnchorPoint: "mid" 64 458 mark 0
LayerCount: 2
Fore
SplineSet
179 422 m 0
 200 422 209 430 209 448 c 0
 209 464 196 470 182 474 c 0
 121 483 74 486 39 486 c 0
 9 486 -12 484 -27 479 c 0
 -59 470 -65 454 -65 440 c 0
 -65 423 -57 409 -40 409 c 0
 -38 409 -36 409 -33 410 c 0
 0 417 26 425 90 425 c 0
 113 425 144 422 179 422 c 0
EndSplineSet
EndChar

StartChar: minus
Encoding: 412 8722 278
Width: 416
VWidth: 0
Flags: HW
LayerCount: 2
Fore
SplineSet
107 197 m 2
 313 197 l 2
 338 197 350 211 350 236 c 0
 350 253 336 263 317 263 c 2
 113 263 l 2
 89 263 65 251 65 228 c 0
 65 207 85 197 107 197 c 2
EndSplineSet
EndChar

StartChar: mu
Encoding: 181 181 279
Width: 347
VWidth: 0
Flags: HW
LayerCount: 2
Fore
SplineSet
124 61 m 0
 101 61 90 80 90 110 c 0
 90 112 90 114 90 117 c 0
 96 204 142 286 142 305 c 0
 142 319 127 330 108 330 c 0
 92 330 81 326 73 313 c 0
 65 300 45 254 31 194 c 2
 -40 -85 l 2
 -41 -89 -41 -93 -41 -96 c 0
 -41 -116 -27 -129 -11 -129 c 0
 5 -129 22 -116 31 -82 c 2
 55 10 l 1
 68 1 85 -5 106 -5 c 0
 168 -5 209 55 220 86 c 1
 217 55 l 1
 218 15 236 -4 277 -4 c 0
 327 -4 413 52 437 97 c 1
 439 111 417 131 400 131 c 0
 393 131 392 128 383 121 c 0
 373 110 330 65 300 63 c 0
 292 63 286 68 286 86 c 0
 286 89 287 94 287 98 c 0
 296 182 323 270 332 297 c 0
 332 298 333 300 333 301 c 0
 333 316 315 330 299 330 c 0
 276 330 265 326 251 279 c 2
 224 179 l 2
 202 101 157 61 124 61 c 0
EndSplineSet
EndChar

StartChar: multiply
Encoding: 215 215 280
Width: 438
VWidth: 0
Flags: HW
LayerCount: 2
Fore
SplineSet
321 58 m 0
 338 58 350 69 350 86 c 0
 350 101 342 112 333 121 c 2
 283 175 l 1
 335 230 l 2
 342 238 348 247 348 260 c 0
 348 278 336 294 318 294 c 0
 308 294 300 288 293 282 c 2
 236 218 l 1
 177 281 l 2
 169 290 161 293 152 293 c 0
 134 293 123 277 123 259 c 0
 123 246 128 237 135 230 c 2
 190 175 l 1
 137 122 l 2
 128 113 120 102 120 87 c 0
 120 70 132 58 149 58 c 0
 164 58 174 66 183 75 c 2
 236 132 l 1
 288 74 l 2
 296 64 307 58 321 58 c 0
EndSplineSet
EndChar

StartChar: n
Encoding: 110 110 281
Width: 366
VWidth: 0
Flags: HW
PickledData: "(dp1
S'com.typemytype.robofont.layerData'
p2
(dp3
s."
AnchorPoint: "caron.alt" 138 425 basechar 0
AnchorPoint: "top" 236 339 basechar 0
LayerCount: 2
Fore
SplineSet
350 292 m 0
 350 310 327 331 300 331 c 0
 250 331 180 269 109 146 c 1
 119 206 134 260 146 294 c 0
 147 297 147 299 147 302 c 0
 147 317 136 330 119 330 c 0
 94 330 82 314 75 294 c 0
 51 230 32 144 31 75 c 0
 31 39 34 0 68 -1 c 0
 95 -1 102 11 114 41 c 0
 133 88 231 219 254 228 c 1
 255 228 l 2
 257 228 257 227 257 224 c 0
 257 205 217 119 217 62 c 0
 217 10 246 -1 275 -1 c 0
 309 -1 387 23 435 84 c 0
 436 86 437 88 437 91 c 0
 437 105 424 130 410 130 c 0
 407 130 404 129 401 126 c 0
 363 90 324 70 309 67 c 0
 307 67 305 66 304 66 c 0
 298 66 295 71 295 80 c 0
 295 83 295 87 296 91 c 0
 303 143 350 251 350 292 c 0
EndSplineSet
EndChar

StartChar: nine
Encoding: 57 57 286
Width: 417
VWidth: 0
Flags: HW
LayerCount: 2
Fore
SplineSet
390 204 m 0
 390 319 322 379 225 379 c 0
 127 379 63 306 63 208 c 0
 63 114 135 56 208 56 c 0
 241 56 274 68 299 95 c 1
 262 12 189 -40 106 -78 c 0
 91 -85 83 -99 83 -115 c 0
 83 -133 94 -143 116 -143 c 0
 127 -143 136 -139 146 -134 c 0
 267 -76 390 27 390 204 c 0
223 309 m 0
 282 309 313 264 313 218 c 0
 313 160 279 124 214 124 c 0
 166 124 141 169 141 214 c 0
 141 261 168 309 223 309 c 0
EndSplineSet
EndChar

StartChar: numbersign
Encoding: 35 35 289
Width: 426
VWidth: 0
Flags: HW
LayerCount: 2
Fore
SplineSet
88 -12 m 1
 112 -12 124 0 132 18 c 0
 155 63 176 107 197 152 c 1
 234 152 271 152 308 153 c 1
 267 38 266 37 266 21 c 0
 266 -3 280 -11 303 -11 c 0
 326 -11 337 1 344 19 c 0
 363 63 380 108 397 153 c 1
 398 153 l 2
 444 153 482 164 482 208 c 0
 482 224 470 229 454 230 c 2
 424 230 l 1
 436 263 447 295 458 328 c 1
 518 328 554 338 554 384 c 0
 554 400 542 405 526 405 c 2
 483 405 l 1
 494 453 524 501 524 530 c 0
 524 545 520 559 502 559 c 0
 427 559 417 462 397 405 c 1
 367 405 336 405 306 405 c 1
 321 441 357 517 357 528 c 0
 357 545 354 558 337 558 c 0
 303 558 277 534 267 509 c 2
 220 405 l 1
 163 405 119 404 119 365 c 0
 119 336 138 328 187 328 c 1
 142 229 l 1
 91 229 57 226 57 190 c 0
 57 165 88 154 113 154 c 1
 113 154 72 80 59 32 c 0
 57 25 56 19 56 14 c 0
 56 -7 80 -5 88 -12 c 1
231 229 m 1
 246 262 259 295 273 328 c 1
 370 328 l 1
 347 262 341 245 335 229 c 1
 317 229 300 229 231 229 c 1
EndSplineSet
EndChar

StartChar: o
Encoding: 111 111 290
Width: 315
VWidth: 0
Flags: HW
PickledData: "(dp1
S'com.typemytype.robofont.layerData'
p2
(dp3
s."
AnchorPoint: "top" 196 339 basechar 0
AnchorPoint: "ogonek" 138 14 basechar 0
LayerCount: 2
Fore
SplineSet
128 -5 m 0
 229 -5 265 75 278 128 c 1
 367 152 415 202 444 238 c 0
 447 241 448 246 448 250 c 0
 448 264 437 280 426 280 c 0
 423 280 420 279 417 276 c 0
 388 243 344 202 288 192 c 1
 290 203 292 214 292 224 c 0
 292 286 249 330 193 330 c 0
 96 330 14 229 14 121 c 0
 14 50 60 -5 128 -5 c 0
143 59 m 0
 104 59 92 88 92 125 c 0
 92 184 130 262 184 262 c 0
 206 262 206 237 206 237 c 1
 188 220 180 204 180 190 c 0
 180 173 192 157 217 146 c 1
 213 110 180 59 143 59 c 0
EndSplineSet
Substitution2: "Single Substitution lookup 9 subtable" ordmasculine
EndChar

StartChar: oe
Encoding: 419 339 295
Width: 466
VWidth: 0
Flags: HW
LayerCount: 2
Fore
SplineSet
221 52 m 1
 246 12 293 -6 340 -6 c 0
 423 -6 502 46 533 88 c 0
 538 95 540 101 540 107 c 0
 540 122 527 132 515 132 c 0
 511 132 506 131 503 128 c 0
 457 84 398 60 352 60 c 0
 317 60 290 73 280 103 c 1
 398 128 461 169 461 245 c 0
 461 298 419 330 367 330 c 0
 318 330 276 302 247 263 c 1
 231 301 203 328 159 328 c 0
 93 328 14 258 14 132 c 0
 14 50 55 0 129 0 c 0
 169 0 201 24 221 52 c 1
90 129 m 0
 90 204 116 265 161 265 c 0
 194 265 201 221 201 188 c 0
 201 124 182 61 138 61 c 0
 105 61 90 95 90 129 c 0
275 147 m 1
 275 204 322 265 371 265 c 0
 387 265 400 258 400 237 c 0
 400 195 317 161 275 147 c 1
EndSplineSet
EndChar

StartChar: ogonek
Encoding: 420 731 296
Width: 183
VWidth: 0
Flags: HW
PickledData: "(dp1
S'com.typemytype.robofont.layerData'
p2
(dp3
s."
AnchorPoint: "ogonek" 123 0 mark 0
LayerCount: 2
Fore
SplineSet
44 -95 m 0
 44 -134 64 -153 104 -153 c 0
 128 -153 164 -146 189 -124 c 0
 195 -119 196 -107 196 -98 c 0
 196 -89 191 -73 185 -73 c 0
 184 -73 183 -74 182 -75 c 0
 158 -92 139 -98 126 -98 c 0
 110 -97 104 -88 104 -75 c 0
 104 -41 136 -5 148 8 c 1
 121 8 l 1
 79 -16 44 -52 44 -95 c 0
EndSplineSet
EndChar

StartChar: one
Encoding: 49 49 300
Width: 333
VWidth: 0
Flags: HW
LayerCount: 2
Fore
SplineSet
211 11 m 0
 245 170 291 417 297 448 c 0
 298 455 299 461 299 467 c 0
 299 482 295 492 283 492 c 0
 282 492 280 492 278 492 c 0
 243 485 157 467 129 458 c 0
 118 455 113 439 113 423 c 0
 113 405 120 388 131 388 c 0
 132 388 133 388 134 388 c 0
 147 391 196 405 212 411 c 1
 188 298 168 204 131 22 c 0
 131 20 130 18 130 16 c 0
 130 -3 150 -11 170 -11 c 0
 189 -11 208 -3 211 11 c 0
EndSplineSet
Substitution2: "'sups' Superscript lookup 5 subtable" uni00B9
EndChar

StartChar: onehalf
Encoding: 189 189 301
Width: 998
VWidth: 0
Flags: HW
LayerCount: 2
Fore
SplineSet
720 370 m 0
 720 409 768 434 807 434 c 0
 861 434 888 389 888 316 c 0
 888 253 867 183 818 135 c 1
 786 157 749 178 703 178 c 0
 653 178 621 144 621 94 c 0
 621 39 668 0 723 0 c 0
 764 0 797 22 824 45 c 1
 847 26 876 0 915 0 c 0
 959 0 974 41 974 76 c 0
 974 88 971 97 962 97 c 0
 950 97 944 78 928 78 c 0
 904 78 887 84 870 94 c 1
 924 153 968 237 968 321 c 0
 968 456 881 499 809 499 c 0
 717 499 646 451 646 359 c 0
 646 315 662 286 701 286 c 0
 724 286 731 293 731 307 c 0
 731 321 720 346 720 370 c 0
714 62 m 0
 692 62 680 78 680 92 c 0
 680 104 688 114 704 114 c 0
 727 114 759 104 776 93 c 1
 756 73 730 62 714 62 c 0
375 -16 m 2
 628 571 l 2
 630 576 631 581 631 586 c 0
 631 605 616 621 598 621 c 0
 585 621 572 613 563 593 c 2
 310 20 l 2
 307 13 306 7 306 1 c 0
 306 -22 326 -36 345 -36 c 0
 357 -36 369 -30 375 -16 c 2
211 216 m 0
 245 375 291 622 297 653 c 0
 298 660 299 666 299 672 c 0
 299 687 295 697 283 697 c 0
 282 697 280 697 278 697 c 0
 243 690 157 672 129 664 c 0
 118 660 113 644 113 628 c 0
 113 610 120 593 131 593 c 0
 132 593 133 593 134 593 c 0
 147 596 196 610 212 616 c 1
 188 503 168 409 131 228 c 0
 131 226 130 224 130 222 c 0
 130 203 150 195 170 195 c 0
 189 195 208 202 211 216 c 0
EndSplineSet
Ligature2: "'frac' Diagonal Fractions lookup 6 subtable" one slash two
EndChar

StartChar: onequarter
Encoding: 188 188 302
Width: 998
VWidth: 0
Flags: HW
LayerCount: 2
Fore
SplineSet
824 -20 m 0
 844 -20 856 -16 865 21 c 2
 877 69 l 1
 939 70 l 2
 960 71 972 92 972 110 c 0
 972 123 966 135 953 135 c 2
 952 135 l 1
 891 135 l 1
 898 167 923 268 930 297 c 0
 930 299 931 300 931 302 c 0
 931 316 916 321 900 321 c 0
 876 321 864 309 857 288 c 0
 851 263 822 157 818 136 c 1
 728 136 l 1
 760 239 803 368 827 449 c 0
 828 451 828 454 828 456 c 0
 828 472 810 482 792 482 c 0
 777 482 762 475 756 459 c 0
 729 382 671 207 647 130 c 0
 643 116 641 105 641 96 c 0
 641 74 653 68 673 68 c 2
 802 68 l 1
 792 22 l 2
 791 17 790 12 790 8 c 0
 790 -9 799 -20 824 -20 c 0
402 -16 m 2
 656 571 l 2
 658 576 659 581 659 586 c 0
 659 605 644 621 626 621 c 0
 614 621 600 613 591 593 c 2
 337 20 l 2
 334 13 333 7 333 1 c 0
 333 -22 353 -36 372 -36 c 0
 384 -36 396 -30 402 -16 c 2
211 216 m 0
 245 375 291 622 297 653 c 0
 298 660 299 666 299 672 c 0
 299 687 295 697 283 697 c 0
 282 697 280 697 278 697 c 0
 243 690 157 672 129 664 c 0
 118 660 113 644 113 628 c 0
 113 610 120 593 131 593 c 0
 132 593 133 593 134 593 c 0
 147 596 196 610 212 616 c 1
 188 503 168 409 131 228 c 0
 131 226 130 224 130 222 c 0
 130 203 150 195 170 195 c 0
 189 195 208 202 211 216 c 0
EndSplineSet
Ligature2: "'frac' Diagonal Fractions lookup 6 subtable" one slash four
EndChar

StartChar: ordfeminine
Encoding: 423 170 304
Width: 317
VWidth: 0
Flags: HW
LayerCount: 2
Fore
SplineSet
243 273 m 0
 292 273 329 318 350 347 c 1
 336 413 l 1
 314 383 295 341 252 341 c 0
 240 341 240 356 240 371 c 0
 240 420 258 460 258 508 c 0
 258 535 247 536 222 536 c 0
 198 536 202 558 181 558 c 0
 167 558 154 555 141 549 c 0
 78 521 22 447 22 358 c 0
 22 311 50 274 96 274 c 0
 136 274 169 300 188 322 c 1
 199 297 212 273 243 273 c 0
121 331 m 0
 102 331 98 351 98 371 c 0
 98 424 135 501 189 501 c 1
 171 415 l 2
 166 386 153 331 121 331 c 0
EndSplineSet
EndChar

StartChar: ordmasculine
Encoding: 424 186 305
Width: 273
VWidth: 0
Flags: HW
LayerCount: 2
Fore
SplineSet
131 331 m 0
 99 331 88 358 88 391 c 0
 88 432 108 501 148 501 c 0
 176 501 183 466 183 437 c 0
 183 399 166 331 131 331 c 0
121 274 m 0
 204 274 247 361 247 445 c 0
 247 504 224 558 165 558 c 0
 82 558 24 487 24 403 c 0
 24 335 53 274 121 274 c 0
EndSplineSet
EndChar

StartChar: oslash
Encoding: 184 248 306
Width: 322
VWidth: 0
Flags: HW
LayerCount: 2
Fore
SplineSet
13 -49 m 0
 111 88 233 242 405 359 c 0
 411 363 413 369 413 375 c 0
 413 386 405 398 392 398 c 0
 387 398 381 396 374 391 c 0
 207 274 91 108 -5 -24 c 0
 -10 -31 -12 -37 -12 -42 c 0
 -12 -51 -6 -56 1 -56 c 0
 5 -56 10 -54 13 -49 c 0
EndSplineSet
Refer: 290 111 N 1 0 0 1 0 0 2
EndChar

StartChar: p
Encoding: 112 112 309
Width: 348
VWidth: 0
Flags: HW
PickledData: "(dp1
S'com.typemytype.robofont.layerData'
p2
(dp3
s."
AnchorPoint: "top" 236 339 basechar 0
LayerCount: 2
Fore
SplineSet
332 194 m 1
 333 204 334 215 334 225 c 0
 334 283 306 330 242 330 c 0
 102 330 68 194 36 87 c 0
 29 66 -15 -149 -19 -197 c 0
 -19 -201 -20 -205 -20 -209 c 0
 -20 -226 -9 -231 -5 -240 c 1
 15 -240 47 -221 52 -205 c 0
 62 -176 90 -8 98 21 c 1
 116 4 136 -5 157 -5 c 0
 229 -5 287 56 315 129 c 1
 374 143 451 197 482 235 c 0
 489 240 493 249 493 258 c 0
 493 272 485 285 474 285 c 0
 471 285 468 284 464 282 c 0
 431 251 372 203 332 194 c 1
248 134 m 1
 229 94 196 62 160 62 c 0
 144 62 127 68 110 82 c 1
 125 132 142 265 222 265 c 0
 238 265 250 252 257 234 c 0
 255 233 254 231 253 229 c 0
 227 208 223 198 223 176 c 0
 223 156 232 142 248 134 c 1
EndSplineSet
EndChar

StartChar: paragraph
Encoding: 182 182 310
Width: 447
VWidth: 0
Flags: HW
LayerCount: 2
Fore
SplineSet
229 -25 m 2
 328 502 l 1
 342 502 380 500 390 498 c 1
 299 -11 l 2
 298 -14 298 -17 298 -20 c 0
 298 -44 319 -55 340 -55 c 0
 360 -55 379 -45 383 -25 c 2
 464 417 l 2
 471 453 482 487 482 519 c 0
 482 596 376 596 294 596 c 0
 208 596 57 552 57 442 c 0
 57 355 140 316 207 316 c 1
 147 -16 l 2
 147 -18 146 -20 146 -22 c 0
 146 -44 169 -59 190 -59 c 0
 208 -59 225 -49 229 -25 c 2
EndSplineSet
EndChar

StartChar: parenleft
Encoding: 40 40 311
Width: 398
VWidth: 0
Flags: HW
LayerCount: 2
Fore
SplineSet
355 -129 m 0
 380 -129 431 -126 431 -96 c 0
 431 -64 392 -72 354 -65 c 0
 253 -48 215 35 215 147 c 0
 215 296 290 470 430 572 c 0
 463 596 480 617 480 634 c 0
 480 647 472 655 456 655 c 0
 449 655 440 653 430 649 c 0
 238 562 128 342 128 140 c 0
 128 -18 208 -129 355 -129 c 0
EndSplineSet
EndChar

StartChar: parenright
Encoding: 41 41 312
Width: 425
VWidth: 0
Flags: HW
LayerCount: 2
Fore
SplineSet
72 -129 m 0
 256 -129 371 44 371 263 c 0
 371 425 302 579 164 649 c 0
 154 653 146 655 138 655 c 0
 122 655 109 645 109 628 c 0
 109 612 123 593 147 572 c 0
 239 493 282 371 282 250 c 0
 282 89 218 -44 88 -65 c 0
 49 -72 3 -64 3 -102 c 0
 3 -127 49 -129 72 -129 c 0
EndSplineSet
EndChar

StartChar: partialdiff
Encoding: 426 8706 313
Width: 372
VWidth: 0
Flags: HW
LayerCount: 2
Fore
SplineSet
174 0 m 0
 310 0 385 156 385 328 c 0
 385 445 323 591 168 591 c 0
 140 591 118 580 118 553 c 0
 118 536 128 515 146 515 c 0
 244 515 298 451 298 329 c 1
 275 335 251 339 221 339 c 0
 134 339 22 258 22 142 c 0
 22 52 86 0 174 0 c 0
185 65 m 0
 132 65 99 91 99 142 c 0
 99 208 161 262 226 262 c 0
 253 262 272 257 290 249 c 1
 279 191 250 65 185 65 c 0
EndSplineSet
EndChar

StartChar: percent
Encoding: 37 37 315
Width: 772
VWidth: 0
Flags: HW
LayerCount: 2
Fore
SplineSet
155 229 m 0
 172 229 188 232 204 239 c 0
 274 268 325 350 325 448 c 0
 325 531 286 591 203 591 c 0
 92 591 32 494 32 383 c 0
 32 300 73 229 155 229 c 0
162 295 m 0
 126 295 120 353 120 390 c 0
 120 448 139 525 194 525 c 0
 231 525 241 487 241 449 c 0
 241 394 216 295 162 295 c 0
286 35 m 2
 565 532 l 2
 573 546 576 559 576 569 c 0
 576 587 567 597 554 597 c 0
 543 597 530 589 519 571 c 2
 224 68 l 2
 216 54 213 42 213 32 c 0
 213 13 224 0 240 0 c 0
 254 0 272 11 286 35 c 2
590 60 m 0
 557 60 550 107 550 142 c 0
 550 202 565 290 623 290 c 0
 658 290 663 234 663 197 c 0
 663 146 640 60 590 60 c 0
584 -5 m 0
 678 -5 747 89 747 203 c 0
 747 286 714 355 632 355 c 0
 518 355 462 251 462 137 c 0
 462 57 503 -5 584 -5 c 0
EndSplineSet
EndChar

StartChar: period
Encoding: 46 46 316
Width: 202
VWidth: 0
Flags: HW
LayerCount: 2
Fore
SplineSet
101 0 m 0
 142 0 166 27 166 67 c 0
 166 104 145 123 107 123 c 0
 66 123 43 97 43 57 c 0
 43 20 63 0 101 0 c 0
EndSplineSet
EndChar

StartChar: periodcentered
Encoding: 183 183 317
Width: 240
VWidth: 0
Flags: HW
LayerCount: 2
Fore
SplineSet
210 0 m 0
 250 0 274 26 274 65 c 0
 274 102 253 121 216 121 c 0
 176 121 154 94 154 55 c 0
 154 19 174 0 210 0 c 0
EndSplineSet
EndChar

StartChar: perthousand
Encoding: 428 8240 318
Width: 1096
VWidth: 0
Flags: HW
LayerCount: 2
Fore
SplineSet
47 395 m 0
 47 309 91 246 182 246 c 0
 274 246 342 315 342 448 c 0
 342 530 296 603 212 603 c 0
 106 603 47 504 47 395 c 0
285 -4 m 0
 361 146 512 448 561 549 c 0
 563 553 563 557 563 561 c 0
 563 580 547 597 529 597 c 0
 519 597 509 591 501 576 c 0
 451 477 300 172 228 31 c 0
 221 18 219 7 219 -2 c 0
 219 -21 231 -31 246 -31 c 0
 260 -31 276 -23 285 -4 c 0
441 139 m 0
 441 54 491 -16 580 -16 c 0
 667 -16 733 64 733 186 c 0
 733 266 688 342 600 342 c 0
 502 342 441 246 441 139 c 0
774 136 m 0
 774 52 823 -18 908 -18 c 0
 999 -18 1066 61 1066 184 c 0
 1066 264 1021 340 935 340 c 0
 832 340 774 243 774 136 c 0
181 307 m 0
 141 307 121 353 121 404 c 0
 121 467 151 538 211 538 c 0
 252 538 273 489 273 436 c 0
 273 374 244 307 181 307 c 0
578 45 m 0
 532 45 513 93 513 144 c 0
 513 208 544 278 602 278 c 0
 645 278 663 233 663 181 c 0
 663 117 633 45 578 45 c 0
910 43 m 0
 865 43 846 90 846 142 c 0
 846 206 876 277 935 277 c 0
 977 277 996 231 996 178 c 0
 996 114 966 43 910 43 c 0
EndSplineSet
EndChar

StartChar: pi
Encoding: 429 960 319
Width: 594
VWidth: 0
Flags: HW
LayerCount: 2
Fore
SplineSet
308 399 m 0
 198 399 119 364 119 248 c 0
 119 230 137 219 152 219 c 0
 163 219 172 225 175 236 c 0
 196 314 209 328 271 331 c 1
 215 187 172 64 172 28 c 0
 172 6 181 -14 208 -14 c 0
 229 -14 257 29 257 36 c 0
 257 37 257 37 256 37 c 0
 255 37 253 36 250 33 c 1
 266 116 304 211 333 330 c 1
 369 328 391 323 435 319 c 1
 412 196 402 116 402 65 c 0
 402 -2 418 -19 441 -19 c 0
 450 -19 461 -16 471 -13 c 0
 488 -8 493 -1 493 14 c 0
 493 35 484 72 484 143 c 0
 484 186 487 242 499 315 c 1
 516 314 533 314 551 314 c 0
 615 314 629 351 632 351 c 0
 633 351 633 349 633 346 c 1
 634 366 620 383 602 383 c 0
 601 383 600 383 599 383 c 0
 463 383 414 399 308 399 c 0
EndSplineSet
EndChar

StartChar: plus
Encoding: 43 43 320
Width: 514
VWidth: 0
Flags: HW
LayerCount: 2
Fore
SplineSet
263 21 m 0
 285 21 296 42 296 66 c 2
 296 142 l 1
 375 142 l 2
 397 142 415 157 415 180 c 0
 415 197 401 208 381 208 c 2
 296 208 l 1
 296 292 l 2
 296 312 285 326 267 326 c 0
 245 326 230 308 230 286 c 2
 230 208 l 1
 155 208 l 2
 131 208 109 197 109 175 c 0
 109 152 130 142 153 142 c 2
 230 142 l 1
 230 64 l 2
 230 41 240 21 263 21 c 0
EndSplineSet
EndChar

StartChar: plusminus
Encoding: 177 177 321
Width: 514
VWidth: 0
Flags: HW
LayerCount: 2
Fore
SplineSet
263 87 m 0
 285 87 296 109 296 133 c 2
 296 209 l 1
 375 209 l 2
 397 209 415 224 415 247 c 0
 415 264 401 275 381 275 c 2
 296 275 l 1
 296 359 l 2
 296 379 285 394 267 394 c 0
 245 394 230 375 230 353 c 2
 230 275 l 1
 155 275 l 2
 131 275 109 264 109 242 c 0
 109 219 130 209 153 209 c 2
 230 209 l 1
 230 132 l 2
 230 108 240 87 263 87 c 0
168 -38 m 0
 169 -38 170 -38 344 -34 c 0
 367 -33 380 -16 380 2 c 0
 380 16 369 28 345 28 c 2
 171 28 l 2
 148 28 139 11 139 -5 c 0
 139 -22 149 -38 168 -38 c 0
EndSplineSet
EndChar

StartChar: product
Encoding: 430 8719 322
Width: 776
VWidth: 0
Flags: HW
LayerCount: 2
Fore
SplineSet
594 -88 m 0
 621 -88 643 -61 643 -18 c 0
 643 -2 642 20 642 50 c 0
 642 138 651 293 724 544 c 1
 760 544 835 545 858 547 c 0
 872 549 885 573 885 594 c 0
 885 611 877 627 854 627 c 0
 644 627 500 633 380 633 c 0
 292 633 217 630 138 619 c 0
 119 617 110 598 110 580 c 0
 110 560 120 541 138 541 c 0
 140 541 141 541 143 541 c 0
 186 547 208 552 285 552 c 0
 292 552 300 552 308 552 c 1
 183 254 156 53 156 -17 c 0
 156 -60 180 -88 208 -88 c 0
 230 -88 250 -71 256 -36 c 0
 263 5 261 166 377 552 c 1
 452 550 591 547 654 546 c 1
 560 255 541 74 541 -3 c 0
 541 -22 543 -35 544 -41 c 0
 552 -72 573 -88 594 -88 c 0
EndSplineSet
EndChar

StartChar: q
Encoding: 113 113 323
Width: 372
VWidth: 0
Flags: HW
LayerCount: 2
Fore
SplineSet
295 71 m 1
 348 84 437 177 464 231 c 0
 466 235 467 239 467 243 c 0
 467 258 454 271 440 271 c 0
 434 271 427 268 422 261 c 0
 395 222 354 176 320 151 c 1
 333 195 345 243 345 272 c 0
 345 299 282 334 215 334 c 0
 97 330 39 232 39 141 c 0
 39 62 82 -11 168 -11 c 0
 177 -11 188 -10 198 -8 c 1
 180 -77 150 -168 126 -241 c 0
 125 -243 125 -244 125 -246 c 0
 125 -262 151 -279 173 -279 c 0
 186 -279 198 -272 203 -256 c 2
 295 71 l 1
210 51 m 1
 202 50 196 49 189 49 c 0
 137 49 114 91 114 139 c 0
 114 203 155 278 221 278 c 0
 241 278 269 271 269 266 c 0
 269 249 255 196 239 142 c 1
 217 136 206 114 206 94 c 0
 206 83 209 74 215 66 c 1
 213 61 212 56 210 51 c 1
EndSplineSet
EndChar

StartChar: question
Encoding: 63 63 324
Width: 384
VWidth: 0
Flags: HW
LayerCount: 2
Fore
SplineSet
263 563 m 0
 305 563 339 539 339 491 c 0
 339 379 199 365 195 239 c 0
 195 228 204 221 214 221 c 0
 224 222 234 229 236 244 c 0
 248 317 423 351 423 499 c 0
 423 584 346 639 266 639 c 0
 199 639 133 602 105 516 c 0
 104 514 104 511 104 509 c 0
 104 492 124 477 139 477 c 0
 145 477 150 480 153 485 c 0
 179 539 223 563 263 563 c 0
201 0 m 0
 242 0 265 26 265 65 c 0
 265 102 245 121 208 121 c 0
 167 121 145 94 145 55 c 0
 145 19 165 0 201 0 c 0
EndSplineSet
EndChar

StartChar: questiondown
Encoding: 431 191 325
Width: 441
VWidth: 0
Flags: HW
LayerCount: 2
Fore
SplineSet
264 0 m 0
 312 0 392 30 392 79 c 0
 392 100 378 119 358 119 c 0
 348 119 340 113 335 106 c 0
 321 88 295 65 264 65 c 0
 231 65 217 93 217 122 c 0
 217 134 220 146 224 157 c 0
 254 236 354 249 354 359 c 0
 354 375 339 381 324 381 c 0
 305 381 295 365 289 348 c 0
 283 334 273 323 263 313 c 0
 207 258 135 229 135 116 c 0
 135 43 192 0 264 0 c 0
334 427 m 0
 375 427 397 453 397 492 c 0
 397 529 377 547 341 547 c 0
 300 547 276 521 276 482 c 0
 276 446 297 427 334 427 c 0
EndSplineSet
EndChar

StartChar: quotedbl
Encoding: 34 34 326
Width: 404
VWidth: 0
Flags: HW
LayerCount: 2
Fore
SplineSet
227 388 m 0
 243 388 255 403 258 420 c 0
 268 469 274 527 281 597 c 0
 281 599 281 600 281 602 c 0
 281 624 265 634 248 634 c 0
 223 634 197 619 197 591 c 0
 197 533 200 480 200 421 c 0
 200 402 209 388 227 388 c 0
106 388 m 0
 120 388 131 403 134 420 c 0
 140 469 146 539 146 597 c 0
 146 622 130 634 109 634 c 0
 88 634 65 619 65 591 c 0
 65 533 73 473 79 421 c 0
 81 402 88 388 106 388 c 0
EndSplineSet
EndChar

StartChar: quotedblbase
Encoding: 165 8222 327
Width: 350
VWidth: 0
Flags: HW
LayerCount: 2
Fore
SplineSet
126 -65 m 0
 161 -65 176 -26 191 -3 c 0
 198 9 199 9 207 21 c 0
 216 35 229 49 229 70 c 0
 229 97 203 110 176 110 c 0
 152 110 134 100 129 81 c 0
 119 44 98 3 98 -37 c 0
 98 -54 110 -65 126 -65 c 0
259 -65 m 0
 294 -65 310 -26 325 -3 c 2
 340 21 l 2
 349 35 363 49 363 70 c 0
 363 97 336 110 310 110 c 0
 286 110 268 100 263 81 c 0
 252 44 232 3 232 -37 c 0
 232 -54 243 -65 259 -65 c 0
EndSplineSet
EndChar

StartChar: quotedblleft
Encoding: 180 8220 328
Width: 404
VWidth: 0
Flags: HW
LayerCount: 2
Fore
SplineSet
295 651 m 0
 275 651 263 636 257 619 c 0
 241 575 207 478 207 425 c 0
 207 400 226 388 250 388 c 0
 279 388 305 404 305 432 c 0
 305 483 319 565 319 618 c 0
 319 637 309 651 295 651 c 0
139 651 m 0
 120 651 106 636 101 619 c 0
 84 575 51 478 51 425 c 0
 51 400 70 388 95 388 c 0
 123 388 148 404 148 432 c 0
 148 483 163 565 163 618 c 0
 163 637 153 651 139 651 c 0
EndSplineSet
EndChar

StartChar: quotedblright
Encoding: 161 8221 329
Width: 404
VWidth: 0
Flags: HW
LayerCount: 2
Fore
SplineSet
79 388 m 0
 98 388 111 404 117 420 c 0
 133 465 167 562 167 614 c 0
 167 639 148 651 123 651 c 0
 95 651 69 636 69 608 c 0
 69 556 55 474 55 421 c 0
 55 402 64 388 79 388 c 0
234 388 m 0
 254 388 267 404 272 420 c 0
 289 465 322 562 322 614 c 0
 322 639 303 651 278 651 c 0
 250 651 225 636 225 608 c 0
 225 556 210 474 210 421 c 0
 210 402 220 388 234 388 c 0
EndSplineSet
EndChar

StartChar: quoteleft
Encoding: 432 8216 330
Width: 240
VWidth: 0
Flags: HW
LayerCount: 2
Fore
SplineSet
99 405 m 0
 121 405 139 420 142 448 c 0
 160 602 160 604 160 605 c 0
 160 622 151 634 140 634 c 0
 122 634 109 618 104 602 c 0
 88 557 58 495 58 442 c 0
 58 417 76 405 99 405 c 0
EndSplineSet
EndChar

StartChar: quoteright
Encoding: 255 8217 331
Width: 219
VWidth: 0
Flags: HW
LayerCount: 2
Fore
SplineSet
92 405 m 0
 106 405 116 417 120 431 c 2
 170 587 l 2
 172 591 172 596 172 600 c 0
 172 622 151 634 133 634 c 0
 110 634 88 619 86 591 c 2
 75 438 l 2
 75 417 83 405 92 405 c 0
EndSplineSet
EndChar

StartChar: quotesinglbase
Encoding: 433 8218 332
Width: 208
VWidth: 0
Flags: HW
LayerCount: 2
Fore
SplineSet
126 -65 m 0
 161 -65 176 -26 191 -3 c 0
 198 9 199 9 207 21 c 0
 216 35 229 49 229 70 c 0
 229 97 203 110 176 110 c 0
 152 110 134 100 129 81 c 0
 119 44 98 3 98 -37 c 0
 98 -54 110 -65 126 -65 c 0
EndSplineSet
EndChar

StartChar: quotesingle
Encoding: 39 39 333
Width: 179
VWidth: 0
Flags: HW
LayerCount: 2
Fore
SplineSet
60 379 m 0
 83 379 85 386 104 417 c 0
 118 437 197 539 197 598 c 0
 197 620 185 636 148 636 c 0
 104 636 66 466 44 420 c 0
 43 417 42 413 42 410 c 0
 42 394 55 379 60 379 c 0
EndSplineSet
EndChar

StartChar: r
Encoding: 114 114 334
Width: 317
VWidth: 0
Flags: HW
PickledData: "(dp1
S'com.typemytype.robofont.layerData'
p2
(dp3
s."
AnchorPoint: "top" 216 339 basechar 0
LayerCount: 2
Fore
SplineSet
75 0 m 0
 102 0 110 10 118 26 c 0
 171 171 225 251 226 251 c 2
 226 251 210 188 210 186 c 0
 210 152 229 128 278 128 c 0
 327 128 367 157 395 182 c 0
 398 185 399 188 399 192 c 0
 399 206 383 225 371 225 c 0
 369 225 368 225 366 224 c 0
 332 204 307 195 292 195 c 0
 280 195 274 200 274 210 c 0
 274 214 275 219 277 224 c 0
 288 254 295 278 295 295 c 0
 295 317 283 329 251 329 c 0
 206 329 124 191 103 126 c 1
 113 179 133 261 141 294 c 0
 142 297 142 299 142 302 c 0
 142 317 130 330 113 330 c 0
 89 330 76 317 65 285 c 0
 47 225 34 143 34 74 c 0
 34 71 34 69 34 66 c 0
 34 32 41 0 75 0 c 0
EndSplineSet
EndChar

StartChar: radical
Encoding: 435 8730 336
Width: 863
VWidth: 0
Flags: HW
LayerCount: 2
Fore
SplineSet
131 262 m 0
 131 243 142 226 159 226 c 0
 162 226 166 226 170 228 c 0
 198 242 221 252 252 262 c 1
 241 219 237 180 237 147 c 0
 237 48 279 -3 336 -3 c 0
 339 -3 343 -3 346 -3 c 0
 406 3 446 60 495 170 c 2
 668 558 l 2
 670 563 671 568 671 573 c 0
 671 593 655 608 637 608 c 0
 623 608 607 599 597 576 c 2
 429 181 l 2
 382 71 360 58 345 58 c 0
 336 58 312 76 312 144 c 0
 312 179 318 227 336 293 c 0
 337 295 337 297 337 299 c 0
 337 316 318 329 299 329 c 0
 296 329 293 329 290 328 c 0
 246 324 190 309 161 298 c 0
 137 289 131 274 131 262 c 0
EndSplineSet
EndChar

StartChar: registered
Encoding: 174 174 339
Width: 623
VWidth: 0
Flags: HW
LayerCount: 2
Fore
SplineSet
332 136 m 0
 334 118 350 109 365 109 c 0
 380 109 394 119 394 137 c 0
 394 139 394 140 394 142 c 2
 376 275 l 1
 422 289 450 319 450 361 c 0
 450 412 407 431 355 431 c 0
 334 431 290 427 270 427 c 1
 234 313 l 1
 229 313 222 315 216 315 c 0
 209 315 206 307 206 301 c 0
 206 290 215 285 225 279 c 1
 193 162 l 2
 192 159 192 156 192 153 c 0
 192 136 207 123 222 123 c 0
 234 123 246 131 251 151 c 2
 281 267 l 1
 315 267 l 1
 318 257 326 177 332 136 c 0
356 477 m 0
 467 477 530 423 530 318 c 0
 530 183 449 69 312 69 c 0
 194 69 107 128 107 248 c 0
 107 371 185 477 356 477 c 0
597 315 m 0
 597 460 498 532 346 532 c 0
 177 532 46 423 46 248 c 0
 46 100 158 13 314 13 c 0
 447 13 597 114 597 315 c 0
294 308 m 2
 315 385 l 1
 335 385 l 2
 376 385 394 377 394 354 c 0
 394 323 342 307 306 307 c 0
 302 307 298 308 294 308 c 2
EndSplineSet
EndChar

StartChar: ring
Encoding: 437 730 340
Width: 251
VWidth: 0
Flags: HW
PickledData: "(dp1
S'com.typemytype.robofont.layerData'
p2
(dp3
s."
AnchorPoint: "top" 116 339 mark 0
AnchorPoint: "top" 177 524 basechar 0
LayerCount: 2
Fore
SplineSet
123 439 m 0
 99 439 83 454 83 473 c 0
 83 504 112 521 138 521 c 0
 160 521 179 511 179 492 c 0
 179 460 149 439 123 439 c 0
37 469 m 0
 37 425 74 392 128 392 c 0
 174 392 212 421 226 471 c 0
 228 479 229 487 229 494 c 0
 229 537 191 564 140 564 c 0
 87 564 37 532 37 469 c 0
EndSplineSet
EndChar

StartChar: s
Encoding: 115 115 341
Width: 292
VWidth: 0
Flags: HW
PickledData: "(dp1
S'com.typemytype.robofont.layerData'
p2
(dp3
s."
AnchorPoint: "top" 216 339 basechar 0
AnchorPoint: "bot" 146 18 basechar 0
LayerCount: 2
Fore
SplineSet
176 -5 m 0
 291 -5 368 38 404 95 c 0
 406 99 408 103 408 108 c 0
 408 127 391 149 376 149 c 0
 372 149 368 147 364 143 c 0
 352 128 313 78 266 63 c 1
 274 76 277 89 277 102 c 0
 277 168 190 228 190 264 c 0
 190 267 191 271 193 274 c 0
 199 285 202 295 202 304 c 0
 202 325 185 338 166 338 c 0
 149 338 131 328 120 307 c 0
 102 270 25 119 3 81 c 1
 26 35 90 -5 176 -5 c 0
151 52 m 0
 130 52 108 66 91 79 c 1
 101 99 118 132 132 161 c 2
 157 213 l 1
 189 166 205 126 205 97 c 0
 205 69 189 52 155 52 c 0
 154 52 153 52 151 52 c 0
EndSplineSet
EndChar

StartChar: section
Encoding: 167 167 348
Width: 492
VWidth: 0
Flags: HW
LayerCount: 2
Fore
SplineSet
233 -40 m 0
 310 -40 391 -7 391 68 c 0
 391 94 384 113 374 128 c 1
 398 147 420 173 420 214 c 0
 420 278 363 309 321 332 c 0
 296 346 221 370 221 405 c 0
 221 435 253 448 284 448 c 0
 323 448 365 431 365 393 c 0
 365 385 362 376 362 369 c 0
 362 353 375 341 391 341 c 0
 417 341 429 366 429 394 c 0
 429 463 364 510 294 510 c 0
 218 510 135 481 135 409 c 0
 135 380 149 361 165 346 c 1
 138 329 113 304 113 267 c 0
 113 222 145 198 174 181 c 0
 213 157 305 133 305 72 c 0
 305 38 270 21 235 21 c 0
 193 21 148 35 148 77 c 0
 148 94 155 108 155 122 c 0
 155 135 141 140 126 140 c 0
 96 140 77 108 77 76 c 0
 77 -4 152 -40 233 -40 c 0
326 176 m 1
 316 182 307 189 296 194 c 0
 270 208 189 231 189 269 c 0
 189 288 200 301 211 311 c 1
 227 302 242 293 258 286 c 0
 286 272 344 251 344 214 c 0
 344 197 335 185 326 176 c 1
EndSplineSet
EndChar

StartChar: semicolon
Encoding: 59 59 349
Width: 262
VWidth: 0
Flags: HW
LayerCount: 2
Fore
SplineSet
126 -65 m 0
 200 -65 229 -2 229 70 c 0
 229 97 203 110 176 110 c 0
 152 110 134 100 129 81 c 0
 119 44 98 3 98 -37 c 0
 98 -54 110 -65 126 -65 c 0
186 229 m 0
 227 229 250 256 250 295 c 0
 250 331 229 351 192 351 c 0
 152 351 130 324 130 285 c 0
 130 249 150 229 186 229 c 0
EndSplineSet
EndChar

StartChar: seven
Encoding: 55 55 350
Width: 417
VWidth: 0
Flags: HW
LayerCount: 2
Fore
SplineSet
224 21 m 0
 254 123 314 256 393 380 c 0
 398 390 426 410 426 435 c 0
 426 452 420 466 403 466 c 0
 395 466 363 462 349 462 c 0
 276 462 208 464 143 464 c 0
 120 464 106 440 106 418 c 0
 106 399 117 381 140 381 c 0
 172 381 202 402 255 403 c 2
 327 404 l 1
 245 280 168 120 144 34 c 0
 143 30 143 27 143 24 c 0
 143 3 163 -12 183 -12 c 0
 200 -12 217 -2 224 21 c 0
EndSplineSet
EndChar

StartChar: six
Encoding: 54 54 351
Width: 398
VWidth: 0
Flags: HW
LayerCount: 2
Fore
SplineSet
57 163 m 0
 57 49 125 -12 222 -12 c 0
 320 -12 385 62 385 160 c 0
 385 253 312 311 239 311 c 0
 206 311 173 299 148 272 c 1
 185 355 258 407 341 445 c 0
 356 452 365 466 365 482 c 0
 365 500 353 510 331 510 c 0
 319 510 311 506 301 501 c 0
 181 443 57 340 57 163 c 0
224 58 m 0
 165 58 134 103 134 149 c 0
 134 208 168 243 233 243 c 0
 281 243 306 198 306 153 c 0
 306 106 279 58 224 58 c 0
EndSplineSet
EndChar

StartChar: slash
Encoding: 47 47 352
Width: 426
VWidth: 0
Flags: HW
LayerCount: 2
Fore
SplineSet
166 22 m 0
 230 172 326 394 395 558 c 0
 397 563 398 568 398 573 c 0
 398 593 382 608 364 608 c 0
 350 608 334 599 324 576 c 0
 257 420 169 219 101 62 c 0
 96 50 94 40 94 31 c 0
 94 8 110 -4 127 -4 c 0
 142 -4 159 5 166 22 c 0
EndSplineSet
EndChar

StartChar: sterling
Encoding: 163 163 354
Width: 514
VWidth: 0
Flags: HW
LayerCount: 2
Fore
SplineSet
247 -10 m 0
 286 -10 330 -5 366 -0 c 0
 419 6 502 1 502 58 c 0
 502 82 473 93 449 93 c 0
 387 93 346 73 279 73 c 0
 276 76 297 192 305 263 c 1
 391 263 l 2
 420 263 445 269 445 297 c 0
 445 328 421 339 391 339 c 2
 309 339 l 1
 309 427 332 502 418 502 c 0
 452 502 472 497 472 463 c 0
 472 445 489 433 508 433 c 0
 532 433 544 453 544 478 c 0
 544 554 493 586 418 586 c 0
 282 586 222 479 222 339 c 1
 183 339 l 2
 155 339 139 327 139 300 c 0
 139 279 152 263 175 263 c 2
 215 263 l 1
 210 208 192 152 187 100 c 0
 182 85 176 64 176 46 c 0
 176 5 204 -10 247 -10 c 0
EndSplineSet
EndChar

StartChar: summation
Encoding: 442 8721 355
Width: 771
VWidth: 0
Flags: HW
LayerCount: 2
Fore
SplineSet
396 651 m 0
 305 651 245 642 188 620 c 0
 172 614 165 600 165 587 c 0
 165 570 178 553 198 553 c 0
 203 553 208 554 213 556 c 0
 232 556 250 568 273 572 c 1
 424 316 l 1
 240 153 121 61 121 24 c 0
 121 6 136 -5 152 -5 c 0
 168 -5 188 4 207 25 c 1
 296 -4 390 -38 497 -38 c 0
 564 -38 636 -25 717 11 c 0
 728 15 733 25 733 36 c 0
 733 54 719 75 702 75 c 0
 699 75 696 74 693 73 c 0
 633 48 575 30 502 30 c 0
 436 30 357 45 253 84 c 1
 319 149 413 213 513 304 c 1
 351 580 l 1
 369 581 389 581 411 581 c 0
 469 581 562 578 631 578 c 0
 645 578 658 578 669 578 c 0
 749 580 756 593 756 613 c 0
 756 638 740 652 721 652 c 0
 720 652 718 652 717 652 c 0
 671 648 632 647 596 647 c 0
 531 647 475 651 396 651 c 0
EndSplineSet
EndChar

StartChar: t
Encoding: 116 116 356
Width: 260
VWidth: 0
Flags: HW
PickledData: "(dp1
S'com.typemytype.robofont.layerData'
p2
(dp3
s."
AnchorPoint: "caron.alt" 359 551 basechar 0
AnchorPoint: "mid" 119 318 basechar 0
LayerCount: 2
Fore
SplineSet
340 559 m 0
 340 592 320 624 275 624 c 0
 150 624 73 382 54 231 c 1
 41 225 28 219 15 212 c 0
 7 208 4 200 4 192 c 0
 4 178 13 164 27 164 c 0
 31 164 36 165 41 168 c 0
 43 169 46 171 49 173 c 1
 49 169 49 166 49 162 c 0
 49 73 115 49 146 -3 c 1
 203 -3 254 21 309 83 c 0
 317 92 321 101 321 109 c 0
 321 126 305 138 291 138 c 0
 285 138 279 136 274 131 c 0
 239 92 199 61 163 61 c 0
 131 61 122 106 122 156 c 0
 122 173 123 190 124 206 c 1
 178 228 243 251 280 257 c 0
 292 259 297 268 297 278 c 0
 297 291 287 305 271 305 c 0
 269 305 267 305 264 304 c 0
 241 300 207 290 168 277 c 1
 245 341 331 445 340 552 c 0
 340 554 340 557 340 559 c 0
136 303 m 1
 150 392 202 541 263 541 c 0
 269 540 271 536 271 530 c 0
 271 441 193 366 136 303 c 1
EndSplineSet
EndChar

StartChar: thorn
Encoding: 448 254 362
Width: 339
VWidth: 0
Flags: HW
LayerCount: 2
Fore
SplineSet
320 206 m 0
 320 270 296 328 235 328 c 0
 196 328 164 309 141 275 c 1
 183 490 l 2
 184 495 184 499 184 503 c 0
 184 525 170 534 155 534 c 0
 139 534 121 523 117 503 c 0
 94 391 81 317 71 263 c 2
 -13 -193 l 2
 -13 -195 -14 -198 -14 -200 c 0
 -14 -220 3 -230 20 -230 c 0
 36 -230 53 -221 57 -203 c 2
 99 26 l 1
 116 14 143 0 178 0 c 0
 210 0 235 8 260 32 c 1
 314 41 373 73 417 113 c 0
 427 122 432 135 432 146 c 0
 432 160 425 173 413 173 c 0
 408 173 403 171 397 166 c 0
 367 143 315 104 288 99 c 1
 308 123 320 157 320 206 c 0
177 65 m 0
 153 65 125 71 109 84 c 1
 119 158 137 260 213 260 c 0
 245 260 257 230 257 194 c 0
 257 138 224 65 177 65 c 0
EndSplineSet
EndChar

StartChar: three
Encoding: 51 51 363
Width: 417
VWidth: 0
Flags: HW
LayerCount: 2
Fore
SplineSet
374 387 m 0
 374 457 315 490 243 490 c 0
 187 490 134 466 102 427 c 0
 99 423 98 419 98 414 c 0
 98 398 112 380 129 380 c 0
 137 380 145 384 154 394 c 0
 173 415 202 426 228 426 c 0
 261 426 290 408 290 371 c 0
 290 318 239 291 179 291 c 0
 150 291 138 281 138 263 c 0
 138 244 148 233 165 233 c 0
 239 233 303 204 303 144 c 0
 303 75 264 49 220 49 c 0
 179 49 135 71 115 100 c 0
 107 112 96 117 85 117 c 0
 65 117 45 100 45 80 c 0
 45 74 47 67 51 61 c 0
 82 12 141 -19 214 -19 c 0
 298 -19 382 26 382 143 c 0
 382 204 349 253 279 271 c 1
 344 284 374 340 374 387 c 0
EndSplineSet
Substitution2: "'sups' Superscript lookup 5 subtable" uni00B3
EndChar

StartChar: threequarters
Encoding: 190 190 364
Width: 1083
VWidth: 0
Flags: HW
LayerCount: 2
Fore
SplineSet
817 -20 m 0
 837 -20 850 -16 858 21 c 2
 870 69 l 1
 933 70 l 2
 954 71 965 92 965 110 c 0
 965 123 959 135 946 135 c 2
 945 135 l 1
 884 135 l 1
 892 167 917 268 923 297 c 0
 923 299 924 300 924 302 c 0
 924 316 909 321 894 321 c 0
 869 321 857 309 851 288 c 0
 844 263 815 157 811 136 c 1
 721 136 l 1
 753 239 796 368 820 449 c 0
 821 451 821 454 821 456 c 0
 821 472 803 482 785 482 c 0
 770 482 755 475 750 459 c 0
 723 382 664 207 641 130 c 0
 637 116 634 104 634 95 c 0
 634 74 646 68 666 68 c 2
 795 68 l 1
 786 22 l 2
 785 16 784 11 784 6 c 0
 784 -11 793 -20 817 -20 c 0
406 -16 m 2
 660 571 l 2
 662 576 663 581 663 586 c 0
 663 605 648 621 630 621 c 0
 618 621 604 613 595 593 c 2
 341 20 l 2
 338 13 337 7 337 1 c 0
 337 -22 357 -36 376 -36 c 0
 388 -36 400 -30 406 -16 c 2
351 592 m 0
 351 662 291 695 219 695 c 0
 163 695 111 671 79 632 c 0
 76 628 75 624 75 619 c 0
 75 604 88 586 105 586 c 0
 113 586 122 589 131 599 c 0
 150 620 179 631 205 631 c 0
 238 631 267 613 267 576 c 0
 267 523 216 496 155 496 c 0
 127 496 115 486 115 468 c 0
 115 449 125 438 141 438 c 0
 216 438 280 409 280 349 c 0
 280 280 241 254 197 254 c 0
 156 254 112 276 92 305 c 0
 84 317 73 322 62 322 c 0
 42 322 21 304 21 284 c 0
 21 278 23 272 27 266 c 0
 59 217 118 187 191 187 c 0
 192 187 193 187 194 187 c 0
 277 187 358 232 358 348 c 0
 358 409 325 458 256 476 c 1
 320 489 351 545 351 592 c 0
EndSplineSet
Ligature2: "'frac' Diagonal Fractions lookup 6 subtable" three slash four
EndChar

StartChar: tilde
Encoding: 449 732 366
Width: 328
VWidth: 0
Flags: HW
AnchorPoint: "top" 146 339 mark 0
LayerCount: 2
Fore
SplineSet
220 388 m 0
 260 388 304 438 304 477 c 0
 304 493 291 502 276 502 c 0
 242 502 230 465 214 446 c 1
 197 460 183 471 172 480 c 0
 152 496 136 513 105 513 c 0
 64 513 21 463 21 424 c 0
 21 408 34 399 49 399 c 0
 81 399 96 436 111 455 c 1
 128 441 142 430 153 421 c 0
 173 405 189 388 220 388 c 0
EndSplineSet
EndChar

StartChar: trademark
Encoding: 450 8482 367
Width: 932
VWidth: 0
Flags: HW
LayerCount: 2
Fore
SplineSet
708 344 m 0
 697 344 693 351 693 363 c 0
 693 399 732 480 740 532 c 0
 741 536 741 540 741 543 c 0
 741 580 712 604 672 604 c 0
 628 604 601 568 581 524 c 1
 581 528 582 532 582 536 c 0
 582 571 564 605 525 605 c 0
 522 605 519 604 516 604 c 0
 475 599 429 546 398 479 c 1
 407 508 422 556 422 568 c 0
 422 602 342 604 291 604 c 0
 197 604 92 597 92 504 c 0
 92 485 102 472 122 472 c 0
 145 472 162 483 162 504 c 0
 162 544 197 552 250 552 c 1
 184 352 l 2
 181 344 180 336 180 330 c 0
 180 314 190 304 207 304 c 0
 227 304 232 318 239 342 c 0
 255 407 281 485 299 552 c 1
 319 552 354 551 374 547 c 1
 374 547 330 414 313 339 c 0
 312 337 312 335 312 333 c 0
 312 314 331 301 351 301 c 0
 369 301 376 318 382 333 c 0
 394 361 406 394 417 424 c 0
 442 489 474 533 499 540 c 0
 501 541 503 541 505 541 c 0
 517 541 523 531 523 512 c 0
 523 505 522 496 520 486 c 0
 512 444 496 392 482 338 c 0
 482 336 481 333 481 331 c 0
 481 315 495 301 521 301 c 0
 536 301 544 311 549 326 c 0
 574 408 601 540 659 540 c 0
 672 540 680 530 680 518 c 0
 680 515 680 513 679 510 c 0
 665 457 646 405 639 357 c 0
 639 354 638 351 638 348 c 0
 638 318 663 296 699 296 c 0
 738 296 772 325 795 362 c 0
 799 369 801 375 801 381 c 0
 801 395 790 403 778 403 c 0
 771 403 764 400 760 394 c 0
 746 372 727 344 708 344 c 0
EndSplineSet
EndChar

StartChar: two
Encoding: 50 50 368
Width: 417
VWidth: 0
Flags: HW
LayerCount: 2
Fore
SplineSet
140 371 m 0
 140 410 188 434 227 434 c 0
 282 434 308 387 308 312 c 0
 308 251 285 182 237 135 c 1
 205 157 168 178 123 178 c 0
 73 178 41 144 41 94 c 0
 41 39 88 0 143 0 c 0
 184 0 216 22 243 45 c 1
 267 26 296 0 334 0 c 0
 379 0 394 41 394 76 c 0
 394 88 391 97 382 97 c 0
 370 97 364 78 348 78 c 0
 324 78 306 84 290 94 c 1
 343 153 388 237 388 321 c 0
 388 456 300 499 228 499 c 0
 137 499 66 451 66 359 c 0
 66 315 82 286 121 286 c 0
 144 286 151 293 151 307 c 0
 151 321 140 347 140 371 c 0
133 62 m 0
 111 62 100 78 100 92 c 0
 100 104 107 114 124 114 c 0
 146 114 179 104 195 93 c 1
 176 73 150 62 133 62 c 0
EndSplineSet
Substitution2: "'sups' Superscript lookup 5 subtable" uni00B2
EndChar

StartChar: u
Encoding: 117 117 370
Width: 347
VWidth: 0
Flags: HW
PickledData: "(dp1
S'com.typemytype.robofont.layerData'
p2
(dp3
s."
AnchorPoint: "top" 216 339 basechar 0
AnchorPoint: "ogonek" 280 0 basechar 0
LayerCount: 2
Fore
SplineSet
18 99 m 0
 18 42 43 -5 106 -5 c 0
 168 -5 209 55 220 86 c 1
 217 55 l 1
 218 15 236 -4 277 -4 c 0
 327 -4 413 52 437 97 c 1
 439 111 417 131 400 131 c 0
 393 131 392 128 383 121 c 0
 373 110 330 65 300 63 c 0
 292 63 286 68 286 86 c 0
 286 89 287 94 287 98 c 0
 296 182 323 270 332 297 c 0
 332 298 333 300 333 301 c 0
 333 316 315 330 299 330 c 0
 276 330 265 326 251 279 c 2
 224 179 l 2
 202 101 157 61 124 61 c 0
 101 61 90 80 90 110 c 0
 90 112 90 114 90 117 c 0
 96 204 142 286 142 305 c 0
 142 319 127 330 108 330 c 0
 92 330 81 326 73 313 c 0
 63 296 18 192 18 99 c 0
EndSplineSet
EndChar

StartChar: underscore
Encoding: 95 95 378
Width: 426
VWidth: 0
Flags: HW
LayerCount: 2
Fore
SplineSet
44 0 m 2
 349 0 l 2
 395 0 433 11 433 56 c 0
 433 72 421 77 405 77 c 0
 297 77 189 77 81 77 c 0
 42 77 -2 75 -2 37 c 0
 -2 12 19 0 44 0 c 2
EndSplineSet
EndChar

StartChar: uni01C7
Encoding: 459 455 384
Width: 1129
VWidth: 0
Flags: HW
LayerCount: 2
Fore
SplineSet
1134 667 m 1
 1050 672 979 679 900 679 c 0
 840 679 811 672 795 650 c 1
 763 685 713 708 649 708 c 0
 636 708 622 707 608 705 c 0
 501 689 398 618 396 421 c 1
 362 426 325 433 285 442 c 0
 282 443 280 443 277 443 c 0
 257 443 244 423 244 405 c 0
 244 393 249 383 262 380 c 0
 310 369 355 361 396 356 c 1
 396 244 393 130 353 53 c 1
 300 86 240 118 165 118 c 0
 92 118 54 66 54 13 c 0
 54 -44 98 -104 189 -104 c 0
 267 -104 326 -80 371 -39 c 1
 422 -70 472 -98 521 -98 c 0
 572 -98 622 -68 671 20 c 0
 675 27 677 33 677 39 c 0
 677 53 667 62 654 62 c 0
 645 62 636 58 627 48 c 0
 586 -2 549 -20 513 -20 c 0
 480 -20 449 -5 415 15 c 1
 464 91 483 196 483 303 c 0
 483 318 483 334 482 349 c 1
 491 349 499 349 508 349 c 0
 740 349 836 452 836 548 c 0
 836 560 835 571 832 583 c 1
 844 586 861 587 886 587 c 0
 950 587 1044 581 1111 579 c 1
 1067 381 928 -130 821 -130 c 0
 775 -130 773 -81 767 1 c 0
 765 24 750 37 735 37 c 0
 720 37 705 23 705 -7 c 0
 705 -130 747 -195 815 -195 c 0
 820 -195 825 -195 830 -194 c 0
 981 -177 1105 259 1187 578 c 1
 1237 579 1279 581 1307 586 c 0
 1335 591 1348 603 1348 624 c 0
 1348 645 1339 661 1306 661 c 0
 1270 661 1235 662 1200 664 c 1
 1195 672 1184 679 1166 679 c 0
 1152 679 1142 677 1134 667 c 1
597 625 m 0
 617 631 635 634 652 634 c 0
 716 634 755 594 755 549 c 0
 755 487 683 414 504 414 c 0
 497 414 490 414 483 414 c 1
 490 549 523 603 597 625 c 0
167 46 m 0
 168 46 169 46 170 46 c 0
 218 46 264 24 310 -2 c 1
 281 -27 241 -41 189 -41 c 0
 149 -41 130 -15 130 9 c 0
 130 28 143 46 167 46 c 0
EndSplineSet
Position2: "'cpsp' Capital Spacing lookup 0 subtable" dx=5 dy=0 dh=10 dv=0
EndChar

StartChar: uni01C8
Encoding: 460 456 385
Width: 843
VWidth: 0
Flags: HW
AnchorPoint: "top" 582 671 basechar 0
AnchorPoint: "bot" 409 -154 basechar 0
LayerCount: 2
Fore
SplineSet
934 229 m 0
 872 203 833 198 757 186 c 1
 781 241 l 2
 789 258 803 285 803 308 c 0
 803 319 796 328 783 328 c 0
 737 328 724 315 709 280 c 0
 666 178 629 58 629 -79 c 0
 629 -97 630 -115 632 -131 c 1
 563 -110 487 -50 409 5 c 1
 463 82 483 192 483 303 c 0
 483 318 483 333 482 348 c 1
 483 348 484 348 485 348 c 0
 699 348 787 457 787 555 c 0
 787 635 728 707 633 707 c 0
 625 707 617 706 608 705 c 0
 500 691 397 617 396 419 c 1
 362 424 325 431 285 442 c 0
 282 443 279 443 276 443 c 0
 256 443 244 424 244 406 c 0
 244 394 249 383 262 380 c 0
 310 368 355 359 396 354 c 1
 396 239 393 123 349 46 c 1
 287 87 225 118 165 118 c 0
 92 118 54 66 54 13 c 0
 54 -44 98 -104 189 -104 c 0
 265 -104 323 -81 367 -43 c 1
 480 -117 602 -210 691 -210 c 0
 701 -210 711 -209 720 -206 c 0
 799 -191 830 -75 830 16 c 0
 830 59 821 98 811 131 c 1
 872 132 954 146 954 211 c 0
 954 223 950 231 942 231 c 0
 940 231 937 231 934 229 c 0
483 412 m 1
 490 550 522 608 597 625 c 0
 607 627 618 628 627 628 c 0
 681 628 712 592 712 549 c 0
 712 487 646 412 485 412 c 0
 484 412 484 412 483 412 c 1
916 450 m 0
 916 481 895 495 866 495 c 0
 831 495 804 475 804 441 c 0
 804 410 824 394 858 394 c 0
 893 394 916 415 916 450 c 0
765 12 m 0
 765 -43 753 -131 720 -131 c 0
 706 -131 703 -107 703 -85 c 0
 703 -78 704 -71 704 -65 c 0
 711 14 727 84 745 153 c 1
 754 108 765 63 765 12 c 0
307 -5 m 1
 278 -28 239 -41 189 -41 c 0
 149 -41 130 -15 130 9 c 0
 130 28 143 46 167 46 c 0
 206 46 254 25 307 -5 c 1
EndSplineSet
Position2: "'cpsp' Capital Spacing lookup 0 subtable" dx=5 dy=0 dh=10 dv=0
EndChar

StartChar: uni01CB
Encoding: 463 459 388
Width: 827
VWidth: 0
Flags: HW
LayerCount: 2
Fore
SplineSet
686 -208 m 0
 778 -208 814 -80 814 16 c 0
 814 59 805 98 795 131 c 1
 856 132 938 146 938 211 c 0
 938 223 934 231 926 231 c 0
 924 231 921 231 918 229 c 0
 856 203 817 198 741 186 c 1
 765 241 l 2
 773 258 787 285 787 308 c 0
 787 319 780 328 767 328 c 0
 721 328 708 315 693 280 c 0
 669 223 644 151 629 79 c 1
 603 53 569 38 540 38 c 0
 511 38 489 52 489 83 c 0
 489 89 489 95 491 102 c 0
 529 268 621 441 621 543 c 0
 621 604 579 643 507 643 c 0
 351 643 272 474 219 332 c 1
 241 418 258 507 258 553 c 0
 257 609 218 642 170 642 c 0
 101 642 33 588 -4 505 c 0
 -7 498 -8 492 -8 486 c 0
 -8 455 31 436 46 436 c 0
 49 436 50 437 51 438 c 0
 84 527 120 571 155 571 c 2
 156 571 l 2
 180 571 181 521 181 510 c 0
 181 390 81 122 25 -17 c 1
 25 -17 49 -42 81 -42 c 0
 121 -42 127 -9 140 22 c 0
 247 287 357 555 492 555 c 0
 520 555 531 535 531 511 c 0
 531 439 439 257 411 85 c 0
 410 79 410 72 410 66 c 0
 410 9 452 -31 535 -31 c 0
 560 -31 589 -22 616 -8 c 1
 614 -30 613 -54 613 -78 c 0
 613 -146 626 -208 686 -208 c 0
850 450 m 0
 850 481 829 495 800 495 c 0
 765 495 738 475 738 441 c 0
 738 410 758 394 792 394 c 0
 827 394 850 415 850 450 c 0
749 12 m 0
 749 -43 737 -131 704 -131 c 0
 690 -131 687 -107 687 -85 c 0
 687 -78 688 -71 688 -65 c 0
 695 14 711 84 729 153 c 1
 738 108 749 63 749 12 c 0
EndSplineSet
Position2: "'cpsp' Capital Spacing lookup 0 subtable" dx=5 dy=0 dh=10 dv=0
EndChar

StartChar: uni0259
Encoding: 521 601 446
Width: 356
VWidth: 0
Flags: HW
LayerCount: 2
Fore
SplineSet
354 195 m 0
 354 289 286 330 215 330 c 0
 132 330 75 256 43 214 c 0
 38 208 36 202 36 196 c 0
 36 181 51 169 63 169 c 0
 67 169 71 171 74 174 c 0
 129 235 179 266 216 266 c 0
 245 266 266 247 274 208 c 1
 168 203 93 155 93 79 c 0
 93 26 135 -6 188 -6 c 0
 284 -6 354 102 354 195 c 0
279 164 m 1
 279 107 232 59 183 59 c 0
 168 59 154 66 154 87 c 0
 154 129 202 158 279 164 c 1
EndSplineSet
EndChar

StartChar: uni02C9
Encoding: 522 713 447
Width: 205
VWidth: 0
Flags: HW
AnchorPoint: "top" 86 339 mark 0
LayerCount: 2
Fore
SplineSet
209 486 m 0
 230 486 239 494 239 512 c 0
 239 528 226 534 212 538 c 0
 151 547 104 550 69 550 c 0
 39 550 18 548 3 543 c 0
 -29 534 -35 518 -35 504 c 0
 -35 487 -27 473 -10 473 c 0
 -8 473 -6 473 -3 474 c 0
 30 481 56 489 120 489 c 0
 143 489 174 486 209 486 c 0
EndSplineSet
EndChar

StartChar: uni0307
Encoding: 523 775 448
Width: 205
VWidth: 0
Flags: HW
AnchorPoint: "top" 108 339 mark 0
LayerCount: 2
Fore
SplineSet
116 446 m 0
 143 446 166 469 166 497 c 0
 166 520 146 539 121 539 c 0
 95 539 72 516 72 489 c 0
 72 465 93 446 116 446 c 0
EndSplineSet
EndChar

StartChar: uni030F
Encoding: 524 783 449
Width: 205
VWidth: 0
Flags: HW
AnchorPoint: "top" 166 339 mark 0
LayerCount: 2
Fore
SplineSet
69 407 m 2
 74 401 81 399 88 399 c 0
 100 399 111 407 111 419 c 0
 111 423 110 427 107 431 c 2
 -10 616 l 2
 -22 634 -38 642 -52 642 c 0
 -74 642 -92 626 -92 604 c 0
 -92 594 -88 582 -78 571 c 2
 69 407 l 2
219 417 m 2
 224 410 230 408 237 408 c 0
 249 408 260 417 260 429 c 0
 260 433 259 437 257 441 c 2
 175 616 l 2
 166 636 150 644 136 644 c 0
 115 644 95 626 95 602 c 0
 95 592 98 582 106 571 c 2
 219 417 l 2
EndSplineSet
EndChar

StartChar: uni0311
Encoding: 525 785 450
Width: 205
VWidth: 0
Flags: HW
AnchorPoint: "top" 87 339 mark 0
LayerCount: 2
Fore
SplineSet
211 477 m 0
 211 526 176 554 119 554 c 0
 78 554 13 528 13 459 c 0
 13 450 24 446 35 446 c 0
 47 446 59 451 60 458 c 0
 65 485 94 499 120 499 c 0
 142 499 160 489 160 470 c 0
 160 467 160 464 160 461 c 0
 160 449 171 443 183 443 c 0
 203 443 211 455 211 477 c 0
EndSplineSet
EndChar

StartChar: uni0312
Encoding: 526 786 451
Width: 205
VWidth: 0
Flags: HW
AnchorPoint: "top" 96 339 mark 0
LayerCount: 2
Fore
SplineSet
110 453 m 0
 132 453 150 468 153 496 c 0
 171 650 171 652 171 653 c 0
 171 670 162 682 151 682 c 0
 133 682 120 666 115 650 c 0
 99 605 69 543 69 490 c 0
 69 465 87 453 110 453 c 0
EndSplineSet
EndChar

StartChar: uni0358
Encoding: 528 856 453
Width: 205
VWidth: 0
Flags: HW
AnchorPoint: "top" 98 339 mark 0
LayerCount: 2
Fore
SplineSet
106 446 m 0
 133 446 156 469 156 497 c 0
 156 520 136 539 111 539 c 0
 85 539 62 516 62 489 c 0
 62 465 83 446 106 446 c 0
EndSplineSet
EndChar

StartChar: uni2219
Encoding: 536 8729 461
Width: 205
VWidth: 0
Flags: HW
LayerCount: 2
Fore
SplineSet
116 446 m 0
 143 446 166 469 166 497 c 0
 166 520 146 539 121 539 c 0
 95 539 72 516 72 489 c 0
 72 465 93 446 116 446 c 0
EndSplineSet
EndChar

StartChar: uniFB00
Encoding: 537 64256 462
Width: 498
VWidth: 0
Flags: HW
LayerCount: 2
Fore
SplineSet
99 -207 m 0
 188 -207 223 -109 223 -41 c 0
 223 34 201 96 182 146 c 1
 211 146 246 148 273 157 c 1
 271 111 270 64 270 18 c 0
 270 -65 283 -155 354 -155 c 0
 436 -155 451 -78 451 -27 c 0
 451 42 427 100 407 146 c 1
 484 149 589 157 589 247 c 0
 589 260 584 271 577 271 c 0
 575 271 572 271 570 269 c 0
 517 230 467 200 419 200 c 0
 407 200 395 202 383 206 c 1
 454 273 574 393 574 504 c 0
 574 551 548 583 505 583 c 0
 375 583 307 385 278 214 c 1
 255 207 227 200 199 200 c 0
 185 200 171 202 159 206 c 1
 226 285 342 425 342 555 c 0
 342 603 317 634 274 634 c 0
 84 634 18 178 18 -13 c 0
 18 -95 27 -207 99 -207 c 0
110 -129 m 0
 97 -129 95 -64 95 -16 c 0
 95 49 102 113 104 178 c 1
 129 131 151 64 151 -20 c 2
 151 -21 l 2
 151 -59 150 -129 110 -129 c 0
355 -78 m 0
 335 -78 332 18 332 93 c 0
 332 115 332 130 332 145 c 0
 332 152 332 160 332 167 c 1
 342 162 l 1
 358 124 385 33 385 -22 c 0
 385 -54 377 -78 355 -78 c 0
127 226 m 1
 119 234 l 1
 128 265 183 558 261 558 c 0
 275 558 278 541 278 522 c 0
 278 441 183 296 127 226 c 1
344 234 m 1
 353 260 410 506 489 506 c 0
 504 506 510 497 510 483 c 0
 510 419 395 271 344 234 c 1
EndSplineSet
Ligature2: "'dlig' Discretionary Ligatures lookup 10 subtable" f f
EndChar

StartChar: v
Encoding: 118 118 470
Width: 330
VWidth: 0
Flags: HW
LayerCount: 2
Fore
SplineSet
476 250 m 0
 478 254 479 259 479 263 c 0
 479 280 464 297 450 297 c 0
 444 297 439 295 434 288 c 0
 404 247 357 218 308 209 c 1
 318 234 327 261 334 290 c 0
 335 294 336 298 336 302 c 0
 336 320 323 330 307 330 c 0
 276 330 230 291 230 197 c 0
 230 192 230 187 230 181 c 0
 191 95 144 65 144 65 c 2
 143 65 124 102 124 176 c 0
 124 208 127 247 137 293 c 0
 137 295 138 296 138 298 c 0
 138 316 118 329 99 329 c 0
 84 329 70 322 64 303 c 0
 48 250 41 202 41 160 c 0
 41 56 84 -9 126 -9 c 0
 133 -9 140 -7 147 -3 c 0
 197 23 243 76 280 147 c 0
 281 147 282 147 283 147 c 0
 354 147 447 198 476 250 c 0
EndSplineSet
EndChar

StartChar: w
Encoding: 119 119 471
Width: 576
VWidth: 0
Flags: HW
PickledData: "(dp1
S'com.typemytype.robofont.layerData'
p2
(dp3
s."
AnchorPoint: "top" 356 339 basechar 0
LayerCount: 2
Fore
SplineSet
516 234 m 1
 490 248 479 271 479 290 c 0
 479 309 490 325 505 325 c 0
 518 325 528 313 528 289 c 0
 528 275 524 257 516 234 c 1
161 56 m 0
 133 56 122 83 122 120 c 0
 122 127 122 134 123 141 c 0
 130 217 195 291 200 298 c 0
 201 300 202 302 202 305 c 0
 202 318 185 336 165 336 c 0
 152 336 139 330 126 311 c 0
 113 290 46 207 46 116 c 0
 46 35 90 -11 154 -11 c 0
 205 -11 241 22 271 69 c 1
 279 28 302 -13 356 -13 c 0
 426 -13 497 48 547 142 c 0
 552 151 556 161 560 170 c 1
 565 170 571 169 576 169 c 0
 611 169 653 177 700 197 c 0
 711 201 715 211 715 220 c 0
 715 233 705 247 691 247 c 0
 686 247 681 245 676 242 c 0
 637 229 605 223 579 222 c 1
 585 243 587 263 587 280 c 0
 587 342 555 379 508 381 c 0
 448 381 418 343 418 299 c 0
 418 258 445 212 495 187 c 1
 492 181 489 175 485 169 c 0
 457 107 407 53 362 53 c 0
 335 53 321 76 321 113 c 0
 321 134 325 159 335 188 c 0
 350 231 376 271 376 294 c 0
 376 308 366 316 341 316 c 0
 340 316 339 316 338 316 c 0
 318 316 299 276 286 227 c 1
 270 191 l 2
 223 83 189 56 161 56 c 0
EndSplineSet
EndChar

StartChar: x
Encoding: 120 120 476
Width: 326
VWidth: 0
Flags: HW
LayerCount: 2
Fore
SplineSet
253 -5 m 0
 265 -8 275 -10 285 -10 c 0
 358 -10 391 71 409 103 c 0
 413 110 415 118 415 125 c 0
 415 140 407 152 395 152 c 0
 388 152 380 147 372 137 c 0
 354 113 324 53 282 53 c 0
 255 53 232 76 196 133 c 1
 285 251 l 2
 295 264 306 268 317 268 c 0
 334 268 352 258 364 258 c 0
 376 258 381 273 381 287 c 0
 381 317 356 334 327 334 c 0
 305 334 281 324 263 302 c 2
 167 180 l 1
 145 217 119 264 85 321 c 0
 83 325 78 327 72 327 c 0
 57 327 34 314 34 295 c 0
 34 291 36 287 38 282 c 0
 74 220 102 169 126 128 c 1
 97 94 73 69 53 55 c 0
 42 48 38 38 38 28 c 0
 38 7 56 -14 76 -14 c 0
 85 -14 95 -9 103 3 c 0
 120 29 136 54 155 80 c 1
 186 34 214 6 253 -5 c 0
EndSplineSet
EndChar

StartChar: y
Encoding: 121 121 477
Width: 346
VWidth: 0
Flags: HW
PickledData: "(dp1
S'com.typemytype.robofont.layerData'
p2
(dp3
s."
AnchorPoint: "top" 228 339 basechar 0
LayerCount: 2
Fore
SplineSet
61 -317 m 0
 211 -317 251 -157 274 -37 c 1
 340 7 418 50 469 80 c 0
 484 89 490 101 490 112 c 0
 490 129 476 144 461 144 c 0
 457 144 454 143 450 141 c 0
 417 124 329 67 285 35 c 1
 291 73 298 107 305 141 c 0
 313 189 334 246 334 292 c 0
 334 305 318 311 304 311 c 0
 278 311 265 293 258 266 c 2
 229 162 l 2
 216 118 190 61 146 61 c 0
 117 61 111 90 111 111 c 0
 111 155 125 199 136 236 c 0
 144 256 156 271 156 291 c 0
 156 308 139 316 128 316 c 0
 109 316 88 301 79 284 c 0
 51 231 31 175 31 96 c 0
 31 42 67 0 118 0 c 0
 152 0 204 32 228 77 c 1
 198 -10 l 1
 145 -49 87 -81 45 -129 c 0
 18 -160 -22 -201 -22 -249 c 0
 -22 -297 11 -317 61 -317 c 0
73 -259 m 0
 59 -259 51 -252 51 -239 c 0
 51 -205 128 -116 186 -81 c 1
 174 -134 137 -259 73 -259 c 0
EndSplineSet
EndChar

StartChar: yen
Encoding: 551 165 481
Width: 528
VWidth: 0
Flags: HW
LayerCount: 2
Fore
SplineSet
286 17 m 2
 323 132 l 1
 407 132 l 2
 438 132 470 136 470 165 c 0
 470 183 442 187 423 187 c 2
 344 187 l 1
 356 219 l 1
 416 219 l 2
 447 219 481 223 481 252 c 0
 481 271 452 274 433 274 c 2
 393 274 l 1
 437 335 514 449 558 506 c 0
 566 516 569 526 569 535 c 0
 569 556 550 571 529 571 c 0
 515 571 501 564 490 548 c 0
 436 466 381 366 324 283 c 1
 317 321 267 517 257 551 c 0
 250 575 233 585 217 585 c 0
 196 585 175 568 175 542 c 0
 175 537 175 531 177 526 c 2
 254 274 l 1
 203 274 l 2
 180 274 153 271 153 250 c 0
 153 226 177 219 203 219 c 2
 256 219 l 1
 248 187 l 1
 188 187 l 2
 164 187 140 183 140 162 c 0
 140 138 162 132 188 132 c 2
 233 132 l 1
 229 114 209 50 205 40 c 0
 201 30 199 22 199 15 c 0
 199 -6 216 -16 234 -16 c 0
 255 -16 279 -4 286 17 c 2
EndSplineSet
EndChar

StartChar: z
Encoding: 122 122 483
Width: 235
VWidth: 0
Flags: HW
PickledData: "(dp1
S'com.typemytype.robofont.layerData'
p2
(dp3
s."
AnchorPoint: "top" 176 339 basechar 0
LayerCount: 2
Fore
SplineSet
297 65 m 0
 305 71 308 81 308 90 c 0
 308 104 301 118 293 118 c 0
 292 118 290 118 289 117 c 0
 211 71 156 56 121 56 c 0
 88 56 72 69 72 84 c 1
 92 102 219 215 239 236 c 0
 254 252 255 275 255 289 c 0
 255 303 241 317 220 317 c 0
 203 317 109 316 50 316 c 0
 31 316 25 304 25 291 c 0
 25 274 35 255 43 255 c 0
 69 255 139 259 189 263 c 1
 40 137 l 2
 24 123 2 101 2 68 c 0
 2 23 46 -5 109 -5 c 0
 163 -5 231 16 297 65 c 0
EndSplineSet
EndChar

StartChar: zero
Encoding: 48 48 487
Width: 417
VWidth: 0
Flags: HW
LayerCount: 2
Fore
SplineSet
326 295 m 0
 326 180 300 62 216 62 c 0
 152 62 132 110 132 191 c 0
 132 325 171 422 248 422 c 0
 310 422 326 369 326 295 c 0
44 188 m 0
 44 79 94 -8 211 -8 c 0
 337 -8 412 128 412 291 c 0
 412 398 372 495 256 495 c 0
 110 495 44 335 44 188 c 0
EndSplineSet
EndChar
